<?xml version="1.0" encoding="UTF-8"?>
<!DOCTYPE svg PUBLIC "-//W3C//DTD SVG 1.1//EN" "http://www.w3.org/Graphics/SVG/1.1/DTD/svg11.dtd">
<svg xmlns="http://www.w3.org/2000/svg" version="1.1" width="1390px" height="1352px" style="shape-rendering:geometricPrecision; text-rendering:geometricPrecision; image-rendering:optimizeQuality; fill-rule:evenodd; clip-rule:evenodd" xmlns:xlink="http://www.w3.org/1999/xlink">
<g><path style="opacity:0.94" fill="#fefffe" d="M 690.5,28.5 C 693.119,28.2317 695.619,28.565 698,29.5C 698.91,45.0532 702.244,60.0532 708,74.5C 717.6,95.6999 728.267,116.367 740,136.5C 745.321,148.13 749.655,160.13 753,172.5C 761.613,211.563 752.113,245.396 724.5,274C 719.262,278.619 713.262,281.619 706.5,283C 698.167,283.667 689.833,283.667 681.5,283C 669.911,277.415 660.078,269.582 652,259.5C 645.238,248.98 639.238,237.98 634,226.5C 633.833,218.167 633.667,209.833 633.5,201.5C 633.387,191.777 633.887,182.11 635,172.5C 644.775,146.617 656.442,121.617 670,97.5C 677.248,83.0888 682.915,68.0888 687,52.5C 687.971,44.4496 689.137,36.4496 690.5,28.5 Z M 691.5,64.5 C 693.144,64.2865 694.644,64.6198 696,65.5C 696.995,73.6505 699.495,81.3172 703.5,88.5C 703.167,89.5 702.5,90.1667 701.5,90.5C 696.252,86.9803 692.919,88.3137 691.5,94.5C 692.308,98.262 693.642,101.762 695.5,105C 697.473,105.495 699.473,105.662 701.5,105.5C 701.336,102.813 701.503,100.146 702,97.5C 703.241,95.5794 704.741,95.246 706.5,96.5C 713.987,115.125 722.154,133.459 731,151.5C 731.883,157.083 733.05,162.583 734.5,168C 734.157,170.565 732.99,171.399 731,170.5C 724.452,153.568 715.952,137.735 705.5,123C 704.207,122.51 702.873,122.343 701.5,122.5C 701.876,127.671 703.042,132.671 705,137.5C 707.09,144.112 709.757,150.445 713,156.5C 715.313,165.733 716.646,175.067 717,184.5C 715.167,187.667 712.667,190.167 709.5,192C 699.816,193.334 691.316,197.167 684,203.5C 682.139,205.888 680.806,208.554 680,211.5C 679.667,216.5 679.333,221.5 679,226.5C 678.632,227.91 677.799,228.91 676.5,229.5C 671.888,226.392 667.722,222.725 664,218.5C 662.547,211.126 661.214,203.792 660,196.5C 658.36,207.008 658.027,217.675 659,228.5C 663.721,236.885 669.554,244.385 676.5,251C 687.521,255.887 698.854,257.053 710.5,254.5C 712.283,255.348 712.783,256.681 712,258.5C 706.822,263.392 700.656,265.392 693.5,264.5C 686.415,265.193 680.081,263.36 674.5,259C 647.354,233.253 639.521,202.419 651,166.5C 662.875,136.219 675.542,106.219 689,76.5C 689.997,72.4963 690.831,68.4963 691.5,64.5 Z M 734.5,178.5 C 736.39,178.297 737.89,178.963 739,180.5C 740.977,193.494 740.977,206.494 739,219.5C 737.556,221.155 735.722,221.822 733.5,221.5C 733.184,207.088 733.518,192.755 734.5,178.5 Z"/></g>
<g><path style="opacity:0.806" fill="#fefffe" d="M 661.5,164.5 C 665.96,164.87 668.293,167.37 668.5,172C 667.744,174.856 666.911,177.689 666,180.5C 664.267,182.602 662.267,182.935 660,181.5C 658.085,175.647 658.585,169.98 661.5,164.5 Z"/></g>
<g><path style="opacity:0.957" fill="#fefffe" d="M 671.5,316.5 C 691.858,316.164 712.192,316.664 732.5,318C 757.186,321.813 781.853,325.813 806.5,330C 828.336,338.39 850.336,346.39 872.5,354C 894.292,363.968 914.125,376.802 932,392.5C 936.931,398.343 938.931,405.01 938,412.5C 937.117,415.102 935.617,417.269 933.5,419C 927.101,422.532 920.434,425.532 913.5,428C 904.037,435.129 895.537,443.296 888,452.5C 883.215,460.452 881.049,469.119 881.5,478.5C 881.699,485.661 882.866,492.661 885,499.5C 887.333,505.167 889.667,510.833 892,516.5C 908.079,546.428 922.412,577.095 935,608.5C 945.659,637.423 948.325,667.089 943,697.5C 941.231,704.37 938.898,711.036 936,717.5C 925.307,734.697 912.807,750.53 898.5,765C 882.316,777.51 865.316,788.843 847.5,799C 829.938,806.615 812.271,813.949 794.5,821C 784.006,826.413 773.673,832.079 763.5,838C 753.181,844.651 745.348,853.484 740,864.5C 736.696,871.312 737.03,877.978 741,884.5C 747.774,898.509 755.107,912.175 763,925.5C 776.338,949.531 782.005,975.197 780,1002.5C 778.466,1009.63 776.466,1016.63 774,1023.5C 765.299,1040.85 756.632,1058.19 748,1075.5C 745.633,1085.53 746.633,1095.2 751,1104.5C 762.012,1116.15 775.178,1124.65 790.5,1130C 802.363,1134.4 814.363,1138.4 826.5,1142C 852.283,1147.93 877.95,1154.26 903.5,1161C 926.947,1168.15 949.947,1176.48 972.5,1186C 985.136,1190.56 995.969,1197.73 1005,1207.5C 1013.57,1222.14 1013.57,1236.81 1005,1251.5C 994.123,1262.03 981.623,1270.2 967.5,1276C 954.913,1281.2 942.246,1286.2 929.5,1291C 912.599,1294.06 895.932,1298.06 879.5,1303C 862.194,1305.83 844.86,1308.5 827.5,1311C 804.784,1312.89 782.118,1315.23 759.5,1318C 733.85,1319.17 708.184,1319.84 682.5,1320C 679.023,1320.66 675.523,1321.16 672,1321.5C 635.528,1318.64 599.028,1315.48 562.5,1312C 547.586,1309.13 532.586,1306.79 517.5,1305C 485.746,1298.64 454.746,1289.64 424.5,1278C 412.781,1273.27 401.781,1267.27 391.5,1260C 374.572,1246.71 370.738,1230.21 380,1210.5C 386.287,1202.88 393.787,1196.72 402.5,1192C 415.204,1185.48 428.204,1179.81 441.5,1175C 484.267,1162.22 527.267,1150.22 570.5,1139C 589.632,1133.85 607.632,1126.18 624.5,1116C 631.546,1110.3 637.046,1103.47 641,1095.5C 643,1089.5 643,1083.5 641,1077.5C 638.883,1071.26 636.216,1065.26 633,1059.5C 618.549,1038.32 609.715,1014.98 606.5,989.5C 608.51,972.301 612.677,955.634 619,939.5C 628.861,921.112 638.194,902.445 647,883.5C 651.048,867.818 646.882,854.985 634.5,845C 628.386,839.555 621.72,834.888 614.5,831C 588.178,819.336 561.845,807.669 535.5,796C 508.753,782.371 485.92,763.871 467,740.5C 444.398,711.084 436.731,678.084 444,641.5C 446.799,629.438 449.799,617.438 453,605.5C 468.167,572.164 484.167,539.164 501,506.5C 508.295,491.926 509.628,476.926 505,461.5C 499.055,450.544 491.222,441.044 481.5,433C 472.492,427.161 463.159,421.828 453.5,417C 448.442,413.496 447.276,408.996 450,403.5C 451.08,401.004 452.414,398.67 454,396.5C 465.813,384.518 478.979,374.352 493.5,366C 549.485,337.007 608.819,320.507 671.5,316.5 Z M 568.5,377.5 C 558.291,379.052 548.291,381.552 538.5,385C 530.153,388.28 521.819,391.447 513.5,394.5C 513.081,391.675 514.081,389.509 516.5,388C 526.513,382.997 535.846,376.997 544.5,370C 540.038,369.592 535.705,370.259 531.5,372C 522.148,375.783 512.981,379.95 504,384.5C 503.333,382.5 503.333,380.5 504,378.5C 506.739,375.882 509.573,373.382 512.5,371C 572.098,344.31 634.598,330.143 700,328.5C 760.092,331.783 817.592,345.616 872.5,370C 875.783,371.561 878.617,373.727 881,376.5C 881.49,377.793 881.657,379.127 881.5,380.5C 878.729,380.579 876.063,380.079 873.5,379C 865.406,375.079 857.072,371.746 848.5,369C 840.855,367.72 839.855,369.387 845.5,374C 856.163,378.994 866.163,384.994 875.5,392C 877.213,393.378 878.547,395.045 879.5,397C 878.667,397.167 877.833,397.333 877,397.5C 843.698,381.841 808.865,371.674 772.5,367C 775.795,369.434 779.462,371.101 783.5,372C 795.907,374.472 808.24,377.139 820.5,380C 831.995,384.276 843.328,388.943 854.5,394C 861.532,398.853 868.198,404.186 874.5,410C 869.979,410.415 865.979,409.082 862.5,406C 850.311,401.159 837.811,397.326 825,394.5C 824.167,394.833 823.333,395.167 822.5,395.5C 832.695,400.598 843.029,405.764 853.5,411C 855.351,412.684 857.018,414.517 858.5,416.5C 857.855,417.646 857.022,418.646 856,419.5C 838.781,411.704 820.947,406.037 802.5,402.5C 802.491,404.308 802.991,405.975 804,407.5C 806.944,408.723 809.444,410.556 811.5,413C 818.499,412.211 825.166,413.544 831.5,417C 837.325,419.745 842.992,422.745 848.5,426C 850.037,427.11 850.703,428.61 850.5,430.5C 848.801,430.66 847.134,430.494 845.5,430C 836.296,426.266 826.963,422.932 817.5,420C 815.323,418.485 813.156,416.985 811,415.5C 807.175,417.797 803.175,418.131 799,416.5C 795.293,416.752 791.793,417.585 788.5,419C 802.5,423.667 816.5,428.333 830.5,433C 838.029,435.679 844.863,439.512 851,444.5C 851.854,446.607 851.188,447.941 849,448.5C 833.212,440.237 816.545,434.571 799,431.5C 794.457,431.132 792.957,432.965 794.5,437C 805.372,442.068 816.705,445.735 828.5,448C 833.384,450.22 837.718,453.22 841.5,457C 838.028,458.58 834.362,458.913 830.5,458C 825.628,456.897 820.962,455.23 816.5,453C 812.129,452.172 807.795,452.339 803.5,453.5C 802.456,457.542 804.122,460.042 808.5,461C 821.431,462.199 833.431,466.199 844.5,473C 845.687,474.019 846.687,475.186 847.5,476.5C 841.193,477.331 834.859,477.831 828.5,478C 827.483,479.049 827.316,480.216 828,481.5C 830.408,483.956 833.241,485.789 836.5,487C 847.119,490.393 856.952,495.226 866,501.5C 866.617,502.449 866.451,503.282 865.5,504C 863.5,504.667 861.5,504.667 859.5,504C 854.793,501.977 850.126,499.977 845.5,498C 841.167,497.667 836.833,497.333 832.5,497C 824.412,493.971 816.079,491.971 807.5,491C 805.077,490.268 803.91,488.768 804,486.5C 805.377,484.246 806.877,482.08 808.5,480C 810.833,479.667 813.167,479.333 815.5,479C 816.554,477.612 816.72,476.112 816,474.5C 808.895,472.653 801.728,470.986 794.5,469.5C 794.167,470 793.833,470.5 793.5,471C 795.164,473.651 795.664,476.484 795,479.5C 785.458,488.044 775.625,496.21 765.5,504C 762.545,506.291 760.212,505.791 758.5,502.5C 763.287,487.018 767.287,471.351 770.5,455.5C 767.215,455.269 764.715,456.603 763,459.5C 756.513,467.142 750.513,475.142 745,483.5C 741.953,486.883 738.62,489.883 735,492.5C 734.055,492.095 733.388,491.428 733,490.5C 732.833,488.167 732.667,485.833 732.5,483.5C 733.71,469.603 733.71,455.769 732.5,442C 730.633,441.289 729.133,441.789 728,443.5C 721.529,455.444 715.862,467.777 711,480.5C 707.868,483.456 705.868,482.79 705,478.5C 702.662,464.485 700.328,450.485 698,436.5C 695.142,432.595 692.475,432.595 690,436.5C 687.696,450.907 685.029,465.241 682,479.5C 679.598,482.258 677.598,481.925 676,478.5C 669.787,466.742 664.121,454.742 659,442.5C 657.211,440.771 655.044,440.104 652.5,440.5C 651.86,454.817 652.193,469.151 653.5,483.5C 653.561,486.481 652.728,489.148 651,491.5C 640.735,479.84 630.568,468.007 620.5,456C 619.207,455.51 617.873,455.343 616.5,455.5C 616.485,459.56 616.985,463.56 618,467.5C 621.729,477.352 625.062,487.352 628,497.5C 629.913,503.094 628.08,505.261 622.5,504C 614.5,498 606.5,492 598.5,486C 594.833,482.333 591.167,478.667 587.5,475C 584.761,473.107 582.095,473.107 579.5,475C 581.85,479.343 584.183,483.677 586.5,488C 585.971,489.559 585.304,491.059 584.5,492.5C 587.593,493.36 590.427,494.694 593,496.5C 598.299,504.933 603.465,513.433 608.5,522C 608.275,523.621 607.442,524.788 606,525.5C 603.144,524.744 600.311,523.911 597.5,523C 586.741,516.413 575.241,511.58 563,508.5C 558.538,510.937 554.038,513.437 549.5,516C 538.063,519.858 526.396,521.691 514.5,521.5C 514.977,520.522 515.643,519.689 516.5,519C 528.476,512.178 540.81,506.178 553.5,501C 554.167,500.333 554.833,499.667 555.5,499C 548.097,497.622 541.097,498.622 534.5,502C 530.423,502.515 526.423,503.349 522.5,504.5C 522.167,504 521.833,503.5 521.5,503C 523.544,499.29 526.544,496.624 530.5,495C 538.946,490.776 547.613,487.109 556.5,484C 558.229,482.211 558.896,480.044 558.5,477.5C 553.489,477.666 548.489,477.499 543.5,477C 542.167,476 542.167,475 543.5,474C 556.028,467.433 569.028,461.933 582.5,457.5C 583.583,456.635 583.749,455.635 583,454.5C 580.859,453.232 578.526,452.565 576,452.5C 566.898,455.416 557.565,457.749 548,459.5C 546.054,459.237 545.388,458.237 546,456.5C 559.897,448.646 574.397,442.146 589.5,437C 592.592,436.066 592.925,434.9 590.5,433.5C 574.873,434.473 559.873,438.139 545.5,444.5C 544.28,444.113 543.613,443.28 543.5,442C 544.34,440.233 545.673,438.899 547.5,438C 558.96,432.075 570.626,426.742 582.5,422C 581.619,420.529 580.286,419.696 578.5,419.5C 575.5,420 572.5,420.5 569.5,421C 559.363,423.548 549.363,426.382 539.5,429.5C 539.393,427.097 540.393,425.264 542.5,424C 553.001,418.944 563.668,414.278 574.5,410C 577.503,408.834 580.17,407.167 582.5,405C 566.757,406.084 551.757,410.084 537.5,417C 534.937,418.079 532.271,418.579 529.5,418.5C 529.215,416.712 529.548,415.045 530.5,413.5C 537.79,409.008 545.456,405.175 553.5,402C 556.282,398.443 559.949,396.776 564.5,397C 564.957,396.586 565.291,396.086 565.5,395.5C 563.235,394.353 560.902,394.186 558.5,395C 549.311,397.422 540.145,399.922 531,402.5C 529.231,401.629 528.564,400.296 529,398.5C 530.167,397.333 531.333,396.167 532.5,395C 541.382,390.725 550.382,386.725 559.5,383C 562.898,381.643 565.898,379.81 568.5,377.5 Z M 804.5,494.5 C 813.423,496.656 822.423,498.49 831.5,500C 844.132,505.993 856.799,511.993 869.5,518C 870.5,519 871.5,520 872.5,521C 870.045,522.54 867.379,522.874 864.5,522C 854.5,519.667 844.5,517.333 834.5,515C 832.301,511.807 829.801,508.974 827,506.5C 819.983,508.714 812.816,510.214 805.5,511C 798.841,517.993 790.841,522.327 781.5,524C 779.789,522.867 779.289,521.367 780,519.5C 784.064,513.764 787.73,507.764 791,501.5C 794.96,497.938 799.46,495.605 804.5,494.5 Z M 692.5,509.5 C 708.524,511.675 723.857,516.175 738.5,523C 765.827,541.501 777.66,567.334 774,600.5C 769.721,620.55 758.888,636.05 741.5,647C 715.887,657.803 689.554,660.137 662.5,654C 625.562,640.308 609.396,613.808 614,574.5C 617.703,556.927 626.203,542.094 639.5,530C 647.279,525.812 654.946,521.479 662.5,517C 672.481,513.91 682.481,511.41 692.5,509.5 Z M 553.5,518.5 C 560.744,518.145 567.078,520.311 572.5,525C 580,531.833 587.5,538.667 595,545.5C 595.507,546.996 595.007,548.163 593.5,549C 580.937,546.958 568.27,545.291 555.5,544C 551.833,543 549.5,540.667 548.5,537C 547.167,536.833 545.833,536.667 544.5,536.5C 534.17,537.944 523.837,539.278 513.5,540.5C 513.393,538.097 514.393,536.264 516.5,535C 528.687,528.901 541.021,523.401 553.5,518.5 Z M 828.5,518.5 C 845.918,523.248 862.252,530.415 877.5,540C 876.57,540.991 875.404,541.491 874,541.5C 863.258,539.054 852.424,537.554 841.5,537C 840.393,541.107 837.726,543.44 833.5,544C 822.453,545.05 811.453,546.05 800.5,547C 798.032,545.412 797.866,543.578 800,541.5C 802.592,538.238 805.759,535.738 809.5,534C 812.416,529.08 816.082,524.747 820.5,521C 823.251,520.057 825.917,519.224 828.5,518.5 Z M 531.5,544.5 C 537.3,544.895 541.633,547.561 544.5,552.5C 544.023,553.478 543.357,554.311 542.5,555C 529.172,556.946 516.172,560.279 503.5,565C 500.653,565.944 498.153,565.444 496,563.5C 495.333,562.833 495.333,562.167 496,561.5C 505.366,555.234 515.533,550.734 526.5,548C 528.346,546.97 530.013,545.804 531.5,544.5 Z M 850.5,544.5 C 863.943,548.374 876.943,553.54 889.5,560C 891.585,561.041 893.252,562.541 894.5,564.5C 884.154,565.066 874.154,563.232 864.5,559C 859.148,558.479 853.815,557.813 848.5,557C 845.967,555.967 844.301,554.133 843.5,551.5C 845.548,548.785 847.882,546.452 850.5,544.5 Z M 829.5,558.5 C 848.567,562.911 866.9,569.411 884.5,578C 885.357,578.689 886.023,579.522 886.5,580.5C 884.979,581.937 883.145,582.604 881,582.5C 869.843,580.338 858.676,578.171 847.5,576C 838.161,575.834 828.827,575.834 819.5,576C 812.497,570.711 812.83,566.044 820.5,562C 823.459,560.396 826.459,559.229 829.5,558.5 Z M 548.5,559.5 C 561.365,558.843 572.532,562.843 582,571.5C 582.507,572.996 582.007,574.163 580.5,575C 577.344,575.603 574.344,575.103 571.5,573.5C 569.496,575.752 566.996,577.086 564,577.5C 559.309,575.912 554.476,574.912 549.5,574.5C 532.71,577.197 516.043,580.531 499.5,584.5C 496.876,584.711 495.21,583.544 494.5,581C 511.992,572.341 529.992,565.174 548.5,559.5 Z M 894.5,581.5 C 896.727,582.401 897.727,584.067 897.5,586.5C 892.516,586.856 891.516,585.189 894.5,581.5 Z M 526.5,587.5 C 535.366,588.269 543.699,590.769 551.5,595C 559.933,595.197 568.266,596.197 576.5,598C 579.414,598.133 581.747,599.3 583.5,601.5C 576.901,606.297 569.568,609.797 561.5,612C 548.893,614.372 536.226,616.372 523.5,618C 512.996,621.224 502.329,623.724 491.5,625.5C 486.427,624.06 486.427,622.227 491.5,620C 505.363,614.934 519.363,610.268 533.5,606C 538.097,602.535 543.097,599.869 548.5,598C 547.57,597.009 546.404,596.509 545,596.5C 534.353,596.939 523.853,598.439 513.5,601C 509.833,601.667 506.167,601.667 502.5,601C 501.273,599.413 501.606,598.079 503.5,597C 511.433,594.089 519.1,590.922 526.5,587.5 Z M 851.5,587.5 C 863.452,587.872 874.118,591.705 883.5,599C 882.91,600.299 881.91,601.132 880.5,601.5C 869.986,598.701 859.319,597.534 848.5,598C 847.483,599.049 847.316,600.216 848,601.5C 849.167,602.667 850.333,603.833 851.5,605C 860.171,608.751 869.171,611.418 878.5,613C 885.868,616.341 893.201,619.674 900.5,623C 899.471,624.698 897.971,625.532 896,625.5C 873.362,620.075 850.529,615.575 827.5,612C 821.718,610.631 816.385,608.297 811.5,605C 808.833,603 808.833,601 811.5,599C 817.377,595.89 823.543,594.724 830,595.5C 831.895,595.385 833.562,594.718 835,593.5C 837.517,595.341 839.517,597.674 841,600.5C 842.246,597.639 843.246,594.639 844,591.5C 846.113,589.267 848.613,587.933 851.5,587.5 Z M 893.5,600.5 C 895.482,600.995 897.482,601.495 899.5,602C 900.93,603.88 900.596,605.38 898.5,606.5C 895.548,605.932 892.881,604.766 890.5,603C 891.571,602.148 892.571,601.315 893.5,600.5 Z M 488.5,602.5 C 491.694,602.176 492.694,603.342 491.5,606C 490.207,606.49 488.873,606.657 487.5,606.5C 487.433,605.041 487.766,603.708 488.5,602.5 Z M 581.5,625.5 C 584.833,625.5 588.167,625.5 591.5,625.5C 591.649,626.552 591.483,627.552 591,628.5C 580.715,639.125 569.548,648.625 557.5,657C 543.243,659.691 528.91,662.025 514.5,664C 499.998,663.734 485.998,666.234 472.5,671.5C 470.38,670.597 470.046,669.263 471.5,667.5C 473.028,666.139 474.695,664.972 476.5,664C 500.893,656.869 525.227,649.536 549.5,642C 554.186,639.155 559.186,637.155 564.5,636C 565.167,634 565.833,632 566.5,630C 568.677,629.655 570.677,630.155 572.5,631.5C 574.272,630.64 575.605,629.307 576.5,627.5C 578.336,626.972 580.003,626.306 581.5,625.5 Z M 532.5,626.5 C 538.601,627.087 544.601,628.253 550.5,630C 551.925,631.714 551.592,633.047 549.5,634C 543.81,634.469 538.143,635.136 532.5,636C 521.308,639.131 509.975,641.631 498.5,643.5C 496.146,643.489 494.146,642.656 492.5,641C 505.566,635.257 518.899,630.424 532.5,626.5 Z M 801.5,626.5 C 804.321,626.539 806.988,627.205 809.5,628.5C 809.998,630.664 811.164,632.331 813,633.5C 817.158,627.792 820.158,628.459 822,635.5C 823.667,636.833 825.333,636.833 827,635.5C 826.59,630.576 828.756,628.41 833.5,629C 835.032,629.7 836.032,630.866 836.5,632.5C 835.252,634.459 833.585,635.959 831.5,637C 833.091,639.133 835.091,640.799 837.5,642C 859.5,648.667 881.5,655.333 903.5,662C 909.353,664.379 909.52,666.545 904,668.5C 899.569,667.08 895.069,665.914 890.5,665C 870.768,662.997 851.102,660.663 831.5,658C 829.004,656.92 826.67,655.586 824.5,654C 817.333,646.833 810.167,639.667 803,632.5C 801.872,630.655 801.372,628.655 801.5,626.5 Z M 850.5,626.5 C 865.377,629.848 879.711,634.681 893.5,641C 882.95,642.556 872.616,641.222 862.5,637C 854.978,636.943 847.811,635.443 841,632.5C 840.333,631.833 840.333,631.167 841,630.5C 844.291,629.243 847.458,627.91 850.5,626.5 Z M 786.5,715.5 C 785.167,715.833 785.167,716.167 786.5,716.5C 791.586,717.247 796.586,718.747 801.5,721C 820.97,722.801 840.304,725.468 859.5,729C 857.473,731.681 854.807,733.347 851.5,734C 836.167,735.667 820.833,737.333 805.5,739C 798.011,739.931 790.678,741.431 783.5,743.5C 782.17,745.347 782.503,746.847 784.5,748C 801.19,749.08 817.857,750.247 834.5,751.5C 834.67,752.822 834.337,753.989 833.5,755C 816.093,758.352 798.76,762.019 781.5,766C 773.701,768.765 773.534,771.932 781,775.5C 781.711,777.367 781.211,778.867 779.5,780C 768.401,782.286 757.401,784.953 746.5,788C 698.137,796.537 650.47,793.537 603.5,779C 601.5,778 599.5,777 597.5,776C 601.727,774.855 606.061,773.855 610.5,773C 612.394,771.899 613.061,770.566 612.5,769C 596.118,764.988 579.785,760.821 563.5,756.5C 560.702,754.434 561.035,752.934 564.5,752C 576.969,750.478 589.303,748.311 601.5,745.5C 601.833,745.167 602.167,744.833 602.5,744.5C 597.777,743.188 593.11,741.688 588.5,740C 571.838,738.239 555.172,736.572 538.5,735C 533.983,734.737 529.649,733.737 525.5,732C 524.643,731.311 523.977,730.478 523.5,729.5C 544.084,725.677 564.751,722.344 585.5,719.5C 585.773,717.549 585.107,716.049 583.5,715C 561.572,712.45 539.572,710.95 517.5,710.5C 509.089,710.844 500.756,711.844 492.5,713.5C 488.57,714.244 487.237,712.91 488.5,709.5C 507.485,704.192 526.818,700.692 546.5,699C 555.109,696.745 563.775,694.745 572.5,693C 575.167,691 575.167,689 572.5,687C 543.214,686.191 514.047,687.691 485,691.5C 479.05,691.633 478.217,689.8 482.5,686C 493.344,683.622 504.01,680.622 514.5,677C 529.604,674.513 544.604,671.513 559.5,668C 564.032,666.478 568.365,664.478 572.5,662C 576.558,661.66 580.558,660.993 584.5,660C 590.111,652.783 597.278,648.95 606,648.5C 606.667,649.833 606.667,651.167 606,652.5C 598.866,666.465 590.033,679.131 579.5,690.5C 580.879,696.719 584.546,698.219 590.5,695C 600.242,685.254 610.575,676.254 621.5,668C 624.695,665.761 626.695,666.594 627.5,670.5C 623.727,684.651 620.06,698.817 616.5,713C 617.537,717.734 619.871,718.567 623.5,715.5C 632.861,702.639 642.028,689.639 651,676.5C 652.765,694.364 653.932,712.364 654.5,730.5C 658.597,730.531 661.097,728.531 662,724.5C 667.726,710.656 673.059,696.656 678,682.5C 680.106,684.377 681.439,686.71 682,689.5C 684.794,701.805 687.461,714.139 690,726.5C 692.718,735.501 695.718,735.501 699,726.5C 700.227,715.031 702.227,703.697 705,692.5C 705.973,690.36 707.473,688.693 709.5,687.5C 712.061,689.607 713.894,692.274 715,695.5C 718.553,706.159 722.886,716.492 728,726.5C 730.844,730.738 732.844,730.404 734,725.5C 734.668,710.481 735.501,695.481 736.5,680.5C 738.144,680.286 739.644,680.62 741,681.5C 747.749,691.329 754.249,701.329 760.5,711.5C 756.752,717.508 758.419,720.508 765.5,720.5C 770.767,720.445 772.601,717.778 771,712.5C 767.021,696.92 763.521,681.253 760.5,665.5C 761.873,665.343 763.207,665.51 764.5,666C 776.205,676.707 788.205,687.041 800.5,697C 802.167,697.667 803.833,697.667 805.5,697C 807.933,694.867 810.767,693.7 814,693.5C 834.121,697.572 854.287,701.405 874.5,705C 881.518,706.596 881.852,708.262 875.5,710C 854.496,710.917 833.496,711.917 812.5,713C 807.884,713.779 803.384,714.946 799,716.5C 794.81,714.532 790.644,714.199 786.5,715.5 Z M 783.5,647.5 C 788.265,649.382 792.932,651.548 797.5,654C 799.527,656.094 801.194,658.427 802.5,661C 811.757,661.184 820.423,663.517 828.5,668C 851.895,673.015 875.228,678.349 898.5,684C 901.943,684.404 903.276,686.071 902.5,689C 900.167,689.167 897.833,689.333 895.5,689.5C 864.834,687.475 834.168,685.642 803.5,684C 795.061,673.64 787.728,662.474 781.5,650.5C 782.193,649.482 782.859,648.482 783.5,647.5 Z M 911.5,665.5 C 914.111,665.646 916.111,666.812 917.5,669C 915.728,670.487 913.728,670.82 911.5,670C 910.272,668.51 910.272,667.01 911.5,665.5 Z M 887.5,707.5 C 891.56,707.485 895.56,707.985 899.5,709C 902.388,711.296 901.888,712.462 898,712.5C 893.866,712.177 890.033,711.01 886.5,709C 887.056,708.617 887.389,708.117 887.5,707.5 Z M 625.5,799.5 C 659.811,806.668 694.478,808.502 729.5,805C 739.506,803.665 749.506,802.665 759.5,802C 755.613,805.111 751.28,807.444 746.5,809C 710.448,817.956 674.448,817.623 638.5,808C 632.847,807.006 627.847,804.673 623.5,801C 624.416,800.722 625.082,800.222 625.5,799.5 Z M 686.5,870.5 C 697.783,868.982 707.283,872.315 715,880.5C 715.875,881.873 716.375,883.373 716.5,885C 715.875,886.841 715.708,888.674 716,890.5C 718.906,893.037 722.073,895.204 725.5,897C 726.167,898 726.833,899 727.5,900C 724.353,901.362 721.02,902.195 717.5,902.5C 717.33,903.822 717.663,904.989 718.5,906C 721.833,908 725.167,910 728.5,912C 731.306,916.258 729.973,918.591 724.5,919C 721.871,921.789 722.538,923.789 726.5,925C 730.473,926.028 734.473,926.861 738.5,927.5C 738.739,929.467 738.406,931.301 737.5,933C 732.983,933.601 728.65,934.768 724.5,936.5C 729.425,938.756 734.425,940.922 739.5,943C 740.337,944.011 740.67,945.178 740.5,946.5C 736.812,947.172 733.145,948.005 729.5,949C 724.786,950.056 724.453,951.723 728.5,954C 733.139,955.128 737.805,956.128 742.5,957C 744.116,957.615 745.449,958.615 746.5,960C 740.956,962.289 735.623,964.956 730.5,968C 735.335,969.982 740.335,971.648 745.5,973C 749.5,975 749.5,977 745.5,979C 738.86,980.163 732.193,981.163 725.5,982C 724.692,982.308 724.025,982.808 723.5,983.5C 727.628,985.398 731.628,987.565 735.5,990C 736.833,991.667 736.833,993.333 735.5,995C 730.387,996.813 725.387,998.813 720.5,1001C 725.837,1003.47 731.503,1004.8 737.5,1005C 741.397,1005.81 742.063,1007.47 739.5,1010C 731.641,1011.78 724.308,1014.61 717.5,1018.5C 717.709,1019.09 718.043,1019.59 718.5,1020C 722.833,1020.33 727.167,1020.67 731.5,1021C 732.833,1021.67 733.833,1022.67 734.5,1024C 728.703,1027.59 722.703,1030.59 716.5,1033C 719.881,1035.92 723.881,1037.42 728.5,1037.5C 728.703,1039.39 728.037,1040.89 726.5,1042C 719.857,1044.66 713.523,1047.82 707.5,1051.5C 709.918,1052.41 711.918,1053.91 713.5,1056C 707.813,1059.76 701.647,1062.59 695,1064.5C 687.351,1062.84 680.184,1060.01 673.5,1056C 675.5,1054 677.5,1052 679.5,1050C 675.531,1048.02 671.531,1046.02 667.5,1044C 664.782,1042.58 664.115,1040.58 665.5,1038C 667.746,1036.96 669.913,1035.79 672,1034.5C 672.667,1033.83 672.667,1033.17 672,1032.5C 667.033,1029.29 661.867,1026.46 656.5,1024C 660.331,1021.09 664.664,1019.25 669.5,1018.5C 662.786,1014.43 655.619,1011.43 648,1009.5C 647.383,1008.55 647.549,1007.72 648.5,1007C 652.726,1005.06 656.726,1002.89 660.5,1000.5C 660.291,999.914 659.957,999.414 659.5,999C 640.84,994.232 641.173,989.899 660.5,986C 662.002,985.417 663.335,984.584 664.5,983.5C 657.118,981.93 649.785,979.93 642.5,977.5C 640.997,976.41 640.664,975.243 641.5,974C 647.718,971.524 654.051,969.69 660.5,968.5C 659.631,966.132 657.965,964.632 655.5,964C 652.131,963.337 648.797,963.504 645.5,964.5C 642.483,963.62 641.816,961.786 643.5,959C 649.619,957.074 655.453,954.574 661,951.5C 661.456,950.256 660.956,949.423 659.5,949C 656.45,948.321 653.45,947.488 650.5,946.5C 649.417,945.635 649.251,944.635 650,943.5C 655.529,940.994 661.029,938.494 666.5,936C 662.954,934.826 659.287,934.16 655.5,934C 653.697,933.363 652.364,932.197 651.5,930.5C 656.029,927.09 661.029,924.423 666.5,922.5C 667.386,921.675 667.719,920.675 667.5,919.5C 664.513,919.002 661.513,918.502 658.5,918C 656.963,916.89 656.297,915.39 656.5,913.5C 661.643,912.008 666.143,909.342 670,905.5C 670.749,904.365 670.583,903.365 669.5,902.5C 667.415,901.459 665.748,899.959 664.5,898C 668.5,895.333 672.5,892.667 676.5,890C 673.764,888.638 671.431,886.804 669.5,884.5C 674.277,878.63 679.944,873.964 686.5,870.5 Z M 679.5,1069.5 C 688.591,1069.12 697.591,1069.79 706.5,1071.5C 703.945,1074.37 700.778,1076.37 697,1077.5C 690.431,1076.32 684.264,1074.15 678.5,1071C 679.056,1070.62 679.389,1070.12 679.5,1069.5 Z M 773.5,1146.5 C 776.978,1146.18 780.312,1146.68 783.5,1148C 784.022,1148.56 784.355,1149.23 784.5,1150C 777.07,1159.23 767.404,1165.23 755.5,1168C 756.944,1169.06 758.611,1169.56 760.5,1169.5C 776.426,1167.04 790.426,1160.54 802.5,1150C 813.232,1149.86 814.232,1153.2 805.5,1160C 798.833,1163.67 792.167,1167.33 785.5,1171C 779.477,1172.56 773.81,1174.89 768.5,1178C 779.22,1177.43 789.886,1176.43 800.5,1175C 801.5,1177.09 800.833,1178.76 798.5,1180C 792.89,1181.56 787.556,1183.73 782.5,1186.5C 783.667,1186.83 784.833,1187.17 786,1187.5C 792.799,1186.39 799.632,1185.55 806.5,1185C 816.156,1182 825.822,1179 835.5,1176C 837.403,1175.23 839.07,1175.56 840.5,1177C 838.343,1178.91 836.009,1180.58 833.5,1182C 822.792,1186.17 812.125,1190.34 801.5,1194.5C 802.833,1194.83 804.167,1195.17 805.5,1195.5C 813.663,1192.96 821.996,1192.13 830.5,1193C 832.615,1193.42 833.448,1194.59 833,1196.5C 829.863,1197.82 826.697,1198.99 823.5,1200C 824.893,1201.36 826.559,1202.2 828.5,1202.5C 839.174,1200.59 849.841,1198.76 860.5,1197C 876.532,1191.73 891.365,1184.23 905,1174.5C 907.055,1175.67 907.722,1177.34 907,1179.5C 904.575,1183.13 901.408,1185.97 897.5,1188C 878.162,1198.17 857.828,1205.67 836.5,1210.5C 836.167,1210.83 835.833,1211.17 835.5,1211.5C 836.667,1211.83 837.833,1212.17 839,1212.5C 858.408,1209.91 877.575,1206.41 896.5,1202C 899.129,1204.79 898.462,1206.79 894.5,1208C 891.592,1208.69 888.925,1209.86 886.5,1211.5C 885.707,1211.07 884.873,1210.74 884,1210.5C 876.896,1214.15 869.396,1216.65 861.5,1218C 871.181,1219.34 880.515,1218.34 889.5,1215C 906.557,1213.48 922.557,1208.48 937.5,1200C 941.91,1196.38 946.41,1192.88 951,1189.5C 955.528,1193.69 955.028,1197.52 949.5,1201C 942.32,1206.09 934.653,1210.43 926.5,1214C 913.755,1217.69 901.422,1222.36 889.5,1228C 894.473,1227.91 899.473,1227.58 904.5,1227C 916.694,1223.76 929.027,1220.76 941.5,1218C 951.378,1215.06 960.044,1210.06 967.5,1203C 972.552,1200.38 974.386,1201.88 973,1207.5C 969.419,1211.75 965.252,1215.25 960.5,1218C 950.161,1221.84 940.161,1226.18 930.5,1231C 919.969,1233.55 909.636,1236.55 899.5,1240C 919.106,1238.4 938.44,1235.07 957.5,1230C 966.898,1225.88 976.064,1221.38 985,1216.5C 988.432,1219.86 987.932,1222.69 983.5,1225C 976.942,1229.45 969.942,1233.11 962.5,1236C 946.548,1240.54 930.548,1244.87 914.5,1249C 822.071,1263.74 729.071,1268.74 635.5,1264C 578.421,1262.74 521.755,1257.41 465.5,1248C 449.692,1242.71 433.692,1238.05 417.5,1234C 410.748,1231.13 405.415,1226.63 401.5,1220.5C 402.212,1218.95 403.378,1217.95 405,1217.5C 432.146,1231.32 460.979,1238.82 491.5,1240C 467.794,1234.48 445.128,1226.15 423.5,1215C 420.484,1212.26 417.651,1209.43 415,1206.5C 414.333,1205.17 414.333,1203.83 415,1202.5C 417.064,1201.41 419.231,1201.24 421.5,1202C 428.738,1208.79 437.071,1213.79 446.5,1217C 464.565,1222.48 482.898,1226.15 501.5,1228C 481.871,1221.9 462.871,1214.23 444.5,1205C 439.706,1202.21 436.372,1198.21 434.5,1193C 435.798,1189.79 438.132,1188.79 441.5,1190C 446.838,1197.18 453.838,1202.18 462.5,1205C 470.381,1207.07 478.048,1209.74 485.5,1213C 504.352,1216.9 523.518,1220.06 543,1222.5C 543.833,1222.33 544.667,1222.17 545.5,1222C 544.5,1221 543.5,1220 542.5,1219C 530.985,1218.03 519.651,1216.03 508.5,1213C 498.833,1209.33 489.167,1205.67 479.5,1202C 474.167,1198.67 468.833,1195.33 463.5,1192C 461.291,1190.13 459.458,1187.96 458,1185.5C 456.942,1181.71 458.442,1179.71 462.5,1179.5C 470.928,1191.04 482.261,1198.54 496.5,1202C 508.765,1205.05 521.099,1207.72 533.5,1210C 535.076,1211.58 536.909,1212.74 539,1213.5C 542.301,1212.56 545.467,1211.39 548.5,1210C 529.049,1204.18 510.049,1197.18 491.5,1189C 486.303,1186.64 482.637,1182.8 480.5,1177.5C 481.186,1174 483.186,1172.84 486.5,1174C 492.813,1181.83 500.813,1187.16 510.5,1190C 520.069,1192.41 529.402,1195.41 538.5,1199C 549.454,1200.64 560.454,1201.3 571.5,1201C 567.465,1200.13 563.465,1199.13 559.5,1198C 557.473,1196.6 557.14,1194.94 558.5,1193C 569.847,1193.87 581.181,1194.87 592.5,1196C 583.38,1190.94 573.713,1187.28 563.5,1185C 557.593,1181.59 551.426,1178.75 545,1176.5C 544.732,1174.41 545.732,1173.08 548,1172.5C 567.871,1182.76 589.038,1187.59 611.5,1187C 608.216,1185.88 604.883,1184.88 601.5,1184C 599.549,1182.27 598.549,1180.1 598.5,1177.5C 606.15,1178.14 613.817,1178.48 621.5,1178.5C 621.719,1177.32 621.386,1176.32 620.5,1175.5C 606.946,1172.72 594.613,1167.22 583.5,1159C 578.047,1154.92 578.214,1151.42 584,1148.5C 599.653,1162.05 617.82,1169.55 638.5,1171C 628.214,1166.19 618.214,1160.86 608.5,1155C 602.779,1149.39 604.112,1146.89 612.5,1147.5C 617.761,1147.57 622.761,1148.73 627.5,1151C 641.045,1157.85 654.712,1164.52 668.5,1171C 676.333,1171.17 684.167,1171.33 692,1171.5C 701.224,1171.61 710.391,1171.11 719.5,1170C 734.046,1162.81 748.713,1155.81 763.5,1149C 766.952,1148.12 770.286,1147.28 773.5,1146.5 Z M 724.5,1152.5 C 725.376,1152.37 726.043,1152.7 726.5,1153.5C 725.687,1154.81 724.687,1155.98 723.5,1157C 717.102,1160.87 710.435,1164.2 703.5,1167C 693.265,1168.46 683.599,1166.79 674.5,1162C 668.596,1155.24 669.93,1153.24 678.5,1156C 688.833,1156.67 699.167,1156.67 709.5,1156C 714.869,1155.88 719.869,1154.72 724.5,1152.5 Z M 831.5,1154.5 C 834.955,1155.13 836.122,1157.13 835,1160.5C 830.119,1165.69 824.286,1168.85 817.5,1170C 817.167,1169.67 816.833,1169.33 816.5,1169C 819.256,1165.57 822.59,1162.91 826.5,1161C 828.054,1158.71 829.721,1156.55 831.5,1154.5 Z M 553.5,1155.5 C 554.873,1155.34 556.207,1155.51 557.5,1156C 562.236,1160.41 567.236,1164.41 572.5,1168C 571.601,1169.24 570.434,1170.07 569,1170.5C 562.251,1168.06 556.751,1164.06 552.5,1158.5C 553.127,1157.58 553.461,1156.58 553.5,1155.5 Z M 528.5,1160.5 C 533.5,1161.5 536.5,1164.5 537.5,1169.5C 530.282,1170.28 527.282,1167.28 528.5,1160.5 Z M 857.5,1161.5 C 861.477,1162.29 862.31,1164.29 860,1167.5C 856.796,1170.85 852.963,1172.69 848.5,1173C 848.043,1172.59 847.709,1172.09 847.5,1171.5C 849.882,1167.12 853.216,1163.78 857.5,1161.5 Z M 505.5,1168.5 C 510.618,1170.27 514.951,1173.27 518.5,1177.5C 521.382,1178.96 524.382,1180.13 527.5,1181C 528.337,1182.01 528.67,1183.18 528.5,1184.5C 526.473,1184.66 524.473,1184.5 522.5,1184C 517.686,1180.84 512.852,1177.67 508,1174.5C 506.441,1172.78 505.608,1170.78 505.5,1168.5 Z M 878.5,1169.5 C 881.68,1169.18 882.847,1170.51 882,1173.5C 873.576,1179.24 872.41,1177.91 878.5,1169.5 Z M 864.5,1179.5 C 865.5,1179.5 866.5,1179.5 867.5,1179.5C 867.756,1181.91 866.756,1183.58 864.5,1184.5C 862.07,1182.96 862.07,1181.3 864.5,1179.5 Z M 925.5,1181.5 C 927.937,1181.89 929.937,1183.05 931.5,1185C 924.248,1194.55 914.748,1200.71 903,1203.5C 902.228,1203.36 901.561,1203.02 901,1202.5C 900.837,1200.61 901.671,1199.11 903.5,1198C 912.742,1194.91 920.075,1189.41 925.5,1181.5 Z"/></g>
<g><path style="opacity:0.782" fill="#fefffe" d="M 764.5,350.5 C 774.785,350.241 785.118,351.408 795.5,354C 800.346,354.936 801.513,357.436 799,361.5C 791.389,358.638 783.556,356.471 775.5,355C 771.603,353.981 767.936,352.481 764.5,350.5 Z"/></g>
<g><path style="opacity:0.764" fill="#fefffe" d="M 796.5,384.5 C 801.877,387.014 807.544,388.847 813.5,390C 813.957,390.414 814.291,390.914 814.5,391.5C 809.129,392.775 803.795,392.608 798.5,391C 796.771,389.211 796.104,387.044 796.5,384.5 Z"/></g>
<g><path style="opacity:0.667" fill="#fefffe" d="M 564.5,493.5 C 567.833,493.5 571.167,493.5 574.5,493.5C 574.67,494.822 574.337,495.989 573.5,497C 571.5,497.167 569.5,497.333 567.5,497.5C 564.963,497.603 562.629,497.103 560.5,496C 562.066,495.392 563.4,494.558 564.5,493.5 Z"/></g>
<g><path style="opacity:0.916" fill="#fefffe" d="M 687.5,565.5 C 702.603,563.107 709.436,569.44 708,584.5C 706.427,589.071 703.26,591.904 698.5,593C 684.85,595.016 678.684,589.183 680,575.5C 681.317,571.163 683.817,567.83 687.5,565.5 Z"/></g>
<g><path style="opacity:0.941" fill="#fefffe" d="M 283.5,664.5 C 290.222,664.29 296.888,664.79 303.5,666C 309.091,669.022 312.924,673.522 315,679.5C 315.564,684.385 316.397,689.218 317.5,694C 315.541,708.004 312.708,721.837 309,735.5C 307.218,748.778 306.052,762.111 305.5,775.5C 305.68,785.324 306.847,794.991 309,804.5C 314.195,807.097 318.862,810.43 323,814.5C 339.785,842.952 362.285,865.785 390.5,883C 399.167,883.333 407.833,883.667 416.5,884C 430.056,887.298 443.723,889.965 457.5,892C 467.701,895.101 477.035,899.767 485.5,906C 488.398,909.905 490.898,914.071 493,918.5C 497.691,939.873 505.691,959.873 517,978.5C 526.068,989.574 536.901,998.408 549.5,1005C 554.212,1008.54 557.546,1013.04 559.5,1018.5C 559.144,1021.11 557.811,1022.95 555.5,1024C 546.167,1024.33 536.833,1024.67 527.5,1025C 521.729,1035.1 515.562,1044.93 509,1054.5C 503.473,1060.03 497.973,1065.53 492.5,1071C 486.658,1075.42 480.324,1079.09 473.5,1082C 465.887,1084.28 458.387,1086.78 451,1089.5C 448.526,1103.62 442.026,1115.45 431.5,1125C 424.319,1130.28 416.319,1132.28 407.5,1131C 406.5,1130.67 405.5,1130.33 404.5,1130C 402.5,1127.33 400.5,1124.67 398.5,1122C 397.5,1121.83 396.5,1121.67 395.5,1121.5C 388.066,1124.28 380.399,1126.28 372.5,1127.5C 364.961,1127.03 357.961,1124.87 351.5,1121C 349.951,1119.79 348.785,1118.29 348,1116.5C 347.501,1111.18 347.334,1105.84 347.5,1100.5C 331.284,1101.28 315.617,1098.78 300.5,1093C 296.281,1090.45 293.114,1086.95 291,1082.5C 290.333,1080.17 290.333,1077.83 291,1075.5C 292.92,1072.16 294.42,1068.66 295.5,1065C 295.167,1064.17 294.833,1063.33 294.5,1062.5C 284.326,1062.22 274.326,1060.72 264.5,1058C 249.62,1053.81 236.453,1046.65 225,1036.5C 218.842,1028.53 216.842,1019.53 219,1009.5C 221.869,1003.64 226.369,999.469 232.5,997C 223.309,989.642 213.976,982.475 204.5,975.5C 195.705,967.578 189.705,957.912 186.5,946.5C 187.376,936.882 192.376,930.716 201.5,928C 202.5,927 203.5,926 204.5,925C 198.699,918.198 192.532,911.698 186,905.5C 172.449,889.732 163.115,871.732 158,851.5C 154.247,834.971 160.247,823.971 176,818.5C 180.586,818.805 184.586,820.472 188,823.5C 189.167,822.333 190.333,821.167 191.5,820C 187.21,810.584 183.043,801.084 179,791.5C 175.219,776.037 173.219,760.371 173,744.5C 174.328,736.85 176.661,729.516 180,722.5C 187.312,714.585 196.145,712.418 206.5,716C 209,717.833 211.5,719.667 214,721.5C 218.624,728.62 223.791,735.286 229.5,741.5C 232.391,728.317 236.224,715.317 241,702.5C 250.094,683.893 264.26,671.227 283.5,664.5 Z M 295.5,674.5 C 304.038,675.538 308.704,680.372 309.5,689C 306.424,703.315 301.257,716.815 294,729.5C 293.242,733.329 294.242,736.662 297,739.5C 297.667,741.5 297.667,743.5 297,745.5C 293.077,753.014 289.41,760.681 286,768.5C 283.698,765.82 282.532,762.653 282.5,759C 283.181,751.15 284.014,743.317 285,735.5C 289.336,720.992 294.169,706.659 299.5,692.5C 298.635,691.417 297.635,691.251 296.5,692C 284.177,709.759 280.01,707.592 284,685.5C 286.437,680.226 290.271,676.56 295.5,674.5 Z M 262.5,704.5 C 263.458,704.953 264.292,705.619 265,706.5C 265.559,710.186 266.226,713.853 267,717.5C 267.536,719.869 268.703,721.869 270.5,723.5C 271.086,723.291 271.586,722.957 272,722.5C 272.333,718.833 272.667,715.167 273,711.5C 273.615,709.884 274.615,708.551 276,707.5C 278.588,709.425 280.422,711.925 281.5,715C 277.719,726.675 274.552,738.508 272,750.5C 271.585,752.291 270.585,753.624 269,754.5C 266.597,752.695 264.93,750.362 264,747.5C 261.902,739.305 259.235,731.305 256,723.5C 254.519,715.772 256.686,709.439 262.5,704.5 Z M 197.5,721.5 C 204.062,722.047 208.729,725.38 211.5,731.5C 210.081,733.336 208.914,735.336 208,737.5C 206.743,743.769 206.243,750.102 206.5,756.5C 204.856,756.714 203.356,756.38 202,755.5C 197.554,748.942 193.887,741.942 191,734.5C 189.476,728.215 191.642,723.882 197.5,721.5 Z M 212.5,738.5 C 214.74,739.568 216.574,741.234 218,743.5C 226.023,763.222 234.356,782.888 243,802.5C 253,818.5 263,834.5 273,850.5C 274.187,852.044 274.52,853.711 274,855.5C 257.162,841.669 243.662,825.169 233.5,806C 224.405,785.039 216.738,763.705 210.5,742C 210.978,740.697 211.645,739.531 212.5,738.5 Z M 203.5,762.5 C 206.325,762.081 208.491,763.081 210,765.5C 211.181,769.363 213.014,772.863 215.5,776C 213.675,777.466 213.175,779.299 214,781.5C 216.062,783.901 217.729,786.567 219,789.5C 222.535,801.067 227.035,812.234 232.5,823C 231.584,823.374 230.75,823.874 230,824.5C 221.428,820.943 216.761,814.61 216,805.5C 208.041,797.565 201.041,788.899 195,779.5C 194.077,776.722 194.911,774.722 197.5,773.5C 201.238,775.076 204.571,777.243 207.5,780C 208.635,780.749 209.635,780.583 210.5,779.5C 206.117,775.895 203.117,771.395 201.5,766C 201.978,764.697 202.645,763.531 203.5,762.5 Z M 267.5,763.5 C 268.995,763.415 269.995,764.081 270.5,765.5C 269.68,767.111 268.346,767.778 266.5,767.5C 266.433,766.041 266.766,764.708 267.5,763.5 Z M 268.5,776.5 C 270.113,776.944 271.28,777.944 272,779.5C 273.716,788.982 276.049,798.315 279,807.5C 279.969,810.328 279.303,812.662 277,814.5C 267.833,806.838 260.333,797.838 254.5,787.5C 254.5,785.5 255.5,784.5 257.5,784.5C 259.61,785.054 261.61,785.888 263.5,787C 265.579,787.808 267.579,787.641 269.5,786.5C 266.474,783.212 266.141,779.879 268.5,776.5 Z M 291.5,788.5 C 293.39,788.297 294.89,788.963 296,790.5C 296.39,794.514 296.89,798.514 297.5,802.5C 296.123,806.9 293.623,807.567 290,804.5C 288.536,801.274 287.369,797.941 286.5,794.5C 287.465,791.872 289.132,789.872 291.5,788.5 Z M 304.5,814.5 C 306.857,814.337 309.19,814.503 311.5,815C 316.872,818.61 316.706,822.11 311,825.5C 310.215,835.478 313.215,844.145 320,851.5C 320.611,855.088 319.111,856.254 315.5,855C 312.438,853.939 309.938,852.106 308,849.5C 307.574,841.648 304.241,835.315 298,830.5C 296.062,823.389 298.229,818.056 304.5,814.5 Z M 280.5,815.5 C 285.109,817.725 286.609,821.391 285,826.5C 284.692,827.308 284.192,827.975 283.5,828.5C 279.692,826.526 276.692,823.692 274.5,820C 276.141,817.837 278.141,816.337 280.5,815.5 Z M 229.5,827.5 C 232.652,826.959 235.152,827.959 237,830.5C 242.53,838.688 248.03,846.854 253.5,855C 252.541,856.464 251.208,857.297 249.5,857.5C 240.585,854.959 232.419,850.959 225,845.5C 223.872,843.655 223.372,841.655 223.5,839.5C 226.973,839.576 230.306,840.242 233.5,841.5C 233.509,839.692 233.009,838.025 232,836.5C 228.039,834.017 227.206,831.017 229.5,827.5 Z M 272.5,827.5 C 277.186,828.673 281.686,830.34 286,832.5C 286.912,839.143 288.412,845.643 290.5,852C 290.167,852.833 289.833,853.667 289.5,854.5C 281.396,848.141 275.063,840.307 270.5,831C 270.978,829.697 271.645,828.531 272.5,827.5 Z M 316.5,827.5 C 318.903,827.393 320.736,828.393 322,830.5C 325.768,839.59 331.101,847.59 338,854.5C 348.573,865.078 359.74,874.911 371.5,884C 370.5,885 369.5,886 368.5,887C 366.402,886.968 364.402,886.301 362.5,885C 344.151,871.988 329.318,855.821 318,836.5C 316.468,833.49 315.968,830.49 316.5,827.5 Z M 174.5,828.5 C 180.646,828.048 185.979,829.882 190.5,834C 203.167,846 215.833,858 228.5,870C 238.461,878.647 249.128,886.314 260.5,893C 263.206,895.371 265.539,898.037 267.5,901C 267,901.5 266.5,902 266,902.5C 248.343,896.087 232.843,886.254 219.5,873C 208.06,862.565 197.726,851.232 188.5,839C 187.552,838.517 186.552,838.351 185.5,838.5C 185.968,842.131 185.301,845.465 183.5,848.5C 192.85,854.35 200.35,862.017 206,871.5C 212.333,876.5 218,882.167 223,888.5C 223.494,890.134 223.66,891.801 223.5,893.5C 219.374,893.428 215.374,892.761 211.5,891.5C 211.62,889.801 211.954,888.135 212.5,886.5C 210.738,884.395 208.572,882.728 206,881.5C 205.506,879.866 205.34,878.199 205.5,876.5C 200.537,875.027 195.537,873.527 190.5,872C 187.098,870.6 184.264,868.433 182,865.5C 182.215,862.189 182.215,858.856 182,855.5C 181.167,854.667 180.333,853.833 179.5,853C 180.804,852.196 181.471,851.029 181.5,849.5C 179.658,846.712 177.158,844.712 174,843.5C 171.97,840.774 170.47,837.774 169.5,834.5C 170.465,831.872 172.132,829.872 174.5,828.5 Z M 320.5,858.5 C 322.716,859.203 324.549,860.536 326,862.5C 337.672,878.177 351.839,891.01 368.5,901C 375.519,902.893 382.186,905.56 388.5,909C 393.214,914.926 398.047,920.759 403,926.5C 403.45,929.064 402.284,930.564 399.5,931C 388.301,932.111 377.301,931.278 366.5,928.5C 366.178,926.278 366.845,924.444 368.5,923C 372.833,921.333 377.167,919.667 381.5,918C 382.38,916.644 382.714,915.144 382.5,913.5C 369.501,915.787 356.501,915.954 343.5,914C 341.457,912.292 339.79,910.292 338.5,908C 339.167,907.333 339.833,906.667 340.5,906C 345.833,905.667 351.167,905.333 356.5,905C 358.256,904.798 359.922,904.298 361.5,903.5C 361.333,903.167 361.167,902.833 361,902.5C 354.412,902.301 349.245,899.467 345.5,894C 334.861,890.265 325.028,885.098 316,878.5C 314.589,876.35 313.755,874.016 313.5,871.5C 316.066,871.344 318.566,871.678 321,872.5C 322.059,872.37 322.892,871.87 323.5,871C 322.083,867.751 320.083,864.917 317.5,862.5C 318.172,860.84 319.172,859.507 320.5,858.5 Z M 268.5,872.5 C 277.541,878.035 285.541,884.868 292.5,893C 290.728,894.487 288.728,894.82 286.5,894C 280.046,891.273 273.712,888.273 267.5,885C 265.316,882.984 263.316,880.817 261.5,878.5C 263.288,875.7 265.622,873.7 268.5,872.5 Z M 295.5,873.5 C 301.3,874.301 304.3,877.634 304.5,883.5C 299.35,883.429 295.683,881.095 293.5,876.5C 294.193,875.482 294.859,874.482 295.5,873.5 Z M 376.5,887.5 C 379.833,887.5 381.5,889.167 381.5,892.5C 376.973,893.138 375.306,891.471 376.5,887.5 Z M 400.5,892.5 C 405.083,892.895 409.416,894.062 413.5,896C 411.939,896.941 410.605,898.108 409.5,899.5C 412.687,902.853 415.687,906.353 418.5,910C 418.167,910.333 417.833,910.667 417.5,911C 410.506,911.805 404.339,909.971 399,905.5C 396.879,900.885 397.379,896.552 400.5,892.5 Z M 227.5,894.5 C 235.845,899.006 243.512,904.506 250.5,911C 261.378,916.606 272.378,921.939 283.5,927C 287.093,929.689 288.926,933.189 289,937.5C 282.789,940.827 279.623,938.827 279.5,931.5C 272.752,931.797 266.085,931.797 259.5,931.5C 260.363,929.105 260.363,926.771 259.5,924.5C 253.844,922.347 249.177,918.847 245.5,914C 233.669,912.5 222.502,909 212,903.5C 210.759,902.123 210.592,900.79 211.5,899.5C 215.464,898.561 219.464,897.728 223.5,897C 225.066,896.392 226.4,895.558 227.5,894.5 Z M 269.5,901.5 C 273.691,902.262 277.358,904.096 280.5,907C 280,907.5 279.5,908 279,908.5C 276.553,907.594 274.053,906.761 271.5,906C 268.715,905.274 268.048,903.774 269.5,901.5 Z M 440.5,901.5 C 443.238,901.851 445.904,902.518 448.5,903.5C 449.745,904.955 449.578,906.289 448,907.5C 444.24,906.848 440.74,905.515 437.5,903.5C 438.602,902.824 439.602,902.158 440.5,901.5 Z M 299.5,903.5 C 312.616,909.224 324.616,916.724 335.5,926C 346.756,931.418 358.256,936.252 370,940.5C 371.257,940.85 371.591,941.517 371,942.5C 362.517,944.074 354.35,942.907 346.5,939C 341.167,936.333 335.833,933.667 330.5,931C 322.167,925.167 313.833,919.333 305.5,913.5C 305.167,913.833 304.833,914.167 304.5,914.5C 307.146,918.256 308.979,922.256 310,926.5C 309.196,927.804 308.029,928.471 306.5,928.5C 301.101,927.899 297.268,925.232 295,920.5C 294.333,915.833 294.333,911.167 295,906.5C 296.409,905.219 297.909,904.219 299.5,903.5 Z M 422.5,912.5 C 426.138,911.737 427.638,913.07 427,916.5C 424.427,917.983 422.26,917.483 420.5,915C 421.381,914.292 422.047,913.458 422.5,912.5 Z M 451.5,918.5 C 464.541,919.565 476.041,924.231 486,932.5C 486.49,933.793 486.657,935.127 486.5,936.5C 472.526,934.568 458.526,932.902 444.5,931.5C 443.693,929.039 444.193,926.706 446,924.5C 448.04,922.63 449.873,920.63 451.5,918.5 Z M 315.5,931.5 C 319.205,931.871 321.205,933.871 321.5,937.5C 318.092,938.172 315.425,937.172 313.5,934.5C 314.193,933.482 314.859,932.482 315.5,931.5 Z M 203.5,936.5 C 210.945,936.622 217.945,938.456 224.5,942C 223.347,943.883 221.681,944.716 219.5,944.5C 220.355,947.486 220.855,950.486 221,953.5C 218.687,955.037 216.187,955.537 213.5,955C 209.649,952.831 205.815,950.664 202,948.5C 201.163,946.162 200.33,943.828 199.5,941.5C 200.127,939.213 201.46,937.546 203.5,936.5 Z M 326.5,940.5 C 334.986,942.076 342.319,945.743 348.5,951.5C 343.407,956.474 338.074,956.641 332.5,952C 325.421,951.661 318.421,950.827 311.5,949.5C 310.231,947.305 310.231,945.139 311.5,943C 314.179,942.566 316.846,942.732 319.5,943.5C 322.071,942.898 324.404,941.898 326.5,940.5 Z M 417.5,940.5 C 427.021,940.712 436.354,942.212 445.5,945C 448.346,945.879 449.013,947.546 447.5,950C 440.614,950.935 433.948,950.101 427.5,947.5C 424.854,948.986 422.354,950.652 420,952.5C 416.937,951.073 414.771,948.739 413.5,945.5C 414.16,943.185 415.493,941.519 417.5,940.5 Z M 231.5,943.5 C 233.806,943.993 236.139,944.326 238.5,944.5C 238.5,945.5 238.5,946.5 238.5,947.5C 236.08,947.708 233.747,947.374 231.5,946.5C 230.438,945.575 230.438,944.575 231.5,943.5 Z M 249.5,946.5 C 254.496,947.08 259.163,948.58 263.5,951C 275.866,951.688 288.2,952.688 300.5,954C 301.833,954.667 301.833,955.333 300.5,956C 293.117,956.2 285.784,956.7 278.5,957.5C 271.53,956.613 264.53,955.779 257.5,955C 254.141,953.617 250.807,952.284 247.5,951C 246.663,949.989 246.33,948.822 246.5,947.5C 247.791,947.737 248.791,947.404 249.5,946.5 Z M 228.5,952.5 C 231.05,952.884 232.383,954.384 232.5,957C 230.341,961.321 228.341,960.988 226.5,956C 227.305,954.887 227.972,953.721 228.5,952.5 Z M 353.5,952.5 C 363.673,954.279 373.673,956.779 383.5,960C 382.743,961.512 381.743,962.846 380.5,964C 377.78,964.797 375.28,965.963 373,967.5C 369.676,965.756 366.176,964.423 362.5,963.5C 352.898,965.281 343.231,966.114 333.5,966C 332.065,963.733 332.398,961.733 334.5,960C 339.167,958.667 343.833,957.333 348.5,956C 350.346,954.97 352.013,953.804 353.5,952.5 Z M 427.5,955.5 C 429.308,955.491 430.975,955.991 432.5,957C 433.451,957.718 433.617,958.551 433,959.5C 429.722,962.514 427.222,962.014 425.5,958C 426.056,956.989 426.722,956.156 427.5,955.5 Z M 387.5,958.5 C 394.906,958.152 402.239,958.652 409.5,960C 413.839,963.621 413.505,966.621 408.5,969C 400.462,969.291 392.796,971.124 385.5,974.5C 383.503,974.014 382.169,972.847 381.5,971C 384.439,967.289 386.439,963.122 387.5,958.5 Z M 453.5,958.5 C 464.979,958.83 476.312,960.33 487.5,963C 490.313,966.225 489.48,968.058 485,968.5C 473.856,967.721 462.689,967.221 451.5,967C 448.568,963.3 449.234,960.467 453.5,958.5 Z M 245.5,961.5 C 250.552,961.45 255.552,961.95 260.5,963C 270.933,965.235 281.267,967.568 291.5,970C 289.246,972.711 286.413,974.545 283,975.5C 279.268,974.109 275.435,973.109 271.5,972.5C 258.269,975.059 244.935,975.892 231.5,975C 228.193,974.347 225.527,972.681 223.5,970C 225.455,969.047 227.122,967.713 228.5,966C 233.229,965.727 237.896,965.061 242.5,964C 243.571,963.148 244.571,962.315 245.5,961.5 Z M 308.5,968.5 C 311.839,968.89 315.173,969.39 318.5,970C 320.18,970.347 321.18,971.347 321.5,973C 318.673,975.358 315.839,977.858 313,980.5C 310.867,986.675 306.7,989.508 300.5,989C 299.107,987.829 298.273,986.329 298,984.5C 297.107,983.919 296.107,983.585 295,983.5C 290.599,984.867 286.099,985.533 281.5,985.5C 281.33,984.178 281.663,983.011 282.5,982C 286.975,981.123 291.308,979.789 295.5,978C 298.979,973.31 303.312,970.144 308.5,968.5 Z M 413.5,980.5 C 418.434,980.968 418.767,982.468 414.5,985C 397.809,994.506 379.809,999.006 360.5,998.5C 351.449,997.983 342.616,996.316 334,993.5C 333.167,993.833 332.333,994.167 331.5,994.5C 334.581,996.576 336.914,999.243 338.5,1002.5C 338.167,1004.83 336.833,1006.17 334.5,1006.5C 325.68,1005.18 320.68,1000.01 319.5,991C 319.82,989.347 320.82,988.347 322.5,988C 325.343,987.554 328.176,987.054 331,986.5C 347.051,990.051 363.217,990.884 379.5,989C 390.962,986.134 402.295,983.301 413.5,980.5 Z M 452.5,980.5 C 464.193,980.968 475.86,981.801 487.5,983C 492.545,983.958 497.212,985.791 501.5,988.5C 497.329,990.013 492.996,990.679 488.5,990.5C 477.383,989.876 466.383,988.709 455.5,987C 455.167,987.333 454.833,987.667 454.5,988C 457.844,989.894 459.178,992.727 458.5,996.5C 451.217,998.024 445.884,995.524 442.5,989C 443.833,987 445.167,985 446.5,983C 448.611,982.155 450.611,981.322 452.5,980.5 Z M 427.5,994.5 C 433.335,994.421 436.335,997.421 436.5,1003.5C 435.865,1006.8 433.865,1008.8 430.5,1009.5C 427.682,1008.19 425.515,1006.19 424,1003.5C 418.845,1007.99 413.678,1012.49 408.5,1017C 403.403,1019.28 400.403,1017.62 399.5,1012C 399.773,1009.85 400.439,1007.85 401.5,1006C 408.3,1002.93 415.3,1000.43 422.5,998.5C 424.186,997.143 425.852,995.81 427.5,994.5 Z M 467.5,995.5 C 475.893,996.286 483.893,998.453 491.5,1002C 484.647,1006.11 477.314,1008.44 469.5,1009C 467.075,1004.72 466.408,1000.22 467.5,995.5 Z M 497.5,998.5 C 507.734,999.081 517.734,1000.91 527.5,1004C 532.002,1008.48 531.002,1010.82 524.5,1011C 518.763,1011.79 513.097,1011.46 507.5,1010C 504.571,1007.24 501.238,1005.08 497.5,1003.5C 496.334,1001.83 496.334,1000.17 497.5,998.5 Z M 304.5,999.5 C 312.113,998.614 315.613,1001.95 315,1009.5C 312.808,1011.24 310.308,1012.4 307.5,1013C 288.568,1014.88 269.568,1016.05 250.5,1016.5C 252.416,1018.32 254.749,1019.48 257.5,1020C 269.064,1022.19 280.731,1023.52 292.5,1024C 295.462,1027.49 294.795,1030.15 290.5,1032C 285.167,1032.33 279.833,1032.67 274.5,1033C 268.828,1035.17 263.162,1037.34 257.5,1039.5C 255.112,1039.29 254.112,1037.95 254.5,1035.5C 254.307,1033.31 255.141,1031.65 257,1030.5C 257.667,1029.17 257.667,1027.83 257,1026.5C 253.554,1027.76 251.554,1026.43 251,1022.5C 250.275,1021.94 249.442,1021.61 248.5,1021.5C 245.065,1022.38 241.732,1023.55 238.5,1025C 235.412,1025.85 232.579,1025.35 230,1023.5C 224.653,1014.03 227.487,1008.53 238.5,1007C 255.164,1005.98 271.83,1004.98 288.5,1004C 294.04,1002.79 299.373,1001.29 304.5,999.5 Z M 361.5,1008.5 C 365.514,1008.33 369.514,1008.5 373.5,1009C 379.138,1008.6 380.471,1010.6 377.5,1015C 370.588,1018.65 363.254,1019.98 355.5,1019C 353.789,1017.87 353.289,1016.37 354,1014.5C 356.478,1012.36 358.978,1010.36 361.5,1008.5 Z M 306.5,1022.5 C 319.633,1021.47 320.967,1024.97 310.5,1033C 304.5,1037 298.5,1041 292.5,1045C 288.537,1047.35 285.204,1046.68 282.5,1043C 291.28,1037.05 299.28,1030.22 306.5,1022.5 Z M 460.5,1022.5 C 465.894,1021.55 467.561,1023.55 465.5,1028.5C 461.871,1031.57 459.537,1030.73 458.5,1026C 458.978,1024.7 459.645,1023.53 460.5,1022.5 Z M 505.5,1023.5 C 511.829,1026.88 511.829,1030.72 505.5,1035C 500.504,1035.66 498.67,1033.5 500,1028.5C 501.73,1026.6 503.563,1024.93 505.5,1023.5 Z M 333.5,1024.5 C 339.123,1024.09 343.79,1025.93 347.5,1030C 342.314,1034.6 336.314,1036.93 329.5,1037C 328.426,1036.26 327.759,1035.26 327.5,1034C 328.644,1030.19 330.644,1027.03 333.5,1024.5 Z M 483.5,1025.5 C 488.457,1025.26 489.957,1027.26 488,1031.5C 477.833,1043 467,1053.83 455.5,1064C 451.29,1064.09 450.457,1062.26 453,1058.5C 463.372,1047.63 473.539,1036.63 483.5,1025.5 Z M 421.5,1026.5 C 423.686,1026.51 424.519,1027.51 424,1029.5C 422.416,1030.86 420.582,1031.53 418.5,1031.5C 418.31,1029.04 419.31,1027.37 421.5,1026.5 Z M 411.5,1030.5 C 414.745,1031.82 415.078,1033.65 412.5,1036C 404.988,1035.33 404.654,1033.5 411.5,1030.5 Z M 439.5,1033.5 C 445.549,1033.91 447.049,1036.91 444,1042.5C 438.846,1048.35 435.68,1047.35 434.5,1039.5C 435.465,1036.87 437.132,1034.87 439.5,1033.5 Z M 398.5,1034.5 C 401.47,1034.75 402.803,1036.41 402.5,1039.5C 400.105,1040.36 397.771,1040.36 395.5,1039.5C 395.291,1038.91 394.957,1038.41 394.5,1038C 395.731,1036.6 397.064,1035.43 398.5,1034.5 Z M 386.5,1039.5 C 388.09,1039.63 389.423,1040.29 390.5,1041.5C 393.996,1046.51 393.996,1051.34 390.5,1056C 383.746,1057.46 379.08,1054.96 376.5,1048.5C 378.652,1044.11 381.986,1041.11 386.5,1039.5 Z M 491.5,1040.5 C 492.458,1040.95 493.292,1041.62 494,1042.5C 496.503,1049.81 494.003,1053.15 486.5,1052.5C 487.067,1048.03 488.734,1044.03 491.5,1040.5 Z M 357.5,1041.5 C 359.225,1041.84 359.725,1042.84 359,1044.5C 346.97,1057.53 332.97,1067.87 317,1075.5C 317.796,1084.52 313.963,1087.36 305.5,1084C 298.676,1082.07 298.009,1079.07 303.5,1075C 321.985,1064.29 339.985,1053.13 357.5,1041.5 Z M 412.5,1044.5 C 416.029,1043.89 417.862,1045.22 418,1048.5C 415.167,1051.33 412.333,1054.17 409.5,1057C 407.19,1057.5 404.857,1057.66 402.5,1057.5C 402.335,1054.48 402.502,1051.48 403,1048.5C 406.605,1047.96 409.772,1046.63 412.5,1044.5 Z M 364.5,1056.5 C 370.877,1056.58 372.71,1059.58 370,1065.5C 367.633,1068.93 364.966,1069.27 362,1066.5C 361.167,1064.83 360.333,1063.17 359.5,1061.5C 360.882,1059.45 362.548,1057.78 364.5,1056.5 Z M 468.5,1062.5 C 472.82,1062.96 473.487,1064.79 470.5,1068C 468.176,1070.09 466.176,1069.92 464.5,1067.5C 465.508,1065.5 466.841,1063.83 468.5,1062.5 Z M 383.5,1068.5 C 388.003,1068.8 389.17,1070.8 387,1074.5C 379.878,1083.96 372.378,1093.12 364.5,1102C 372.797,1107 372.463,1111.17 363.5,1114.5C 354.883,1111.23 354.383,1106.9 362,1101.5C 367.684,1089.45 374.851,1078.45 383.5,1068.5 Z M 446.5,1068.5 C 450.597,1069.71 452.264,1072.21 451.5,1076C 448.084,1076.89 444.917,1076.39 442,1074.5C 442.46,1071.85 443.96,1069.85 446.5,1068.5 Z M 343.5,1069.5 C 346.473,1069.97 347.64,1071.63 347,1074.5C 344.694,1079.31 341.194,1082.97 336.5,1085.5C 332.263,1082.32 331.263,1078.49 333.5,1074C 336.893,1072.38 340.226,1070.88 343.5,1069.5 Z M 401.5,1069.5 C 404.983,1068.92 407.983,1069.75 410.5,1072C 409.594,1075.98 407.761,1079.48 405,1082.5C 404.626,1081.58 404.126,1080.75 403.5,1080C 392.18,1078.88 391.513,1075.38 401.5,1069.5 Z M 325.5,1076.5 C 327.252,1076.42 328.252,1077.25 328.5,1079C 326.687,1082.91 324.187,1083.41 321,1080.5C 320.517,1079.55 320.351,1078.55 320.5,1077.5C 322.415,1077.78 324.081,1077.45 325.5,1076.5 Z M 391.5,1082.5 C 394.893,1082.38 396.226,1084.04 395.5,1087.5C 394.704,1092.05 393.204,1096.39 391,1100.5C 388.086,1099.25 386.253,1097.09 385.5,1094C 386.598,1089.64 388.598,1085.8 391.5,1082.5 Z M 416.5,1089.5 C 418.922,1090.09 420.589,1091.59 421.5,1094C 418.977,1100.21 416.31,1106.38 413.5,1112.5C 415.697,1114.44 417.697,1116.61 419.5,1119C 410.776,1126.55 406.942,1124.72 408,1113.5C 410.638,1105.27 413.471,1097.27 416.5,1089.5 Z M 429.5,1093.5 C 433.553,1094.76 435.553,1097.6 435.5,1102C 435.22,1103.4 434.553,1104.56 433.5,1105.5C 430.833,1103.5 428.5,1101.17 426.5,1098.5C 427.763,1096.97 428.763,1095.3 429.5,1093.5 Z"/></g>
<g><path style="opacity:0.937" fill="#fefffe" d="M 1083.5,664.5 C 1092.24,664.124 1100.9,664.624 1109.5,666C 1130.82,676.667 1144.99,693.5 1152,716.5C 1153.41,723.564 1155.08,730.564 1157,737.5C 1157.69,738.357 1158.52,739.023 1159.5,739.5C 1163.81,734.899 1167.64,729.899 1171,724.5C 1178.3,714.549 1187.8,711.716 1199.5,716C 1209.98,722.121 1214.81,731.288 1214,743.5C 1215.71,759.202 1214.04,774.535 1209,789.5C 1204.79,799.626 1201.29,809.959 1198.5,820.5C 1202.75,819.418 1207.09,818.751 1211.5,818.5C 1214.29,818.453 1216.96,818.953 1219.5,820C 1233.02,832.999 1235.19,847.833 1226,864.5C 1220.43,877.99 1213.1,890.323 1204,901.5C 1197.15,909.012 1190.32,916.512 1183.5,924C 1184.1,925.605 1185.1,926.938 1186.5,928C 1196.01,930.665 1200.68,936.998 1200.5,947C 1200.06,950.593 1199.23,954.093 1198,957.5C 1193.43,964.129 1188.26,970.296 1182.5,976C 1173.62,983.056 1164.62,989.89 1155.5,996.5C 1170.6,1004.57 1174.1,1016.24 1166,1031.5C 1157.24,1042.64 1146.07,1050.48 1132.5,1055C 1120.07,1060.41 1107.07,1063.08 1093.5,1063C 1092.43,1063.74 1091.76,1064.74 1091.5,1066C 1100.61,1077.02 1098.94,1086.02 1086.5,1093C 1071.34,1098.52 1055.67,1101.35 1039.5,1101.5C 1039.67,1106.51 1039.5,1111.51 1039,1116.5C 1037.04,1120.58 1033.87,1123.42 1029.5,1125C 1016.98,1127.68 1004.81,1126.52 993,1121.5C 988.844,1124.32 984.677,1127.15 980.5,1130C 972.623,1132.03 965.29,1130.69 958.5,1126C 954.367,1122.87 950.534,1119.37 947,1115.5C 942.822,1106.28 938.655,1097.11 934.5,1088C 902.827,1081 879.993,1062.83 866,1033.5C 864.542,1031.04 862.709,1028.87 860.5,1027C 850.875,1025.94 841.208,1024.94 831.5,1024C 826.11,1018.1 826.776,1012.76 833.5,1008C 856.077,995.752 872.911,977.918 884,954.5C 886.576,943.034 889.576,931.7 893,920.5C 896.715,910.786 903.215,903.619 912.5,899C 941.959,888.708 972.292,883.042 1003.5,882C 1020.34,868.487 1035.84,853.653 1050,837.5C 1057.83,823.335 1068.17,811.335 1081,801.5C 1083.65,777.341 1082.65,753.341 1078,729.5C 1072,712.879 1070.34,695.879 1073,678.5C 1076.33,673.673 1079.83,669.007 1083.5,664.5 Z M 1086.5,675.5 C 1090.88,675.114 1095.04,675.781 1099,677.5C 1103.63,688.053 1106.63,699.053 1108,710.5C 1109.65,711.717 1111.48,712.55 1113.5,713C 1114.93,715.711 1114.59,718.211 1112.5,720.5C 1111.17,721.833 1109.83,721.833 1108.5,720.5C 1103.83,713.153 1099.66,705.486 1096,697.5C 1094.59,695.586 1092.75,694.253 1090.5,693.5C 1090.17,694.167 1089.83,694.833 1089.5,695.5C 1092.17,704.012 1095.34,712.345 1099,720.5C 1103.01,733.364 1105.17,746.53 1105.5,760C 1105.17,763.167 1104.83,766.333 1104.5,769.5C 1099.92,763.358 1096.09,756.692 1093,749.5C 1090.9,744.698 1089.73,739.698 1089.5,734.5C 1090.83,734.5 1092.17,734.5 1093.5,734.5C 1093.7,731.059 1093.2,727.726 1092,724.5C 1088.41,718.998 1085.08,713.331 1082,707.5C 1079.87,699.281 1079.2,690.947 1080,682.5C 1081.36,679.314 1083.52,676.981 1086.5,675.5 Z M 1123.5,707.5 C 1125.9,707.393 1127.74,708.393 1129,710.5C 1130.87,713.205 1131.7,716.205 1131.5,719.5C 1128.26,732.375 1124.93,745.208 1121.5,758C 1123.53,762.311 1123.53,766.811 1121.5,771.5C 1121.6,773.937 1122.6,775.937 1124.5,777.5C 1122.97,781.931 1120.14,783.931 1116,783.5C 1115.83,782.5 1115.67,781.5 1115.5,780.5C 1117.25,773.583 1117.75,766.583 1117,759.5C 1115.64,749.745 1113.81,740.078 1111.5,730.5C 1111.49,728.407 1112.15,726.574 1113.5,725C 1115.67,726.114 1117.5,725.614 1119,723.5C 1121.63,718.449 1123.13,713.116 1123.5,707.5 Z M 1185.5,721.5 C 1192.32,721.814 1196.66,725.314 1198.5,732C 1194.94,738.285 1191.77,744.785 1189,751.5C 1187.29,754.255 1185.12,756.589 1182.5,758.5C 1180.08,756.824 1179.91,754.824 1182,752.5C 1183.02,744.895 1181.19,738.062 1176.5,732C 1178.94,727.922 1181.94,724.422 1185.5,721.5 Z M 1173.5,737.5 C 1174.12,737.611 1174.62,737.944 1175,738.5C 1175.23,747.369 1173.89,756.036 1171,764.5C 1160.25,800.196 1141.75,831.029 1115.5,857C 1113.34,857.722 1111.67,857.055 1110.5,855C 1118.79,842.92 1126.96,830.753 1135,818.5C 1138.33,812.5 1141.67,806.5 1145,800.5C 1154.07,779.035 1163.57,758.035 1173.5,737.5 Z M 1180.5,761.5 C 1183.03,762.09 1184.7,763.59 1185.5,766C 1183.58,771.024 1181.08,775.524 1178,779.5C 1179.51,780.535 1181.01,780.368 1182.5,779C 1184.78,776.052 1187.61,773.886 1191,772.5C 1192.87,773.377 1194.03,774.877 1194.5,777C 1193.88,780.287 1192.38,783.121 1190,785.5C 1183.95,791.554 1177.95,797.554 1172,803.5C 1170.2,808.58 1168.2,813.58 1166,818.5C 1161.02,825.663 1158.35,824.996 1158,816.5C 1163.79,804.925 1168.45,792.925 1172,780.5C 1172.67,779.167 1173.67,778.167 1175,777.5C 1174.3,771.045 1176.13,765.712 1180.5,761.5 Z M 1131.5,781.5 C 1133.94,784.224 1134.11,787.224 1132,790.5C 1126.45,799.053 1119.79,806.72 1112,813.5C 1110.57,817.406 1110.23,821.406 1111,825.5C 1112.97,828.118 1114.81,827.952 1116.5,825C 1120.09,824.389 1121.25,825.889 1120,829.5C 1114.08,838.585 1107.25,846.918 1099.5,854.5C 1098.06,852.979 1097.4,851.145 1097.5,849C 1099.48,839.937 1100.65,830.771 1101,821.5C 1102.73,817.705 1104.73,814.038 1107,810.5C 1108.13,803.428 1110.63,796.928 1114.5,791C 1121.29,789.681 1126.96,786.515 1131.5,781.5 Z M 1094.5,786.5 C 1098.87,786.372 1101.21,788.538 1101.5,793C 1101.43,799.978 1098.43,805.145 1092.5,808.5C 1089.54,801.013 1090.21,793.68 1094.5,786.5 Z M 1077.5,814.5 C 1079.86,814.337 1082.19,814.503 1084.5,815C 1087.89,817.804 1090.56,821.137 1092.5,825C 1090.5,830.007 1087.33,834.174 1083,837.5C 1082,841.5 1081,845.5 1080,849.5C 1074.32,853.502 1070.65,858.835 1069,865.5C 1067.47,866.729 1066.3,868.229 1065.5,870C 1068.5,870.333 1071.5,870.667 1074.5,871C 1075.53,872.507 1075.37,874.007 1074,875.5C 1065.94,885.272 1055.78,890.939 1043.5,892.5C 1041.33,894.84 1039.66,897.506 1038.5,900.5C 1035.2,900.987 1032.2,902.154 1029.5,904C 1035.81,904.352 1042.14,905.019 1048.5,906C 1049.88,908.54 1049.21,910.54 1046.5,912C 1033.5,917.999 1020.17,918.833 1006.5,914.5C 1006.33,915.822 1006.66,916.989 1007.5,918C 1012.97,920.08 1018.64,921.413 1024.5,922C 1025.96,922.423 1026.46,923.256 1026,924.5C 1016.22,931.191 1005.39,933.691 993.5,932C 989.917,931.542 986.917,930.042 984.5,927.5C 987.882,921.232 991.882,915.399 996.5,910C 1008.86,905.322 1020.52,899.322 1031.5,892C 1043.39,881.623 1054.55,870.456 1065,858.5C 1068.47,849.099 1072.13,839.765 1076,830.5C 1076.67,829.5 1076.67,828.5 1076,827.5C 1062.62,853.444 1043.45,873.944 1018.5,889C 1014,890.5 1009.5,892 1005,893.5C 1003.72,893.387 1002.89,892.72 1002.5,891.5C 1003.31,889.528 1004.64,888.028 1006.5,887C 1034.78,872.722 1055.61,851.222 1069,822.5C 1071.4,819.262 1074.23,816.595 1077.5,814.5 Z M 1153.5,826.5 C 1156.59,826.542 1158.92,827.875 1160.5,830.5C 1158.5,833.5 1156.5,836.5 1154.5,839.5C 1158.45,840.015 1162.45,840.181 1166.5,840C 1163.34,844.58 1159.34,848.247 1154.5,851C 1147.17,854.918 1139.67,858.418 1132,861.5C 1130.17,859.586 1130.17,857.586 1132,855.5C 1139.18,845.804 1146.34,836.137 1153.5,826.5 Z M 1207.5,828.5 C 1210.57,828.547 1213.57,829.047 1216.5,830C 1216.25,832.089 1216.25,834.089 1216.5,836C 1216.47,842.532 1213.14,846.032 1206.5,846.5C 1204.43,844.65 1203.1,842.317 1202.5,839.5C 1201.64,838.417 1200.64,838.251 1199.5,839C 1178.67,866.5 1153.01,888.167 1122.5,904C 1118.72,905.37 1114.89,906.536 1111,907.5C 1108.34,906.05 1108.5,904.217 1111.5,902C 1141.71,884.796 1168.71,863.462 1192.5,838C 1196.97,833.779 1201.97,830.613 1207.5,828.5 Z M 1197.5,852.5 C 1200.89,852.874 1202.72,854.874 1203,858.5C 1207.01,859.777 1208.01,862.11 1206,865.5C 1199.41,871.044 1191.91,874.878 1183.5,877C 1182.78,882.401 1179.78,884.735 1174.5,884C 1173.45,882.612 1173.28,881.112 1174,879.5C 1181.3,870.037 1189.13,861.037 1197.5,852.5 Z M 1103.5,863.5 C 1104.76,863.461 1105.76,863.961 1106.5,865C 1101.17,871.667 1095.17,877.667 1088.5,883C 1086.87,883.494 1085.2,883.66 1083.5,883.5C 1083.61,881.217 1084.44,879.217 1086,877.5C 1092.02,872.969 1097.85,868.303 1103.5,863.5 Z M 1118.5,870.5 C 1121.69,871.509 1124.52,873.176 1127,875.5C 1127.67,876.833 1127.67,878.167 1127,879.5C 1118.39,887.218 1108.56,892.385 1097.5,895C 1095.68,893.534 1095.18,891.701 1096,889.5C 1103.69,883.302 1111.19,876.969 1118.5,870.5 Z M 1168.5,884.5 C 1172.74,884.897 1175.74,887.064 1177.5,891C 1173.1,891.355 1169.1,893.188 1165.5,896.5C 1168.4,897.98 1171.4,899.314 1174.5,900.5C 1175.58,901.365 1175.75,902.365 1175,903.5C 1164.92,909.306 1154.09,913.139 1142.5,915C 1138.99,920.182 1134.15,923.349 1128,924.5C 1128.26,927.082 1128.42,929.748 1128.5,932.5C 1122.45,932.327 1116.45,931.66 1110.5,930.5C 1107.4,931.519 1106.74,933.519 1108.5,936.5C 1108.02,937.478 1107.36,938.311 1106.5,939C 1104.17,939.667 1101.83,939.667 1099.5,939C 1098.42,937.274 1098.26,935.441 1099,933.5C 1100.53,931.779 1101.53,929.779 1102,927.5C 1114.56,922.389 1126.89,916.723 1139,910.5C 1145.68,904.159 1153.18,898.992 1161.5,895C 1162.26,892.931 1162.76,890.764 1163,888.5C 1165.02,887.303 1166.85,885.97 1168.5,884.5 Z M 975.5,892.5 C 979.967,892.133 984.3,892.633 988.5,894C 992.218,898.45 992.218,902.784 988.5,907C 984.557,909.705 980.224,911.538 975.5,912.5C 973.246,911.876 971.579,910.543 970.5,908.5C 973.098,906.072 975.098,903.239 976.5,900C 975.43,898.291 974.097,896.791 972.5,895.5C 973.34,894.265 974.34,893.265 975.5,892.5 Z M 965.5,896.5 C 966.586,896.62 967.253,897.287 967.5,898.5C 966.438,901.966 964.771,902.3 962.5,899.5C 963.77,898.712 964.77,897.712 965.5,896.5 Z M 945.5,900.5 C 948.518,900.335 951.518,900.502 954.5,901C 955.833,902.333 955.833,903.667 954.5,905C 947.602,906.891 940.602,907.557 933.5,907C 932.273,905.413 932.606,904.079 934.5,903C 938.312,902.205 941.979,901.371 945.5,900.5 Z M 1087.5,902.5 C 1094.09,904.333 1096.59,908.667 1095,915.5C 1094.06,918.656 1092.56,921.489 1090.5,924C 1086.5,926 1082.5,928 1078.5,930C 1076.29,931.836 1074.96,934.169 1074.5,937C 1071.57,937.953 1068.57,938.453 1065.5,938.5C 1064.96,941.238 1065.96,943.072 1068.5,944C 1071.44,943.377 1074.44,943.043 1077.5,943C 1078.68,945.155 1078.35,947.155 1076.5,949C 1067.65,951.109 1058.65,952.443 1049.5,953C 1046.71,953.897 1044.04,955.063 1041.5,956.5C 1042.38,957.251 1043.38,957.751 1044.5,958C 1049.17,958.333 1053.83,958.667 1058.5,959C 1060.92,960.673 1060.92,962.506 1058.5,964.5C 1048.53,965.784 1038.53,965.784 1028.5,964.5C 1025.08,964.969 1024.74,966.469 1027.5,969C 1026.33,970.167 1025.17,971.333 1024,972.5C 1018.46,970.313 1012.96,967.98 1007.5,965.5C 1006.42,966.365 1006.25,967.365 1007,968.5C 1011.91,972.359 1011.24,974.693 1005,975.5C 996.322,973.607 987.822,971.107 979.5,968C 976.05,965.842 975.717,963.342 978.5,960.5C 990.789,959.101 1003.12,957.935 1015.5,957C 1020.47,955.54 1025.47,954.206 1030.5,953C 1041.22,947.485 1052.22,942.652 1063.5,938.5C 1070.52,931.807 1076.86,924.474 1082.5,916.5C 1081.97,914.899 1080.97,914.399 1079.5,915C 1070.64,920.265 1062.3,926.265 1054.5,933C 1044.43,938.123 1033.93,941.957 1023,944.5C 1019.41,945.283 1017.57,943.95 1017.5,940.5C 1027.59,936.622 1037.59,932.456 1047.5,928C 1060.22,918.422 1073.56,909.922 1087.5,902.5 Z M 963.5,911.5 C 968.132,912.814 972.132,915.147 975.5,918.5C 973.535,919.292 971.535,919.959 969.5,920.5C 966.223,919.746 962.89,919.246 959.5,919C 957.789,917.867 957.289,916.367 958,914.5C 959.876,913.391 961.709,912.391 963.5,911.5 Z M 928.5,918.5 C 936.215,917.547 940.882,920.88 942.5,928.5C 942.471,930.029 941.804,931.196 940.5,932C 933.711,934.718 926.711,935.218 919.5,933.5C 915.212,933.437 911.045,934.104 907,935.5C 902.532,933.395 902.365,930.895 906.5,928C 913.658,924.125 920.991,920.958 928.5,918.5 Z M 1176.5,936.5 C 1187.06,935.863 1190.23,940.196 1186,949.5C 1182.13,950.868 1178.63,952.868 1175.5,955.5C 1173.83,954.833 1172.17,954.167 1170.5,953.5C 1171.09,946.585 1168.09,943.752 1161.5,945C 1158.13,946.566 1154.63,947.733 1151,948.5C 1148.24,948.576 1147.08,947.243 1147.5,944.5C 1157.49,942.609 1167.16,939.942 1176.5,936.5 Z M 959.5,940.5 C 963.846,940.334 968.179,940.501 972.5,941C 975.472,945.78 974.472,949.78 969.5,953C 968.167,953.667 966.833,953.667 965.5,953C 964.161,950.984 962.328,949.817 960,949.5C 953.921,951.204 947.754,951.704 941.5,951C 936.264,949.885 935.597,947.885 939.5,945C 946.48,944.307 953.147,942.807 959.5,940.5 Z M 1131.5,947.5 C 1134.52,947.335 1137.52,947.502 1140.5,948C 1140.96,948.414 1141.29,948.914 1141.5,949.5C 1138.47,951.682 1135.14,953.349 1131.5,954.5C 1116.48,956.044 1101.48,956.711 1086.5,956.5C 1086.33,955.178 1086.66,954.011 1087.5,953C 1098.8,951.841 1110.13,951.174 1121.5,951C 1124.85,949.514 1128.18,948.347 1131.5,947.5 Z M 959.5,953.5 C 963.757,953.735 965.09,955.735 963.5,959.5C 959.943,962.483 956.943,961.983 954.5,958C 956.24,956.483 957.906,954.983 959.5,953.5 Z M 1158.5,953.5 C 1161.17,953.828 1162.84,955.328 1163.5,958C 1160.5,962.667 1157.5,962.667 1154.5,958C 1155.36,955.981 1156.69,954.481 1158.5,953.5 Z M 921.5,958.5 C 926.599,958.175 931.599,958.675 936.5,960C 938.527,961.396 938.86,963.062 937.5,965C 926.224,966.766 914.891,966.933 903.5,965.5C 904.779,963.854 906.445,962.687 908.5,962C 912.86,960.417 917.194,959.25 921.5,958.5 Z M 1138.5,959.5 C 1142.6,959.942 1146.27,961.442 1149.5,964C 1154.25,964.725 1158.92,965.725 1163.5,967C 1164.17,967.667 1164.83,968.333 1165.5,969C 1160.64,974.122 1154.64,976.622 1147.5,976.5C 1137.12,975.159 1126.79,973.492 1116.5,971.5C 1112.99,973.754 1109.33,975.754 1105.5,977.5C 1102.22,975.883 1099.55,973.55 1097.5,970.5C 1111.26,966.978 1124.92,963.311 1138.5,959.5 Z M 1070.5,968.5 C 1080.22,967.46 1088.55,970.294 1095.5,977C 1102.58,979.47 1109.58,982.137 1116.5,985C 1117.34,986.011 1117.67,987.178 1117.5,988.5C 1110.07,987.804 1102.74,986.471 1095.5,984.5C 1094.17,984.667 1092.83,984.833 1091.5,985C 1088.93,989.141 1085.26,990.474 1080.5,989C 1077.96,986.094 1075.8,982.927 1074,979.5C 1071.04,977.611 1068.21,975.611 1065.5,973.5C 1067.01,971.599 1068.67,969.932 1070.5,968.5 Z M 971.5,979.5 C 989.392,985.223 1007.73,988.556 1026.5,989.5C 1038.5,988.332 1050.5,987.498 1062.5,987C 1063.87,987.402 1065.21,987.902 1066.5,988.5C 1068.35,995.321 1066.35,1000.82 1060.5,1005C 1055.26,1007.52 1050.93,1006.52 1047.5,1002C 1049.49,998.827 1052.16,996.327 1055.5,994.5C 1056.51,993.604 1056.51,992.938 1055.5,992.5C 1050.49,994.34 1045.49,996.173 1040.5,998C 1016.05,1001.05 993.047,996.715 971.5,985C 970.5,984 969.5,983 968.5,982C 969.571,981.148 970.571,980.315 971.5,979.5 Z M 936.5,980.5 C 943.265,981.677 945.765,985.677 944,992.5C 940.474,995.758 936.307,996.925 931.5,996C 930.941,995.275 930.608,994.442 930.5,993.5C 931.065,991.595 932.065,989.929 933.5,988.5C 933.291,987.914 932.957,987.414 932.5,987C 928.833,986.333 925.167,986.333 921.5,987C 911.722,990.144 901.722,991.144 891.5,990C 889.026,989.887 887.026,988.887 885.5,987C 889.649,985.263 893.983,984.263 898.5,984C 911.307,982.697 923.974,981.53 936.5,980.5 Z M 956.5,994.5 C 966.28,998.817 976.28,1002.65 986.5,1006C 989.383,1010.27 989.05,1014.27 985.5,1018C 983.833,1018.67 982.167,1018.67 980.5,1018C 975.351,1013.69 970.351,1009.19 965.5,1004.5C 963.032,1005.8 960.699,1007.3 958.5,1009C 952.619,1009.79 950.119,1007.29 951,1001.5C 952.382,998.695 954.216,996.361 956.5,994.5 Z M 910.5,996.5 C 915.889,997.386 919.222,1000.55 920.5,1006C 920.415,1007.11 920.081,1008.11 919.5,1009C 917.167,1009.67 914.833,1009.67 912.5,1009C 907.51,1007.17 902.51,1005.34 897.5,1003.5C 896.253,1001.99 896.253,1000.49 897.5,999C 901.94,998.034 906.273,997.201 910.5,996.5 Z M 883.5,997.5 C 887.005,996.891 889.672,998.058 891.5,1001C 887.689,1003.75 884.022,1006.75 880.5,1010C 875.971,1010.68 871.471,1010.51 867,1009.5C 864.336,1009.25 862.169,1008.08 860.5,1006C 861.551,1004.62 862.884,1003.62 864.5,1003C 871.092,1001.58 877.426,999.75 883.5,997.5 Z M 1074.5,1000.5 C 1084.29,1000.6 1093.96,1001.77 1103.5,1004C 1119.5,1005 1135.5,1006 1151.5,1007C 1158.41,1008.55 1161.24,1012.72 1160,1019.5C 1158.83,1022 1157,1023.83 1154.5,1025C 1148.85,1024.7 1143.19,1024.7 1137.5,1025C 1134.99,1026.45 1132.32,1027.62 1129.5,1028.5C 1131.75,1031.33 1133.75,1034.33 1135.5,1037.5C 1135.29,1038.09 1134.96,1038.59 1134.5,1039C 1132.17,1039.67 1129.83,1039.67 1127.5,1039C 1120.45,1034.86 1112.95,1033.36 1105,1034.5C 1100.98,1034.16 1097.65,1032.49 1095,1029.5C 1095.02,1025.51 1097.18,1023.35 1101.5,1023C 1111.87,1021.91 1122.2,1020.58 1132.5,1019C 1134.63,1018.46 1136.63,1017.62 1138.5,1016.5C 1128.77,1015.31 1119.11,1015.64 1109.5,1017.5C 1100.24,1015.67 1090.91,1014.17 1081.5,1013C 1077.55,1012.46 1074.05,1010.96 1071,1008.5C 1070.9,1005.33 1072.06,1002.66 1074.5,1000.5 Z M 1006.5,1008.5 C 1013.84,1008.33 1021.17,1008.5 1028.5,1009C 1031.69,1010.69 1034.03,1013.19 1035.5,1016.5C 1034.87,1018.26 1033.87,1019.76 1032.5,1021C 1024.04,1021.07 1016.04,1019.07 1008.5,1015C 1005.68,1013.38 1005.01,1011.21 1006.5,1008.5 Z M 995.5,1009.5 C 999.314,1009.65 1000.98,1011.65 1000.5,1015.5C 996.092,1015.94 994.425,1013.94 995.5,1009.5 Z M 923.5,1022.5 C 929.354,1024.3 929.687,1026.63 924.5,1029.5C 920.967,1027.58 920.633,1025.25 923.5,1022.5 Z M 1053.5,1022.5 C 1055.31,1022.77 1056.98,1023.44 1058.5,1024.5C 1059.65,1028.49 1061.48,1032.15 1064,1035.5C 1064.68,1036.78 1064.52,1037.95 1063.5,1039C 1054.44,1039.64 1046.78,1036.64 1040.5,1030C 1044.27,1026.45 1048.61,1023.95 1053.5,1022.5 Z M 1069.5,1022.5 C 1074.78,1021.93 1079.78,1022.76 1084.5,1025C 1089.41,1030.58 1094.91,1035.41 1101,1039.5C 1102.75,1041.21 1103.42,1043.21 1103,1045.5C 1089.49,1042.56 1077.82,1035.9 1068,1025.5C 1067.76,1024.21 1068.26,1023.21 1069.5,1022.5 Z M 881.5,1024.5 C 884.651,1024.98 886.985,1026.65 888.5,1029.5C 882.554,1035.51 879.221,1034.18 878.5,1025.5C 879.791,1025.74 880.791,1025.4 881.5,1024.5 Z M 901.5,1026.5 C 903.582,1026.47 905.416,1027.14 907,1028.5C 914.626,1038.13 922.96,1047.13 932,1055.5C 933.5,1057.67 935,1059.83 936.5,1062C 935.07,1063.44 933.403,1063.77 931.5,1063C 922.363,1054.86 913.53,1046.36 905,1037.5C 903.111,1034.89 901.611,1032.06 900.5,1029C 900.743,1028.1 901.077,1027.26 901.5,1026.5 Z M 963.5,1026.5 C 966.568,1026.55 969.568,1027.05 972.5,1028C 981.856,1032.51 991.523,1036.18 1001.5,1039C 1006.24,1041.19 1009.9,1044.53 1012.5,1049C 1005.39,1058.35 997.721,1058.85 989.5,1050.5C 988.5,1050.83 987.833,1051.5 987.5,1052.5C 988.767,1054.37 988.767,1056.2 987.5,1058C 984.406,1058.65 981.406,1058.32 978.5,1057C 974.868,1054.37 971.535,1051.37 968.5,1048C 966.283,1046.72 963.949,1045.72 961.5,1045C 960.184,1043.02 960.684,1041.52 963,1040.5C 970.077,1042.23 977.077,1044.23 984,1046.5C 986.413,1045.98 988.58,1044.98 990.5,1043.5C 981.577,1039.24 972.577,1035.08 963.5,1031C 962.272,1029.51 962.272,1028.01 963.5,1026.5 Z M 943.5,1031.5 C 947.052,1033.37 949.886,1036.03 952,1039.5C 952.707,1042.76 951.707,1045.43 949,1047.5C 944.98,1044.49 942.147,1040.66 940.5,1036C 941.222,1034.25 942.222,1032.75 943.5,1031.5 Z M 1029.5,1039.5 C 1040.28,1046.4 1050.94,1053.56 1061.5,1061C 1071.85,1065.5 1081.19,1071.5 1089.5,1079C 1085.86,1082.9 1081.36,1085.07 1076,1085.5C 1071.36,1084.37 1066.7,1083.37 1062,1082.5C 1059,1083.5 1056,1084.5 1053,1085.5C 1051.11,1085.2 1049.28,1084.7 1047.5,1084C 1041.19,1077.51 1034.19,1072.01 1026.5,1067.5C 1022.58,1070.47 1019.41,1069.81 1017,1065.5C 1016.33,1062.83 1016.33,1060.17 1017,1057.5C 1017.8,1056.2 1018.97,1055.53 1020.5,1055.5C 1026.28,1058.77 1031.94,1062.27 1037.5,1066C 1047.21,1070 1056.71,1074.17 1066,1078.5C 1068.5,1077.5 1069,1075.83 1067.5,1073.5C 1056.87,1069.19 1047.2,1063.35 1038.5,1056C 1033.8,1051.63 1029.47,1046.97 1025.5,1042C 1026.86,1041.07 1028.19,1040.23 1029.5,1039.5 Z M 892.5,1043.5 C 899.486,1043.33 901.153,1046.16 897.5,1052C 893.876,1052.22 891.876,1050.39 891.5,1046.5C 892.127,1045.58 892.461,1044.58 892.5,1043.5 Z M 940.5,1068.5 C 948.654,1071.78 948.488,1074.44 940,1076.5C 938.605,1076.22 937.438,1075.55 936.5,1074.5C 937.467,1072.21 938.8,1070.21 940.5,1068.5 Z M 1000.5,1068.5 C 1004.27,1067.82 1007.11,1069.16 1009,1072.5C 1016.88,1084.43 1024.38,1096.6 1031.5,1109C 1029.6,1111.56 1027.1,1113.39 1024,1114.5C 1019.85,1113.02 1017.18,1110.35 1016,1106.5C 1017.44,1105.13 1019.11,1104.13 1021,1103.5C 1020.8,1099.45 1018.8,1096.45 1015,1094.5C 1010,1087.5 1005,1080.5 1000,1073.5C 999.36,1071.73 999.527,1070.07 1000.5,1068.5 Z M 979.5,1069.5 C 983.722,1069.08 987.722,1069.74 991.5,1071.5C 995.525,1080.71 1001.36,1088.71 1009,1095.5C 1010.56,1097.77 1010.72,1100.1 1009.5,1102.5C 1003.06,1105.97 997.56,1104.97 993,1099.5C 991.279,1093.31 990.279,1086.98 990,1080.5C 989.667,1080.17 989.333,1079.83 989,1079.5C 981.553,1084.83 977.72,1082.83 977.5,1073.5C 977.752,1071.93 978.418,1070.59 979.5,1069.5 Z M 968.5,1086.5 C 970.017,1086.51 971.184,1087.18 972,1088.5C 978.624,1100.06 980.458,1112.06 977.5,1124.5C 973.698,1123.28 970.698,1121.12 968.5,1118C 968.645,1117.23 968.978,1116.56 969.5,1116C 971.167,1115.67 972.833,1115.33 974.5,1115C 975.428,1114.61 976.095,1113.95 976.5,1113C 972.705,1108.58 969.539,1103.74 967,1098.5C 965.994,1094.2 966.494,1090.2 968.5,1086.5 Z M 955.5,1091.5 C 959.553,1092.76 961.553,1095.6 961.5,1100C 960.605,1105.77 957.772,1106.93 953,1103.5C 952.035,1099.07 952.868,1095.07 955.5,1091.5 Z"/></g>
<g><path style="opacity:0.847" fill="#fefffe" d="M 743.5,741.5 C 748.179,741.334 752.845,741.501 757.5,742C 760.2,742.949 761.033,744.783 760,747.5C 751.912,748.648 743.746,748.815 735.5,748C 733.519,747.395 733.185,746.395 734.5,745C 737.459,743.396 740.459,742.229 743.5,741.5 Z"/></g>
<g><path style="opacity:0.748" fill="#fefffe" d="M 632.5,742.5 C 636.62,742.091 639.954,743.424 642.5,746.5C 642.291,747.086 641.957,747.586 641.5,748C 638.118,748.824 634.784,748.657 631.5,747.5C 630.096,745.453 630.429,743.787 632.5,742.5 Z"/></g>
<g><path style="opacity:0.861" fill="#fefffe" d="M 714.5,769.5 C 722.865,769.447 731.198,769.947 739.5,771C 746.219,773.867 745.885,775.867 738.5,777C 722.79,778.912 707.123,778.578 691.5,776C 690.167,774.667 690.167,773.333 691.5,772C 699.296,771.019 706.962,770.186 714.5,769.5 Z"/></g>
<g><path style="opacity:0.627" fill="#fefffe" d="M 550.5,1232.5 C 551.964,1231.84 553.631,1231.51 555.5,1231.5C 557.712,1231.41 559.712,1231.91 561.5,1233C 557.785,1234.97 554.119,1234.81 550.5,1232.5 Z"/></g>
<g><path style="opacity:0.609" fill="#fefffe" d="M 819.5,1232.5 C 824.875,1232.17 830.208,1232.51 835.5,1233.5C 834.203,1235.4 832.37,1236.4 830,1236.5C 826.969,1235.96 823.969,1235.29 821,1234.5C 819.97,1234.16 819.47,1233.5 819.5,1232.5 Z"/></g>
<g><path style="opacity:0.766" fill="#fefffe" d="M 543.5,1244.5 C 544.097,1243.86 544.93,1243.53 546,1243.5C 555.735,1245.09 565.569,1246.26 575.5,1247C 576.337,1248.01 576.67,1249.18 576.5,1250.5C 566.788,1250.79 557.121,1250.29 547.5,1249C 545.899,1248.73 544.399,1248.23 543,1247.5C 542.544,1246.26 543.044,1245.42 544.5,1245C 544.272,1244.6 543.938,1244.43 543.5,1244.5 Z"/></g>
<g><path style="opacity:0.788" fill="#fefffe" d="M 822.5,1243.5 C 830.077,1242.92 837.41,1243.92 844.5,1246.5C 826.726,1250.49 808.726,1251.99 790.5,1251C 799.666,1248.33 808.999,1246.5 818.5,1245.5C 820.333,1245.41 821.666,1244.75 822.5,1243.5 Z"/></g>
</svg>
