<?xml version="1.0" encoding="UTF-8"?>
<!DOCTYPE svg PUBLIC "-//W3C//DTD SVG 1.1//EN" "http://www.w3.org/Graphics/SVG/1.1/DTD/svg11.dtd">
<svg xmlns="http://www.w3.org/2000/svg" version="1.1" width="1390px" height="1352px" style="shape-rendering:geometricPrecision; text-rendering:geometricPrecision; image-rendering:optimizeQuality; fill-rule:evenodd; clip-rule:evenodd" xmlns:xlink="http://www.w3.org/1999/xlink">
<g><path style="opacity:0.927" fill="#3f3f3f" d="M 696.5,64.5 C 698.792,64.2436 700.959,64.5769 703,65.5C 703.544,76.8874 705.877,87.8874 710,98.5C 719.651,117.802 729.318,137.136 739,156.5C 748.484,178.364 749.817,200.697 743,223.5C 737.643,237.734 728.81,249.234 716.5,258C 700.106,263.954 685.773,260.954 673.5,249C 665.622,239.422 659.122,228.922 654,217.5C 652.549,202.714 652.549,188.714 654,175.5C 657.455,168.013 660.455,160.346 663,152.5C 672.784,134.597 681.784,116.264 690,97.5C 693.673,86.798 695.839,75.798 696.5,64.5 Z M 698.5,91.5 C 699.496,91.4142 700.329,91.7476 701,92.5C 702.138,99.0746 703.971,105.408 706.5,111.5C 704.105,110.637 701.771,110.637 699.5,111.5C 698.194,115.207 698.36,118.874 700,122.5C 701.699,123.406 703.533,123.739 705.5,123.5C 705.338,121.473 705.505,119.473 706,117.5C 707.183,116.269 708.349,116.269 709.5,117.5C 715.096,131.363 721.262,145.03 728,158.5C 729.051,163.474 729.885,168.474 730.5,173.5C 729.5,173.5 728.5,173.5 727.5,173.5C 723.109,160.719 717.109,148.719 709.5,137.5C 708.264,136.754 706.93,136.421 705.5,136.5C 705.34,138.199 705.506,139.866 706,141.5C 708.728,149.951 711.728,158.284 715,166.5C 716.65,172.419 717.317,178.419 717,184.5C 715.833,187 714,188.833 711.5,190C 694.757,192.397 686.257,201.897 686,218.5C 682.38,215.883 679.047,212.883 676,209.5C 675.853,204.039 675.02,198.706 673.5,193.5C 671.735,201.985 671.569,210.652 673,219.5C 676.787,224.956 680.954,230.123 685.5,235C 694.444,239.342 703.777,240.508 713.5,238.5C 713.128,242.043 711.128,244.21 707.5,245C 702.167,245.667 696.833,245.667 691.5,245C 679.801,238.627 671.634,229.127 667,216.5C 663.023,205.068 662.023,193.401 664,181.5C 666.262,172.712 668.929,164.046 672,155.5C 682.111,134.659 690.945,113.325 698.5,91.5 Z M 731.5,179.5 C 733.285,179.926 734.285,181.092 734.5,183C 735.882,192.523 735.716,202.023 734,211.5C 732.989,212.337 731.822,212.67 730.5,212.5C 728.91,201.393 729.244,190.393 731.5,179.5 Z"/></g>
<g><path style="opacity:0.778" fill="#3f3f3f" d="M 675.5,168.5 C 678.897,169.258 680.23,171.425 679.5,175C 680.078,178.686 678.745,181.186 675.5,182.5C 673.123,181.499 672.123,179.666 672.5,177C 672.622,173.796 673.622,170.963 675.5,168.5 Z"/></g>
<g><path style="opacity:0.946" fill="#3f3f3f" d="M 682.5,285.5 C 699.193,285.211 715.86,285.711 732.5,287C 750.148,290.108 767.814,293.108 785.5,296C 802.025,302.397 818.692,308.397 835.5,314C 853.533,321.713 869.7,332.213 884,345.5C 887.668,350.844 888.334,356.511 886,362.5C 880.276,366.416 874.11,369.583 867.5,372C 858.915,378.583 851.748,386.416 846,395.5C 843.134,406.208 843.467,416.875 847,427.5C 856.077,446.654 865.411,465.654 875,484.5C 880.591,498.272 885.591,512.272 890,526.5C 892.461,542.069 893.127,557.736 892,573.5C 890,584.839 885.667,595.172 879,604.5C 872.919,613.252 866.086,621.418 858.5,629C 845.512,638.495 832.179,647.495 818.5,656C 804.248,662.195 789.915,668.195 775.5,674C 761.498,679.914 749.331,688.414 739,699.5C 736.323,703.852 734.489,708.518 733.5,713.5C 739.645,729.457 747.145,744.79 756,759.5C 763.702,776.01 767.035,793.343 766,811.5C 764.441,819.404 762.107,827.071 759,834.5C 751.925,845.984 745.925,857.984 741,870.5C 738.376,882.297 741.876,891.797 751.5,899C 765.65,907.275 780.65,913.608 796.5,918C 819.95,923.595 843.283,929.595 866.5,936C 889.228,942.533 910.894,951.533 931.5,963C 943.722,973.123 946.889,985.623 941,1000.5C 933.858,1009.97 924.691,1016.8 913.5,1021C 902.914,1025.53 892.247,1029.86 881.5,1034C 867.313,1036.57 853.313,1039.9 839.5,1044C 761.502,1056.71 683.168,1059.04 604.5,1051C 574.634,1047.53 545.301,1041.53 516.5,1033C 501.189,1028.01 486.522,1021.68 472.5,1014C 465.282,1009.78 459.782,1003.95 456,996.5C 452.722,982.732 456.556,971.565 467.5,963C 480.516,955.326 494.182,948.993 508.5,944C 547.84,932.665 587.173,921.332 626.5,910C 634.185,906.494 641.519,902.494 648.5,898C 661.989,886.523 663.822,873.357 654,858.5C 642.215,841.649 635.048,822.982 632.5,802.5C 634.072,790.213 636.905,778.213 641,766.5C 648.923,750.987 656.59,735.32 664,719.5C 665.751,710.503 663.751,702.503 658,695.5C 649.628,687.394 640.128,680.894 629.5,676C 598.685,665.762 570.352,651.095 544.5,632C 527.102,616.936 514.935,598.436 508,576.5C 506.464,564.209 506.13,551.876 507,539.5C 509.194,528.392 511.86,517.392 515,506.5C 526.44,481.619 538.44,456.953 551,432.5C 556.975,420.899 557.975,408.899 554,396.5C 544.953,381.793 532.453,370.959 516.5,364C 510.375,359.129 509.875,353.629 515,347.5C 531.611,331.437 550.778,319.27 572.5,311C 607.962,296.811 644.629,288.311 682.5,285.5 Z M 682.5,295.5 C 737.915,293.921 790.581,305.088 840.5,329C 843.533,330.737 844.033,332.903 842,335.5C 833.018,330.587 823.518,327.254 813.5,325.5C 813.33,326.822 813.663,327.989 814.5,329C 823.496,333.176 831.83,338.343 839.5,344.5C 840.888,345.591 841.388,346.924 841,348.5C 815.228,335.573 788.061,327.739 759.5,325C 761.717,326.275 764.051,327.275 766.5,328C 786.043,330.775 804.71,336.442 822.5,345C 843.156,359.052 842.489,361.052 820.5,351C 813.368,347.878 806.034,346.378 798.5,346.5C 806.06,350.28 813.727,354.113 821.5,358C 823.019,359.351 824.352,360.851 825.5,362.5C 825.167,363.5 824.5,364.167 823.5,364.5C 810.636,358.62 797.303,354.286 783.5,351.5C 783.343,352.873 783.51,354.207 784,355.5C 786.329,357.16 788.662,358.827 791,360.5C 794.221,359.208 797.387,359.374 800.5,361C 807.48,363.487 813.814,366.987 819.5,371.5C 817.926,372.631 816.259,372.798 814.5,372C 807.043,369.637 799.71,366.97 792.5,364C 792.002,362.842 791.169,362.009 790,361.5C 783.808,362.13 777.641,362.964 771.5,364C 783.057,368.276 794.723,372.276 806.5,376C 810.993,378.079 815.326,380.412 819.5,383C 820.337,384.011 820.67,385.178 820.5,386.5C 809.924,382.584 799.257,378.751 788.5,375C 784.514,374.501 780.514,374.334 776.5,374.5C 776.238,375.978 776.571,377.311 777.5,378.5C 785.791,382.43 794.457,385.263 803.5,387C 806.943,388.618 809.943,390.785 812.5,393.5C 811,393.833 809.5,394.167 808,394.5C 802.143,393.159 796.31,391.659 790.5,390C 788.231,389.242 786.064,389.409 784,390.5C 783.28,392.112 783.446,393.612 784.5,395C 796.468,396.987 807.468,401.32 817.5,408C 812.691,409.442 807.691,409.942 802.5,409.5C 802.286,411.144 802.62,412.644 803.5,414C 812.771,417.636 821.771,421.803 830.5,426.5C 831.823,428.204 831.49,429.537 829.5,430.5C 824.928,429.146 820.595,427.312 816.5,425C 805.927,423.94 795.593,421.773 785.5,418.5C 784.999,412.999 787.665,410.332 793.5,410.5C 793.714,408.856 793.38,407.356 792.5,406C 787.488,405.129 782.488,404.296 777.5,403.5C 777.113,405.731 776.947,408.064 777,410.5C 769.09,418.66 760.257,425.16 750.5,430C 749.978,429.439 749.645,428.772 749.5,428C 753.211,416.324 756.211,404.49 758.5,392.5C 756.856,392.286 755.356,392.62 754,393.5C 747.279,403.609 739.612,412.942 731,421.5C 729.866,417.847 729.366,414.014 729.5,410C 730.255,400.837 730.422,391.67 730,382.5C 728.951,381.483 727.784,381.316 726.5,382C 721.05,391.4 716.55,401.234 713,411.5C 711.644,412.38 710.144,412.714 708.5,412.5C 707.023,400.105 704.689,387.938 701.5,376C 699.888,375.28 698.388,375.446 697,376.5C 694.755,387.458 692.755,398.458 691,409.5C 690.632,410.91 689.799,411.91 688.5,412.5C 682.584,403.005 677.418,393.005 673,382.5C 671.556,380.845 669.722,380.178 667.5,380.5C 667.291,391.185 667.624,401.852 668.5,412.5C 668.679,415.131 668.013,417.465 666.5,419.5C 658.676,410.84 651.009,402.006 643.5,393C 642.552,392.517 641.552,392.351 640.5,392.5C 640.344,396.582 640.844,400.582 642,404.5C 645,412 647.5,419.667 649.5,427.5C 648.883,429.636 647.549,430.47 645.5,430C 635.431,423.289 626.098,415.623 617.5,407C 615.866,406.506 614.199,406.34 612.5,406.5C 612.841,409.516 614.007,412.182 616,414.5C 616.687,416.568 616.52,418.568 615.5,420.5C 618.578,421.352 621.078,423.018 623,425.5C 626,430.167 629,434.833 632,439.5C 633.128,441.345 633.628,443.345 633.5,445.5C 626.53,444.684 620.197,442.184 614.5,438C 609.714,435.794 604.714,434.294 599.5,433.5C 594.815,436.171 589.815,438.337 584.5,440C 577.174,441.609 569.841,443.109 562.5,444.5C 562.281,443.325 562.614,442.325 563.5,441.5C 573.406,436.048 583.406,430.881 593.5,426C 587.903,424.909 582.57,425.576 577.5,428C 563.66,431.135 562.994,429.135 575.5,422C 581.744,419.185 588.077,416.518 594.5,414C 595.406,412.301 595.739,410.467 595.5,408.5C 593.116,408.443 590.782,408.777 588.5,409.5C 586.67,409.224 585.003,408.557 583.5,407.5C 592.994,402.002 602.994,397.669 613.5,394.5C 614.583,393.635 614.749,392.635 614,391.5C 611.263,390.39 608.429,390.223 605.5,391C 599.678,392.992 593.678,394.492 587.5,395.5C 586.692,395.192 586.025,394.692 585.5,394C 588.833,392 592.167,390 595.5,388C 604.481,384.627 613.148,380.794 621.5,376.5C 621,376.167 620.5,375.833 620,375.5C 615.205,376.254 610.372,376.754 605.5,377C 598.44,379.076 591.44,381.243 584.5,383.5C 584.561,381.408 585.561,379.908 587.5,379C 595.667,374.945 604.001,371.278 612.5,368C 613.337,366.989 613.67,365.822 613.5,364.5C 602.536,366.026 591.869,368.692 581.5,372.5C 581.452,369.708 582.785,367.875 585.5,367C 595.16,363.505 604.493,359.338 613.5,354.5C 599.996,354.827 587.163,358.16 575,364.5C 573.318,363.135 573.151,361.635 574.5,360C 583.301,355.766 591.968,351.266 600.5,346.5C 598.579,345.359 596.579,345.192 594.5,346C 587.61,348.306 580.61,350.139 573.5,351.5C 573.178,349.278 573.845,347.444 575.5,346C 585.285,341.941 594.952,337.608 604.5,333C 590.013,334.715 576.18,338.882 563,345.5C 561.941,345.37 561.108,344.87 560.5,344C 561.5,343 562.5,342 563.5,341C 570.657,336.663 577.657,332.163 584.5,327.5C 583.667,327.167 582.833,326.833 582,326.5C 572.421,329.209 563.254,332.875 554.5,337.5C 553.386,336.277 553.219,334.944 554,333.5C 560.455,327.352 567.955,322.852 576.5,320C 610.998,307.538 646.332,299.372 682.5,295.5 Z M 783.5,422.5 C 791.167,423.933 798.834,425.433 806.5,427C 815.347,431.59 824.347,435.923 833.5,440C 834.5,441 835.5,442 836.5,443C 826.205,442.685 816.205,440.685 806.5,437C 805.354,434.856 803.854,433.023 802,431.5C 796.64,433.305 791.14,434.472 785.5,435C 780.029,440.233 773.695,443.566 766.5,445C 765.483,443.951 765.316,442.784 766,441.5C 768.917,437.334 771.584,433.001 774,428.5C 776.843,425.837 780.009,423.837 783.5,422.5 Z M 696.5,434.5 C 718.613,434.472 736.779,442.805 751,459.5C 764.143,480.519 764.809,501.852 753,523.5C 746.139,532.697 737.305,539.197 726.5,543C 711.048,547.497 695.381,548.497 679.5,546C 644.135,533.44 631.302,508.94 641,472.5C 645.659,462.844 652.159,454.677 660.5,448C 666.325,445.255 671.992,442.255 677.5,439C 683.912,437.273 690.246,435.773 696.5,434.5 Z M 592.5,440.5 C 597.292,440.74 601.625,442.24 605.5,445C 611.239,450.284 617.073,455.451 623,460.5C 623.684,461.784 623.517,462.951 622.5,464C 612.548,462.68 602.548,461.346 592.5,460C 590.365,459.241 589.032,457.741 588.5,455.5C 587.167,455.167 585.833,454.833 584.5,454.5C 576.838,455.633 569.171,456.633 561.5,457.5C 561.561,455.408 562.561,453.908 564.5,453C 573.893,448.713 583.226,444.546 592.5,440.5 Z M 803.5,440.5 C 811.716,443.811 820.049,446.978 828.5,450C 832.844,452.171 836.844,454.837 840.5,458C 832.124,457.494 823.79,456.327 815.5,454.5C 812.72,456.103 810.054,457.937 807.5,460C 798.859,461.331 790.192,461.998 781.5,462C 780.465,460.493 780.632,458.993 782,457.5C 787.605,453.473 792.439,448.64 796.5,443C 799.004,442.302 801.337,441.469 803.5,440.5 Z M 575.5,460.5 C 578.849,461.259 581.682,462.926 584,465.5C 584.684,466.784 584.517,467.951 583.5,469C 573.535,470.16 563.868,472.493 554.5,476C 552.231,476.758 550.064,476.591 548,475.5C 547.383,474.551 547.549,473.718 548.5,473C 557.521,468.511 566.521,464.344 575.5,460.5 Z M 821.5,460.5 C 865.12,477.951 864.12,481.118 818.5,470C 816.5,469.333 815.167,468 814.5,466C 816.469,463.511 818.802,461.678 821.5,460.5 Z M 803.5,471.5 C 816.447,474.76 829.114,478.927 841.5,484C 844.076,484.782 846.076,486.282 847.5,488.5C 843.878,489.659 840.211,489.825 836.5,489C 823.434,484.829 810.101,483.496 796.5,485C 793.42,483.289 792.254,480.789 793,477.5C 796.069,474.554 799.569,472.554 803.5,471.5 Z M 587.5,472.5 C 597.462,471.431 605.962,474.431 613,481.5C 613.617,482.449 613.451,483.282 612.5,484C 608.062,482.609 604.062,483.442 600.5,486.5C 593.645,484.498 586.645,483.998 579.5,485C 569.848,487.23 560.181,489.397 550.5,491.5C 548.792,491.297 547.459,490.464 546.5,489C 559.793,482.406 573.46,476.906 587.5,472.5 Z M 853.5,489.5 C 855.97,490.36 856.137,491.694 854,493.5C 852.232,492.318 852.065,490.985 853.5,489.5 Z M 568.5,494.5 C 577.034,494.032 584.867,496.032 592,500.5C 598.505,499.961 605.005,500.461 611.5,502C 614.915,503.143 615.249,504.81 612.5,507C 608.5,508.667 604.5,510.333 600.5,512C 581.672,514.749 563.005,518.249 544.5,522.5C 543.5,522.167 542.5,521.833 541.5,521.5C 543.457,519.515 545.79,518.015 548.5,517C 557.046,513.929 565.712,511.262 574.5,509C 578.963,506.7 583.296,504.2 587.5,501.5C 586.833,501.167 586.167,500.833 585.5,500.5C 574.472,501.675 563.472,503.008 552.5,504.5C 552.33,503.178 552.663,502.011 553.5,501C 558.807,499.295 563.807,497.129 568.5,494.5 Z M 817.5,494.5 C 827.09,494.087 835.923,496.421 844,501.5C 844.483,502.448 844.649,503.448 844.5,504.5C 835.605,502.588 826.605,501.588 817.5,501.5C 817.87,505.708 820.204,508.208 824.5,509C 836.382,511.405 847.715,515.405 858.5,521C 857.646,522.022 856.646,522.855 855.5,523.5C 837.365,518.81 819.032,514.977 800.5,512C 784.206,506.275 784.54,502.109 801.5,499.5C 804.011,501.158 806.178,500.825 808,498.5C 812.233,505.561 814.566,504.894 815,496.5C 815.995,495.934 816.828,495.267 817.5,494.5 Z M 851.5,504.5 C 854.157,504.162 856.49,504.829 858.5,506.5C 856.926,507.631 855.259,507.798 853.5,507C 852.244,506.583 851.577,505.75 851.5,504.5 Z M 541.5,505.5 C 544.957,505.667 545.29,506.667 542.5,508.5C 541.614,507.675 541.281,506.675 541.5,505.5 Z M 610.5,523.5 C 613.898,523.18 617.232,523.513 620.5,524.5C 614.317,531.517 607.65,538.017 600.5,544C 598.833,545 597.167,546 595.5,547C 578.61,550.093 561.61,552.426 544.5,554C 539.911,555.474 535.245,556.641 530.5,557.5C 528.128,556.637 528.128,555.471 530.5,554C 554.01,546.773 577.343,539.273 600.5,531.5C 600.408,526.417 602.241,525.083 606,527.5C 607.98,526.685 609.48,525.352 610.5,523.5 Z M 782.5,523.5 C 784.435,524.15 786.435,524.483 788.5,524.5C 788.33,525.822 788.663,526.989 789.5,528C 791.585,528.529 793.418,528.029 795,526.5C 796.52,527.697 797.687,529.197 798.5,531C 799.793,531.49 801.127,531.657 802.5,531.5C 801.408,526.877 803.075,525.044 807.5,526C 808.022,526.561 808.355,527.228 808.5,528C 807.711,529.626 806.711,531.126 805.5,532.5C 807.028,533.861 808.695,535.028 810.5,536C 825.607,540.702 840.774,545.202 856,549.5C 859.341,550.086 862.174,551.586 864.5,554C 863.57,554.991 862.404,555.491 861,555.5C 842.615,552.112 824.115,549.612 805.5,548C 797.401,541.905 789.901,535.072 783,527.5C 782.51,526.207 782.343,524.873 782.5,523.5 Z M 573.5,524.5 C 579.586,523.966 585.252,525.133 590.5,528C 578.466,530.142 566.466,532.809 554.5,536C 551.833,536.667 549.167,536.667 546.5,536C 546.043,535.586 545.709,535.086 545.5,534.5C 554.855,530.939 564.189,527.606 573.5,524.5 Z M 817.5,524.5 C 829.877,525.682 841.544,529.182 852.5,535C 848.833,535.667 845.167,535.667 841.5,535C 833.316,532.602 824.983,530.935 816.5,530C 814.714,529.804 813.381,528.971 812.5,527.5C 814.145,526.304 815.811,525.304 817.5,524.5 Z M 627.5,540.5 C 629.167,540.5 630.833,540.5 632.5,540.5C 628.251,552.006 621.751,562.006 613,570.5C 611.563,577.435 614.063,579.268 620.5,576C 628.438,567.89 637.105,560.723 646.5,554.5C 647.946,555.171 648.612,556.338 648.5,558C 645.794,567.785 643.294,577.618 641,587.5C 639.677,593.196 641.344,594.529 646,591.5C 653.06,581.949 659.893,572.282 666.5,562.5C 668.16,575.423 668.993,588.423 669,601.5C 671.726,604.152 673.726,603.485 675,599.5C 679.267,588.863 683.434,578.196 687.5,567.5C 688.799,568.09 689.632,569.09 690,570.5C 692.294,582.175 695.127,593.675 698.5,605C 700.888,605.865 702.388,605.032 703,602.5C 704.278,593.775 705.945,585.109 708,576.5C 708.412,574.003 709.578,572.003 711.5,570.5C 713.821,573.13 715.654,576.13 717,579.5C 719.358,587.213 722.525,594.546 726.5,601.5C 727.689,602.429 729.022,602.762 730.5,602.5C 731.03,591.839 731.53,581.172 732,570.5C 732.17,568.285 732.837,566.285 734,564.5C 740.298,572.131 745.798,580.298 750.5,589C 749.713,591.099 749.38,593.266 749.5,595.5C 752.518,595.665 755.518,595.498 758.5,595C 759.081,594.107 759.415,593.107 759.5,592C 756.562,579.143 753.562,566.309 750.5,553.5C 753.14,553.954 755.473,555.121 757.5,557C 765.204,564.373 773.204,571.373 781.5,578C 784.212,578.738 786.545,578.071 788.5,576C 791.167,575.333 793.833,575.333 796.5,576C 810.401,579.18 824.401,581.847 838.5,584C 840.286,584.196 841.619,585.029 842.5,586.5C 840.577,587.308 838.577,587.808 836.5,588C 815.643,588.43 794.976,589.763 774.5,592C 777.167,592.667 777.167,593.333 774.5,594C 791.869,596.874 809.202,599.874 826.5,603C 823.624,605.437 820.29,606.77 816.5,607C 799.986,608.087 783.653,610.254 767.5,613.5C 767.36,615.124 768.027,616.29 769.5,617C 779.485,617.888 789.485,618.555 799.5,619C 810.066,620.127 810.066,621.793 799.5,624C 788.461,626.177 777.461,628.51 766.5,631C 764.777,631.523 763.444,632.523 762.5,634C 764.815,635.986 766.148,638.486 766.5,641.5C 745.18,647.22 723.513,650.887 701.5,652.5C 687.856,651.002 674.189,649.502 660.5,648C 648.278,646.363 636.611,643.03 625.5,638C 629.25,637.74 632.916,637.073 636.5,636C 637.337,634.989 637.67,633.822 637.5,632.5C 625.115,629.985 612.782,627.152 600.5,624C 599.027,623.29 598.36,622.124 598.5,620.5C 609.019,619.248 619.352,617.248 629.5,614.5C 626.293,613.03 622.959,611.863 619.5,611C 605.856,609.42 592.19,608.086 578.5,607C 575.648,606.731 572.982,605.897 570.5,604.5C 569.479,603.998 569.312,603.332 570,602.5C 585.414,599.885 600.914,597.551 616.5,595.5C 616.67,594.178 616.337,593.011 615.5,592C 590.868,588.187 566.202,587.687 541.5,590.5C 541.281,589.325 541.614,588.325 542.5,587.5C 556.207,583.47 570.207,580.97 584.5,580C 591.762,578.018 599.095,576.351 606.5,575C 607.554,573.612 607.72,572.112 607,570.5C 584.64,569.441 562.307,570.441 540,573.5C 538.5,573.333 537,573.167 535.5,573C 534.167,572.333 534.167,571.667 535.5,571C 542.321,568.168 549.321,565.834 556.5,564C 569.164,561.334 581.831,558.667 594.5,556C 599.169,555.112 603.503,553.445 607.5,551C 609.833,550.667 612.167,550.333 614.5,550C 618.431,546.229 622.764,543.062 627.5,540.5 Z M 767.5,540.5 C 771.781,541.136 775.781,542.636 779.5,545C 780.87,546.441 781.87,548.108 782.5,550C 807.35,556.462 832.35,562.462 857.5,568C 861.574,570.012 861.407,571.512 857,572.5C 833.216,570.323 809.383,568.823 785.5,568C 784.234,567.691 783.067,567.191 782,566.5C 777.333,559.167 772.667,551.833 768,544.5C 767.51,543.207 767.343,541.873 767.5,540.5 Z M 866.5,554.5 C 867.833,554.5 869.167,554.5 870.5,554.5C 870.5,555.5 870.5,556.5 870.5,557.5C 869.167,557.5 867.833,557.5 866.5,557.5C 866.5,556.5 866.5,555.5 866.5,554.5 Z M 849.5,585.5 C 852.741,585.878 855.741,586.878 858.5,588.5C 855.052,589.705 851.718,589.372 848.5,587.5C 848.863,586.817 849.196,586.15 849.5,585.5 Z M 646.5,656.5 C 675.878,663.15 705.545,664.317 735.5,660C 740.077,659.348 744.577,658.515 749,657.5C 749.167,657.833 749.333,658.167 749.5,658.5C 747.543,660.485 745.21,661.985 742.5,663C 711.672,670.87 681.005,670.203 650.5,661C 648.249,660.252 646.916,658.752 646.5,656.5 Z M 698.5,710.5 C 705.469,711.235 711.303,714.235 716,719.5C 716.333,722.167 716.667,724.833 717,727.5C 719.087,728.794 721.254,729.961 723.5,731C 724.833,732.333 724.833,733.667 723.5,735C 721.423,735.192 719.423,735.692 717.5,736.5C 720.833,739.5 724.167,742.5 727.5,745.5C 725.5,747.167 723.5,748.833 721.5,750.5C 725.855,752.606 730.188,754.773 734.5,757C 734.043,757.414 733.709,757.914 733.5,758.5C 730.095,759.289 726.761,760.289 723.5,761.5C 727.686,763.457 731.686,765.79 735.5,768.5C 731.609,769.799 727.942,771.466 724.5,773.5C 724.709,774.086 725.043,774.586 725.5,775C 730.454,775.763 735.12,777.263 739.5,779.5C 735.53,781.56 731.53,783.726 727.5,786C 731.319,787.718 735.319,789.051 739.5,790C 742.264,792.699 741.597,794.366 737.5,795C 732.426,795.426 727.426,796.259 722.5,797.5C 726.465,799.299 729.798,801.799 732.5,805C 728.967,807.935 724.967,810.102 720.5,811.5C 724.961,813.36 729.628,814.527 734.5,815C 735.791,817.09 735.124,818.424 732.5,819C 727.233,820.144 722.233,821.978 717.5,824.5C 717.709,825.086 718.043,825.586 718.5,826C 721.833,826.333 725.167,826.667 728.5,827C 729.167,827.667 729.833,828.333 730.5,829C 725.874,831.534 721.207,833.867 716.5,836C 719.595,837.978 722.928,839.478 726.5,840.5C 721.98,843.929 716.98,846.595 711.5,848.5C 711.167,849 710.833,849.5 710.5,850C 711.613,851.394 712.947,852.561 714.5,853.5C 704.488,861.402 694.488,861.402 684.5,853.5C 685.648,851.851 686.981,850.351 688.5,849C 686.112,847.139 683.446,845.806 680.5,845C 679.01,844.255 678.01,843.088 677.5,841.5C 679.05,839.378 681.05,837.711 683.5,836.5C 679.855,833.673 675.855,831.34 671.5,829.5C 672.09,828.201 673.09,827.368 674.5,827C 676.878,826.489 679.212,825.822 681.5,825C 676.3,821.399 670.634,818.899 664.5,817.5C 664.977,816.522 665.643,815.689 666.5,815C 669.377,814.044 672.044,812.711 674.5,811C 670.301,809.294 666.301,807.294 662.5,805C 662.82,803.347 663.82,802.347 665.5,802C 669.751,801.274 673.751,799.941 677.5,798C 673.01,796.544 668.344,795.544 663.5,795C 660.294,794.375 659.294,792.709 660.5,790C 664.632,788.1 668.966,787.267 673.5,787.5C 672.922,783.688 670.589,782.021 666.5,782.5C 664.9,782.551 663.4,782.884 662,783.5C 660.318,782.135 660.151,780.635 661.5,779C 664.363,777.601 667.363,776.601 670.5,776C 672.305,775.028 673.972,773.861 675.5,772.5C 672.085,771.289 668.752,769.956 665.5,768.5C 666.364,766.803 667.697,765.637 669.5,765C 681.655,762.221 681.322,760.221 668.5,759C 667.273,757.413 667.606,756.079 669.5,755C 672.5,753.833 675.5,752.667 678.5,751.5C 679.386,750.675 679.719,749.675 679.5,748.5C 676.833,748.167 674.167,747.833 671.5,747.5C 671.33,746.178 671.663,745.011 672.5,744C 675.603,742.561 678.436,740.727 681,738.5C 681.667,737.5 681.667,736.5 681,735.5C 679.513,734.845 678.347,733.845 677.5,732.5C 680.5,730.333 683.5,728.167 686.5,726C 684.919,725.293 683.419,724.46 682,723.5C 681.333,722.5 681.333,721.5 682,720.5C 686.775,715.708 692.275,712.374 698.5,710.5 Z M 688.5,865.5 C 695.011,864.182 701.678,864.182 708.5,865.5C 706.932,868.119 704.598,869.452 701.5,869.5C 696.815,869.167 692.481,867.834 688.5,865.5 Z M 765.5,922.5 C 770.444,924.077 770.777,926.411 766.5,929.5C 760.778,934.029 754.445,937.529 747.5,940C 748.263,940.944 749.263,941.444 750.5,941.5C 762.689,938.722 773.689,933.555 783.5,926C 785.167,925.333 786.833,925.333 788.5,926C 789.517,927.049 789.684,928.216 789,929.5C 787.5,931 786,932.5 784.5,934C 775.591,939.3 766.258,943.634 756.5,947C 764.898,946.876 773.231,946.21 781.5,945C 782.458,946.147 782.125,947.147 780.5,948C 776.047,949.814 771.714,951.814 767.5,954C 774.563,954.243 781.563,953.576 788.5,952C 795.53,949.934 802.53,947.768 809.5,945.5C 810.167,945.833 810.833,946.167 811.5,946.5C 810.395,947.892 809.061,949.059 807.5,950C 799.024,953.075 790.691,956.408 782.5,960C 790.121,959.146 797.788,958.813 805.5,959C 806.833,960 806.833,961 805.5,962C 803.5,962.833 801.5,963.667 799.5,964.5C 801,964.833 802.5,965.167 804,965.5C 810.822,964.573 817.655,963.74 824.5,963C 832.167,960 839.833,957 847.5,954C 851.844,951.829 855.844,949.163 859.5,946C 860.793,945.51 862.127,945.343 863.5,945.5C 862.863,949.268 860.863,952.101 857.5,954C 844.111,961.861 829.777,967.194 814.5,970C 812.221,970.473 810.221,971.473 808.5,973C 823.864,972.884 838.864,970.384 853.5,965.5C 856.185,965.708 856.851,966.875 855.5,969C 846.618,972.27 837.618,975.27 828.5,978C 833.833,978.667 839.167,978.667 844.5,978C 852.018,975.781 859.685,974.114 867.5,973C 878.029,969.736 887.362,964.403 895.5,957C 899.088,956.389 900.254,957.889 899,961.5C 893.937,965.949 888.437,969.783 882.5,973C 871.435,976.8 860.435,980.8 849.5,985C 866.244,984.117 882.578,980.784 898.5,975C 903.011,971.819 907.511,968.652 912,965.5C 914.188,966.059 914.854,967.393 914,969.5C 909.814,974.674 904.647,978.508 898.5,981C 885.722,986.703 872.389,991.036 858.5,994C 858.167,994.333 857.833,994.667 857.5,995C 872.667,993.527 887.667,990.861 902.5,987C 908.112,984.861 913.446,982.194 918.5,979C 920.436,978.187 922.436,977.687 924.5,977.5C 924.822,979.722 924.155,981.556 922.5,983C 909.437,990.689 895.437,996.023 880.5,999C 814.738,1011.17 748.405,1016.17 681.5,1014C 627.426,1013.72 573.76,1009.05 520.5,1000C 510.284,996.595 499.951,993.595 489.5,991C 484.036,989.186 479.536,986.02 476,981.5C 475.217,979.681 475.717,978.348 477.5,977.5C 498.582,988.139 520.916,993.972 544.5,995C 529.124,991.208 514.124,986.208 499.5,980C 494.367,977.346 489.867,973.846 486,969.5C 485.51,968.207 485.343,966.873 485.5,965.5C 487.199,965.34 488.866,965.506 490.5,966C 496.424,971.798 503.424,975.798 511.5,978C 519.505,980.001 527.505,982.001 535.5,984C 540.787,985.262 546.12,985.596 551.5,985C 536.544,980.904 522.21,975.237 508.5,968C 504.35,965.486 501.85,961.986 501,957.5C 502.726,956.424 504.559,956.257 506.5,957C 508.167,960 510.5,962.333 513.5,964C 536.463,974.074 560.463,979.741 585.5,981C 584.833,980.333 584.167,979.667 583.5,979C 561.022,976.554 540.356,969.221 521.5,957C 519.919,955.172 518.585,953.172 517.5,951C 518.891,949.98 520.391,949.147 522,948.5C 526.32,955.088 532.153,959.921 539.5,963C 554.218,967.346 568.884,971.013 583.5,974C 584.833,973.333 586.167,972.667 587.5,972C 571.738,967.189 556.405,961.189 541.5,954C 537.632,951.838 536.132,948.672 537,944.5C 538.507,943.465 540.007,943.632 541.5,945C 544.586,948.757 548.252,951.757 552.5,954C 560.883,956.846 569.217,959.846 577.5,963C 586.757,964.859 596.091,965.526 605.5,965C 602.45,964.321 599.45,963.488 596.5,962.5C 595.269,961.349 595.269,960.183 596.5,959C 605.13,959.989 613.797,960.656 622.5,961C 610.511,956.336 598.511,951.67 586.5,947C 585.167,946 585.167,945 586.5,944C 600.634,949.74 615.468,953.24 631,954.5C 637.718,954.007 637.218,953.174 629.5,952C 628.313,950.981 627.313,949.814 626.5,948.5C 632.5,947.833 638.5,947.167 644.5,946.5C 634.647,943.6 625.314,939.434 616.5,934C 615,932.5 613.5,931 612,929.5C 611.316,928.216 611.483,927.049 612.5,926C 614.167,925.333 615.833,925.333 617.5,926C 628.958,936.041 642.292,941.375 657.5,942C 649.707,938.27 642.041,934.27 634.5,930C 632.393,928.736 631.393,926.903 631.5,924.5C 637.7,923.376 643.7,924.209 649.5,927C 659.5,932 669.5,937 679.5,942C 692.167,942.667 704.833,942.667 717.5,942C 728.772,936.699 740.105,931.366 751.5,926C 756.184,924.347 760.85,923.181 765.5,922.5 Z M 720.5,928.5 C 721.873,928.343 723.207,928.51 724.5,929C 713.237,939.319 700.571,941.653 686.5,936C 683.307,934.974 681.974,932.808 682.5,929.5C 688.466,930.099 694.466,930.433 700.5,930.5C 707.411,930.724 714.078,930.058 720.5,928.5 Z M 592.5,929.5 C 595.582,931.075 598.249,933.242 600.5,936C 602.025,937.009 603.692,937.509 605.5,937.5C 605.5,938.833 605.5,940.167 605.5,941.5C 601.286,940.059 597.286,938.059 593.5,935.5C 591.454,933.719 591.12,931.719 592.5,929.5 Z M 805.5,929.5 C 808.076,929.722 808.91,931.055 808,933.5C 804.427,937.04 800.261,939.706 795.5,941.5C 794.479,940.998 794.312,940.332 795,939.5C 799.028,936.637 802.528,933.304 805.5,929.5 Z M 572.5,934.5 C 575.263,934.744 577.429,936.077 579,938.5C 579.563,939.725 579.23,940.725 578,941.5C 575.532,940.896 573.532,939.562 572,937.5C 571.53,936.423 571.697,935.423 572.5,934.5 Z M 823.5,935.5 C 824.833,935.5 826.167,935.5 827.5,935.5C 827.33,940.175 824.83,942.842 820,943.5C 818.941,943.37 818.108,942.87 817.5,942C 819.706,939.963 821.706,937.797 823.5,935.5 Z M 555.5,939.5 C 558.944,941.442 561.944,943.942 564.5,947C 566.778,947.986 569.111,948.82 571.5,949.5C 572.44,952.052 571.44,952.886 568.5,952C 563.078,949.29 558.412,945.623 554.5,941C 555.056,940.617 555.389,940.117 555.5,939.5 Z M 841.5,940.5 C 842.995,940.415 843.995,941.081 844.5,942.5C 838.315,948.247 837.315,947.58 841.5,940.5 Z M 831.5,948.5 C 834.151,949.725 833.984,950.725 831,951.5C 830.5,951.167 830,950.833 829.5,950.5C 830.243,949.818 830.909,949.151 831.5,948.5 Z M 877.5,950.5 C 879.635,950.147 880.968,950.98 881.5,953C 876.935,959.22 870.935,963.553 863.5,966C 861.741,966.798 860.074,966.631 858.5,965.5C 858.977,964.522 859.643,963.689 860.5,963C 867.736,960.74 873.402,956.573 877.5,950.5 Z"/></g>
<g><path style="opacity:0.711" fill="#3f3f3f" d="M 753.5,312.5 C 762.724,311.551 771.89,312.551 781,315.5C 781.49,316.793 781.657,318.127 781.5,319.5C 771.977,317.929 762.643,315.595 753.5,312.5 Z"/></g>
<g><path style="opacity:0.681" fill="#3f3f3f" d="M 778.5,338.5 C 782.827,339.551 787.16,340.718 791.5,342C 791.957,342.414 792.291,342.914 792.5,343.5C 788.135,344.702 783.802,344.535 779.5,343C 777.964,341.532 777.63,340.032 778.5,338.5 Z"/></g>
<g><path style="opacity:0.684" fill="#3f3f3f" d="M 599.5,421.5 C 602.167,421.5 604.833,421.5 607.5,421.5C 607.5,422.5 607.5,423.5 607.5,424.5C 604.102,424.82 600.768,424.487 597.5,423.5C 598.243,422.818 598.909,422.151 599.5,421.5 Z"/></g>
<g><path style="opacity:0.915" fill="#3f3f3f" d="M 692.5,477.5 C 706.587,474.092 712.42,479.425 710,493.5C 704.28,499.358 697.947,500.024 691,495.5C 687.494,489.2 687.994,483.2 692.5,477.5 Z"/></g>
<g><path style="opacity:0.925" fill="#3f3f3f" d="M 385.5,552.5 C 400.568,550.078 408.735,556.411 410,571.5C 410.667,574.167 410.667,576.833 410,579.5C 408.476,589.263 406.476,598.929 404,608.5C 400.975,625.542 400.975,642.542 404,659.5C 408.185,662.595 412.185,665.928 416,669.5C 428.118,690.618 444.618,707.451 465.5,720C 471.5,720.333 477.5,720.667 483.5,721C 495.506,723.335 507.506,725.669 519.5,728C 525.287,730.394 530.954,733.06 536.5,736C 540.092,738.921 542.925,742.421 545,746.5C 548.696,762.255 554.363,777.255 562,791.5C 569.022,801.193 577.855,808.693 588.5,814C 592.371,816.86 595.038,820.526 596.5,825C 596.097,826.473 595.43,827.806 594.5,829C 586.833,829.333 579.167,829.667 571.5,830C 564.137,845.733 553.471,858.733 539.5,869C 531.024,872.992 522.357,876.492 513.5,879.5C 511.49,888.686 507.49,896.853 501.5,904C 494.93,909.968 487.264,912.301 478.5,911C 476.129,909.594 474.462,907.594 473.5,905C 472.234,904.691 471.067,904.191 470,903.5C 457.161,911.071 445.161,910.071 434,900.5C 433.501,896.179 433.334,891.846 433.5,887.5C 419.668,888.955 406.668,886.455 394.5,880C 388.614,874.928 388.114,869.428 393,863.5C 393.494,861.866 393.66,860.199 393.5,858.5C 376.197,858.017 360.197,853.184 345.5,844C 334.166,836.035 331.499,825.868 337.5,813.5C 339.657,811.588 341.991,809.921 344.5,808.5C 338.286,802.791 331.62,797.624 324.5,793C 319.565,788.068 315.399,782.568 312,776.5C 309.627,770.482 310.294,764.815 314,759.5C 317.253,757.457 320.42,755.29 323.5,753C 319.033,747.532 314.2,742.365 309,737.5C 297.016,723.896 289.85,708.063 287.5,690C 287.368,683.596 289.701,678.263 294.5,674C 300.142,670.562 305.642,670.729 311,674.5C 312.5,674.333 313.333,673.5 313.5,672C 309.604,663.701 306.104,655.201 303,646.5C 300.596,634.938 299.596,623.271 300,611.5C 301.211,605.868 303.211,600.534 306,595.5C 313.739,590.424 321.573,590.257 329.5,595C 333.699,599.899 337.532,605.066 341,610.5C 341.718,611.451 342.551,611.617 343.5,611C 345.778,597.386 350.278,584.553 357,572.5C 364.61,562.961 374.11,556.295 385.5,552.5 Z M 393.5,560.5 C 400.207,561.408 403.874,565.242 404.5,572C 402.055,582.33 398.221,592.163 393,601.5C 392.118,605.531 392.951,609.198 395.5,612.5C 392.606,619.288 389.44,625.955 386,632.5C 383.978,622.536 384.312,612.536 387,602.5C 389.964,593.274 393.131,584.108 396.5,575C 396.15,573.743 395.483,573.409 394.5,574C 391.892,578.113 388.559,581.279 384.5,583.5C 384.149,577.738 384.649,572.072 386,566.5C 388.114,563.879 390.614,561.879 393.5,560.5 Z M 367.5,584.5 C 368.496,584.414 369.329,584.748 370,585.5C 370.433,590.247 371.933,594.581 374.5,598.5C 375.226,594.25 376.559,590.25 378.5,586.5C 380.825,587.652 382.158,589.485 382.5,592C 379.923,600.398 377.756,608.898 376,617.5C 375.804,619.286 374.971,620.619 373.5,621.5C 371.282,620.076 369.782,618.076 369,615.5C 368.133,610.232 366.466,605.232 364,600.5C 362.622,594.53 363.789,589.196 367.5,584.5 Z M 316.5,597.5 C 322.477,596.482 326.477,598.815 328.5,604.5C 326.02,610.165 324.853,616.165 325,622.5C 323.989,623.337 322.822,623.67 321.5,623.5C 318.003,617.164 315.003,610.497 312.5,603.5C 313.467,601.21 314.8,599.21 316.5,597.5 Z M 329.5,610.5 C 331.371,610.859 332.871,611.859 334,613.5C 340.195,627.752 346.195,642.085 352,656.5C 361.182,670.557 369.515,684.89 377,699.5C 364.305,688.788 353.972,676.121 346,661.5C 339.083,645.468 333.25,629.135 328.5,612.5C 328.863,611.817 329.196,611.15 329.5,610.5 Z M 322.5,628.5 C 325.808,627.974 327.974,629.307 329,632.5C 329.695,634.722 330.528,636.889 331.5,639C 330.403,642.006 331.236,644.506 334,646.5C 336.743,655.061 340.076,663.395 344,671.5C 344.781,672.944 344.614,674.277 343.5,675.5C 336.732,673.238 333.232,668.571 333,661.5C 327.291,655.46 321.957,649.126 317,642.5C 316.18,640.272 316.513,638.272 318,636.5C 320.428,637.63 322.595,639.13 324.5,641C 325.833,641.667 327.167,641.667 328.5,641C 323.842,637.86 321.842,633.693 322.5,628.5 Z M 371.5,629.5 C 372.675,629.281 373.675,629.614 374.5,630.5C 372.948,631.798 371.948,631.465 371.5,629.5 Z M 372.5,639.5 C 374.776,639.756 375.943,641.09 376,643.5C 377.625,650.71 379.458,657.877 381.5,665C 380.482,667.995 378.816,668.328 376.5,666C 371.622,660.791 367.122,655.291 363,649.5C 362.51,648.207 362.343,646.873 362.5,645.5C 366.101,646.463 369.767,647.13 373.5,647.5C 373.414,645.323 372.747,643.323 371.5,641.5C 371.863,640.817 372.196,640.15 372.5,639.5 Z M 389.5,648.5 C 391.144,648.286 392.644,648.62 394,649.5C 394.296,652.706 394.796,655.872 395.5,659C 394.591,661.319 392.925,661.986 390.5,661C 387.121,656.949 386.788,652.782 389.5,648.5 Z M 402.5,667.5 C 406.842,667.997 408.675,670.33 408,674.5C 405.588,677.362 404.921,680.695 406,684.5C 408.179,689.522 410.346,694.522 412.5,699.5C 409.231,699.116 406.397,697.782 404,695.5C 403.171,689.509 400.505,684.509 396,680.5C 394.056,673.98 396.223,669.646 402.5,667.5 Z M 380.5,669.5 C 383.238,668.965 385.072,669.965 386,672.5C 386.791,678.402 384.958,679.569 380.5,676C 377.929,673.744 377.929,671.578 380.5,669.5 Z M 303.5,678.5 C 306.258,679.377 308.924,680.544 311.5,682C 321.137,690.636 330.47,699.636 339.5,709C 350,716.833 360.5,724.667 371,732.5C 371.749,733.635 371.583,734.635 370.5,735.5C 361.603,732.051 353.269,727.551 345.5,722C 332.899,710.733 321.066,698.899 310,686.5C 308.418,687.295 308.251,688.462 309.5,690C 309.097,691.473 308.43,692.806 307.5,694C 315.05,698.55 320.884,704.717 325,712.5C 330.558,716.39 335.058,721.223 338.5,727C 337.902,728.301 336.902,729.135 335.5,729.5C 333.827,727.914 331.827,727.247 329.5,727.5C 329.421,726.07 329.754,724.736 330.5,723.5C 328.971,721.812 327.137,720.479 325,719.5C 324.51,718.207 324.343,716.873 324.5,715.5C 317.78,714.654 311.947,711.988 307,707.5C 308.001,703.965 307.501,700.632 305.5,697.5C 305.931,696.707 306.265,695.873 306.5,695C 301.943,692.273 298.609,688.44 296.5,683.5C 298.028,680.58 300.361,678.914 303.5,678.5 Z M 342.5,678.5 C 346.432,678.26 349.266,679.927 351,683.5C 353.753,688.008 356.753,692.341 360,696.5C 360.774,698.403 360.44,700.07 359,701.5C 352.015,699.091 345.515,695.758 339.5,691.5C 338.061,689.657 338.228,687.99 340,686.5C 341.993,688.378 344.159,688.712 346.5,687.5C 344.588,685.343 342.921,683.009 341.5,680.5C 341.863,679.817 342.196,679.15 342.5,678.5 Z M 375.5,678.5 C 379.672,678.942 383.339,680.442 386.5,683C 387.132,687.434 388.132,691.767 389.5,696C 389.167,696.833 388.833,697.667 388.5,698.5C 383.297,693.763 378.797,688.43 375,682.5C 374.421,681.072 374.588,679.738 375.5,678.5 Z M 409.5,678.5 C 410.822,678.33 411.989,678.663 413,679.5C 418.888,691.4 427.055,701.566 437.5,710C 442.286,713.118 446.786,716.618 451,720.5C 451.345,722.201 450.678,723.534 449,724.5C 434.333,715.167 422.333,703.167 413,688.5C 411.526,685.244 410.36,681.911 409.5,678.5 Z M 411.5,702.5 C 412.552,702.351 413.552,702.517 414.5,703C 423.202,713.37 432.869,722.703 443.5,731C 449.392,734.633 455.725,737.3 462.5,739C 467.896,743.727 472.563,749.061 476.5,755C 476.095,755.945 475.428,756.612 474.5,757C 466.112,758.757 457.778,758.424 449.5,756C 448.483,754.951 448.316,753.784 449,752.5C 452.401,750.809 455.901,749.309 459.5,748C 460.337,746.989 460.67,745.822 460.5,744.5C 451.189,745.521 441.856,745.687 432.5,745C 429.466,743.809 427.799,741.642 427.5,738.5C 433.205,738.193 438.871,737.527 444.5,736.5C 441.568,735.183 438.568,734.016 435.5,733C 434.5,730.667 432.833,729 430.5,728C 423.783,725.808 417.449,722.808 411.5,719C 405.286,713.074 406.286,710.907 414.5,712.5C 414.731,709.215 413.397,706.715 410.5,705C 411.252,704.329 411.586,703.496 411.5,702.5 Z M 370.5,713.5 C 372.199,713.34 373.866,713.506 375.5,714C 378.833,716.667 382.167,719.333 385.5,722C 387.741,723.739 389.408,725.906 390.5,728.5C 388.534,729.372 386.534,729.205 384.5,728C 380.5,726 376.5,724 372.5,722C 368.37,719.807 367.703,716.974 370.5,713.5 Z M 393.5,713.5 C 398.373,714.336 400.373,717.002 399.5,721.5C 397.082,720.543 394.916,719.209 393,717.5C 392.421,716.072 392.588,714.738 393.5,713.5 Z M 455.5,724.5 C 457.346,724.222 458.68,724.889 459.5,726.5C 457.813,727.568 456.146,727.401 454.5,726C 455.056,725.617 455.389,725.117 455.5,724.5 Z M 474.5,728.5 C 477.673,728.401 480.673,729.068 483.5,730.5C 482.617,731.548 481.95,732.715 481.5,734C 483.131,735.926 484.965,737.76 487,739.5C 487.483,740.448 487.649,741.448 487.5,742.5C 481.925,742.761 477.092,741.094 473,737.5C 471.439,734.294 471.939,731.294 474.5,728.5 Z M 341.5,729.5 C 347.493,733.169 353.159,737.336 358.5,742C 366.631,746.476 374.965,750.476 383.5,754C 387.19,756.169 388.857,759.336 388.5,763.5C 383.706,764.373 381.373,762.373 381.5,757.5C 376.537,758.254 371.537,758.587 366.5,758.5C 366.815,756.774 366.981,755.107 367,753.5C 364.749,751.623 362.249,750.123 359.5,749C 358.257,747.846 357.257,746.512 356.5,745C 349.754,743.647 343.087,741.98 336.5,740C 333.751,738.877 331.251,737.377 329,735.5C 328.544,734.256 329.044,733.423 330.5,733C 333.877,732.548 337.211,731.882 340.5,731C 341.056,730.617 341.389,730.117 341.5,729.5 Z M 373.5,735.5 C 376.588,735.377 379.255,736.377 381.5,738.5C 378.374,739.419 375.374,738.919 372.5,737C 373.056,736.617 373.389,736.117 373.5,735.5 Z M 503.5,735.5 C 506.482,735.104 509.149,735.771 511.5,737.5C 511.192,738.308 510.692,738.975 510,739.5C 508.215,738.76 506.382,738.093 504.5,737.5C 503.702,737.043 503.369,736.376 503.5,735.5 Z M 396.5,736.5 C 401.757,738.462 406.757,740.962 411.5,744C 416.889,748.389 422.556,752.389 428.5,756C 436.327,758.884 443.994,762.051 451.5,765.5C 450.652,766.991 449.319,767.658 447.5,767.5C 438.308,765.824 429.641,762.658 421.5,758C 414.989,753.485 408.489,748.985 402,744.5C 401.5,744.833 401,745.167 400.5,745.5C 402.951,748.4 404.285,751.734 404.5,755.5C 394.622,754.795 390.789,749.462 393,739.5C 394.145,738.364 395.312,737.364 396.5,736.5 Z M 491.5,743.5 C 492.5,743.5 493.5,743.5 494.5,743.5C 494.426,747.541 493.093,748.208 490.5,745.5C 490.863,744.817 491.196,744.15 491.5,743.5 Z M 512.5,748.5 C 522.536,748.789 531.536,751.956 539.5,758C 541,760.167 540.5,761.667 538,762.5C 534.934,761.287 531.767,760.453 528.5,760C 521.77,759.83 515.103,759.163 508.5,758C 508.043,757.586 507.709,757.086 507.5,756.5C 508.677,753.469 510.344,750.802 512.5,748.5 Z M 409.5,757.5 C 412.324,757.989 413.657,759.656 413.5,762.5C 408.311,763.021 406.978,761.355 409.5,757.5 Z M 324.5,761.5 C 329.582,761.972 334.248,763.639 338.5,766.5C 336.988,767.249 335.988,768.416 335.5,770C 336.233,771.766 336.567,773.599 336.5,775.5C 330.861,776.616 326.028,774.95 322,770.5C 321.163,768.649 320.329,766.816 319.5,765C 320.955,763.374 322.622,762.208 324.5,761.5 Z M 489.5,764.5 C 496.258,765.552 502.924,767.052 509.5,769C 510.337,770.011 510.67,771.178 510.5,772.5C 505.404,772.571 500.404,771.905 495.5,770.5C 490.86,775.089 487.193,774.423 484.5,768.5C 485.707,766.459 487.374,765.126 489.5,764.5 Z M 415.5,765.5 C 422.856,765.838 429.189,768.505 434.5,773.5C 431.018,776.675 427.351,777.008 423.5,774.5C 417.823,773.721 412.156,772.888 406.5,772C 405.594,770.301 405.261,768.467 405.5,766.5C 407.696,766.59 409.863,766.923 412,767.5C 413.699,767.613 414.866,766.947 415.5,765.5 Z M 344.5,767.5 C 346.167,767.5 347.833,767.5 349.5,767.5C 349.5,768.5 349.5,769.5 349.5,770.5C 346.715,771.084 345.048,770.084 344.5,767.5 Z M 358.5,769.5 C 362.272,770.225 365.939,771.391 369.5,773C 378.925,773.604 388.258,774.604 397.5,776C 386.617,777.849 375.617,777.849 364.5,776C 361.583,774.472 358.583,773.139 355.5,772C 356.571,771.148 357.571,770.315 358.5,769.5 Z M 439.5,773.5 C 446.819,775.273 453.819,777.606 460.5,780.5C 458.511,783.166 455.844,784.833 452.5,785.5C 450.157,784.077 447.657,783.077 445,782.5C 437.554,783.79 430.054,784.457 422.5,784.5C 422.286,782.856 422.62,781.356 423.5,780C 429.398,778.876 434.732,776.709 439.5,773.5 Z M 341.5,774.5 C 345.161,774.35 346.161,775.85 344.5,779C 343.552,779.483 342.552,779.649 341.5,779.5C 341.5,777.833 341.5,776.167 341.5,774.5 Z M 494.5,776.5 C 497.183,776.227 498.683,777.227 499,779.5C 495.054,781.36 493.554,780.36 494.5,776.5 Z M 464.5,778.5 C 470.232,778.283 475.899,778.783 481.5,780C 484.418,783.795 483.418,786.128 478.5,787C 472.427,787.875 466.427,789.041 460.5,790.5C 461.35,786.325 462.683,782.325 464.5,778.5 Z M 516.5,778.5 C 524.251,779.06 531.918,780.226 539.5,782C 543.575,784.072 543.242,785.572 538.5,786.5C 530.215,785.696 521.882,785.196 513.5,785C 511.745,781.495 512.745,779.328 516.5,778.5 Z M 355.5,780.5 C 367.325,782.224 378.992,784.558 390.5,787.5C 388.654,789.592 386.321,790.926 383.5,791.5C 380.441,790.314 377.275,789.647 374,789.5C 363.892,791.26 353.725,791.76 343.5,791C 336.868,788.724 336.868,786.39 343.5,784C 346.833,783.667 350.167,783.333 353.5,783C 354.381,782.292 355.047,781.458 355.5,780.5 Z M 402.5,786.5 C 405.91,786.457 409.243,786.957 412.5,788C 413.022,788.561 413.355,789.228 413.5,790C 411.273,791.706 409.106,793.54 407,795.5C 405.63,800.567 402.463,802.733 397.5,802C 395.963,800.89 395.297,799.39 395.5,797.5C 391.5,798.167 387.5,798.833 383.5,799.5C 383.5,798.5 383.5,797.5 383.5,796.5C 386.166,796.067 388.832,795.567 391.5,795C 395.067,791.92 398.733,789.087 402.5,786.5 Z M 484.5,795.5 C 486.465,795.948 486.798,796.948 485.5,798.5C 472.532,805.909 458.532,809.576 443.5,809.5C 436.673,808.964 430.007,807.63 423.5,805.5C 422.833,805.833 422.167,806.167 421.5,806.5C 423.892,807.892 425.559,809.892 426.5,812.5C 426.5,814.5 425.5,815.5 423.5,815.5C 415.841,813.966 412.508,809.466 413.5,802C 416.107,801.182 418.774,800.682 421.5,800.5C 434.114,803.197 446.78,803.697 459.5,802C 467.983,799.885 476.316,797.719 484.5,795.5 Z M 513.5,795.5 C 521.823,796.074 530.156,796.574 538.5,797C 543.172,797.838 547.505,799.504 551.5,802C 547.702,802.772 543.869,803.272 540,803.5C 532.131,802.638 524.298,801.638 516.5,800.5C 516.826,802.661 517.826,804.494 519.5,806C 518.646,807.022 517.646,807.855 516.5,808.5C 513.126,808.203 510.293,806.87 508,804.5C 507.305,799.882 509.138,796.882 513.5,795.5 Z M 494.5,806.5 C 500.404,807.135 502.404,810.302 500.5,816C 499.391,816.638 498.225,817.138 497,817.5C 495.333,816.167 493.667,814.833 492,813.5C 488.178,816.653 484.345,819.82 480.5,823C 478.702,824.505 476.868,824.672 475,823.5C 474.223,820.571 474.39,817.737 475.5,815C 481.06,812.721 486.726,810.721 492.5,809C 493.381,808.292 494.047,807.458 494.5,806.5 Z M 525.5,807.5 C 548.884,809.835 549.217,813.169 526.5,817.5C 525.793,814.214 525.46,810.881 525.5,807.5 Z M 402.5,809.5 C 406.727,810.227 409.06,812.727 409.5,817C 408.284,818.74 406.618,819.74 404.5,820C 389.228,821.81 373.895,822.976 358.5,823.5C 361.872,825.43 365.539,826.596 369.5,827C 376.475,827.921 383.475,828.588 390.5,829C 393.033,830.916 393.033,832.916 390.5,835C 386.167,835.333 381.833,835.667 377.5,836C 373.396,837.701 369.229,839.201 365,840.5C 363.393,840.231 362.226,839.397 361.5,838C 363.219,836.13 364.219,833.963 364.5,831.5C 361.654,830.822 359.154,829.488 357,827.5C 353.685,828.628 350.351,829.628 347,830.5C 341.223,827.706 340.057,823.54 343.5,818C 345.715,816.956 348.048,816.29 350.5,816C 362.819,815.073 375.152,814.406 387.5,814C 392.756,812.942 397.756,811.442 402.5,809.5 Z M 549.5,809.5 C 557.337,810.139 565.003,811.639 572.5,814C 573.38,815.356 573.714,816.856 573.5,818.5C 568.519,819.332 563.519,819.498 558.5,819C 554.833,816.667 551.167,814.333 547.5,812C 548.381,811.292 549.047,810.458 549.5,809.5 Z M 446.5,816.5 C 450.712,816.981 454.712,818.148 458.5,820C 453.279,824.314 447.279,825.98 440.5,825C 438.842,824.275 438.342,823.108 439,821.5C 441.426,819.548 443.926,817.881 446.5,816.5 Z M 404.5,827.5 C 410.916,827.553 411.916,829.72 407.5,834C 402.004,837.916 396.337,841.582 390.5,845C 388.527,845.495 386.527,845.662 384.5,845.5C 384.33,844.178 384.663,843.011 385.5,842C 391.732,839.102 396.732,834.769 400.5,829C 402.058,828.79 403.391,828.29 404.5,827.5 Z M 520.5,827.5 C 524.35,827.701 525.35,829.534 523.5,833C 519.537,833.118 518.537,831.284 520.5,827.5 Z M 422.5,829.5 C 426.813,829.269 430.479,830.602 433.5,833.5C 429.806,837.018 425.473,838.851 420.5,839C 419.572,838.612 418.905,837.945 418.5,837C 419.457,834.251 420.79,831.751 422.5,829.5 Z M 553.5,829.5 C 555.714,829.291 557.381,830.124 558.5,832C 557.774,834.893 556.107,837.059 553.5,838.5C 549.628,835.598 549.628,832.598 553.5,829.5 Z M 538.5,830.5 C 540.346,830.222 541.68,830.889 542.5,832.5C 535.101,843.742 525.768,852.575 514.5,859C 513.549,858.282 513.383,857.449 514,856.5C 522.005,847.662 530.172,838.995 538.5,830.5 Z M 489.5,831.5 C 493.339,832.05 493.339,833.05 489.5,834.5C 488.438,833.575 488.438,832.575 489.5,831.5 Z M 481.5,834.5 C 482.5,834.5 483.5,834.5 484.5,834.5C 484.114,838.738 482.448,839.404 479.5,836.5C 480.243,835.818 480.909,835.151 481.5,834.5 Z M 503.5,836.5 C 505.167,836.5 506.833,836.5 508.5,836.5C 509.717,842.434 507.384,845.434 501.5,845.5C 501.481,843.94 501.148,842.44 500.5,841C 501.315,839.357 502.315,837.857 503.5,836.5 Z M 471.5,837.5 C 472.833,837.5 474.167,837.5 475.5,837.5C 475.616,840.91 473.95,842.244 470.5,841.5C 470.433,840.041 470.766,838.708 471.5,837.5 Z M 462.5,841.5 C 466.722,842.071 468.722,844.571 468.5,849C 468.839,852.328 467.339,854.161 464,854.5C 454.793,850.754 454.293,846.42 462.5,841.5 Z M 441.5,842.5 C 442.573,843.251 442.74,844.251 442,845.5C 432.921,855.373 422.255,863.04 410,868.5C 409.503,870.81 409.337,873.143 409.5,875.5C 405.161,876.154 401.327,875.154 398,872.5C 397.333,871.833 397.333,871.167 398,870.5C 412.513,861.005 427.013,851.672 441.5,842.5 Z M 543.5,842.5 C 545.89,842.685 546.89,844.018 546.5,846.5C 546.711,849.124 545.544,850.79 543,851.5C 541.842,851.002 541.009,850.169 540.5,849C 541.377,846.747 542.377,844.581 543.5,842.5 Z M 484.5,844.5 C 486.703,845.052 487.536,846.385 487,848.5C 484.376,852.985 480.542,854.985 475.5,854.5C 475.39,851.941 476.056,849.608 477.5,847.5C 480.127,846.942 482.46,845.942 484.5,844.5 Z M 446.5,854.5 C 448.167,854.5 449.833,854.5 451.5,854.5C 452.464,858.811 450.964,861.811 447,863.5C 442.634,860.479 442.468,857.479 446.5,854.5 Z M 527.5,858.5 C 529.085,859.002 529.585,860.002 529,861.5C 527.312,863.848 525.478,864.015 523.5,862C 524.731,860.595 526.064,859.429 527.5,858.5 Z M 460.5,863.5 C 463.68,863.176 464.847,864.51 464,867.5C 458.167,874.667 452.333,881.833 446.5,889C 452.088,892.88 451.755,896.046 445.5,898.5C 443.035,897.868 441.369,896.368 440.5,894C 447.053,883.719 453.719,873.553 460.5,863.5 Z M 477.5,863.5 C 479.567,863.532 480.9,864.532 481.5,866.5C 480.863,869.107 479.696,871.44 478,873.5C 475.834,871.879 473.334,871.045 470.5,871C 469.465,869.493 469.632,867.993 471,866.5C 473.166,865.269 475.333,864.269 477.5,863.5 Z M 508.5,863.5 C 515.114,865.114 515.614,867.114 510,869.5C 505.948,868.348 505.448,866.348 508.5,863.5 Z M 428.5,864.5 C 434.124,864.864 434.958,867.197 431,871.5C 426.763,877.29 423.596,876.79 421.5,870C 423.117,867.199 425.451,865.365 428.5,864.5 Z M 416.5,869.5 C 418.176,870.183 418.843,871.517 418.5,873.5C 416.833,873.5 415.167,873.5 413.5,873.5C 413.5,872.5 413.5,871.5 413.5,870.5C 414.791,870.737 415.791,870.404 416.5,869.5 Z M 466.5,874.5 C 469.243,874.077 470.576,875.244 470.5,878C 469.928,881.384 468.761,884.551 467,887.5C 464.456,886.79 463.289,885.124 463.5,882.5C 463.964,879.583 464.964,876.916 466.5,874.5 Z M 486.5,879.5 C 488.89,879.685 489.89,881.018 489.5,883.5C 488.12,887.929 486.454,892.262 484.5,896.5C 485.286,898.571 486.619,900.238 488.5,901.5C 486.947,903.772 484.781,905.105 482,905.5C 479.73,903.685 479.064,901.352 480,898.5C 482.224,892.081 484.391,885.748 486.5,879.5 Z M 496.5,882.5 C 498.411,882.574 499.578,883.574 500,885.5C 500.473,892.9 498.639,893.234 494.5,886.5C 495.18,885.14 495.847,883.807 496.5,882.5 Z"/></g>
<g><path style="opacity:0.92" fill="#3f3f3f" d="M 998.5,553.5 C 1005.51,553.334 1012.51,553.5 1019.5,554C 1034.75,561.973 1045.25,574.139 1051,590.5C 1052.44,596.149 1053.77,601.816 1055,607.5C 1055.37,608.91 1056.2,609.91 1057.5,610.5C 1061.91,603.258 1067.57,597.091 1074.5,592C 1089.4,589.885 1097.56,596.385 1099,611.5C 1099.67,618.833 1099.67,626.167 1099,633.5C 1095.86,646.749 1092.03,659.749 1087.5,672.5C 1099.5,668.001 1107.5,671.834 1111.5,684C 1113.07,691.425 1112.24,698.592 1109,705.5C 1105.67,712.167 1102.33,718.833 1099,725.5C 1091.35,734.648 1083.52,743.648 1075.5,752.5C 1078.19,754.857 1081.19,756.857 1084.5,758.5C 1089.18,765.175 1089.68,772.175 1086,779.5C 1082.47,783.692 1078.97,787.858 1075.5,792C 1068.32,797.091 1061.32,802.424 1054.5,808C 1066.06,814.556 1068.56,823.723 1062,835.5C 1060.21,838.295 1058.04,840.795 1055.5,843C 1040.82,853.337 1024.49,858.67 1006.5,859C 1005.94,859.725 1005.61,860.558 1005.5,861.5C 1007.26,864.519 1008.59,867.685 1009.5,871C 1009.26,874.487 1007.92,877.487 1005.5,880C 992.843,885.834 979.51,888.668 965.5,888.5C 965.809,893.267 965.309,897.934 964,902.5C 959.907,906.146 955.074,908.146 949.5,908.5C 942.841,907.856 936.341,906.523 930,904.5C 925.851,906.636 921.685,908.803 917.5,911C 908.361,911.235 900.861,907.735 895,900.5C 891.018,893.381 887.518,886.048 884.5,878.5C 870.677,875.756 858.677,869.589 848.5,860C 845.315,857.116 842.482,853.949 840,850.5C 836.228,843.732 832.061,837.232 827.5,831C 820.162,830.171 812.829,829.505 805.5,829C 801.157,824.05 801.823,819.716 807.5,816C 815.562,811.273 823.062,805.773 830,799.5C 833.946,793.221 838.279,787.221 843,781.5C 846.741,771.394 849.741,761.061 852,750.5C 857.433,737.419 867.266,729.919 881.5,728C 889.351,727.097 897.017,725.43 904.5,723C 914.13,721.88 923.796,721.214 933.5,721C 953.965,707.534 970.798,690.367 984,669.5C 988.333,665.5 992.667,661.5 997,657.5C 999.18,634.746 997.18,612.413 991,590.5C 989.145,581.134 989.145,571.801 991,562.5C 993.335,559.335 995.835,556.335 998.5,553.5 Z M 1000.5,561.5 C 1004.26,561.071 1007.76,561.737 1011,563.5C 1014.42,571.523 1016.76,579.857 1018,588.5C 1022.28,589.268 1023.44,591.601 1021.5,595.5C 1020.64,596.583 1019.64,596.749 1018.5,596C 1014.87,589.915 1011.37,583.748 1008,577.5C 1006.89,575.963 1005.39,575.297 1003.5,575.5C 1007.69,586.586 1011.19,597.919 1014,609.5C 1018.59,638.12 1015.59,639.786 1005,614.5C 1003.92,611.937 1003.42,609.271 1003.5,606.5C 1004.5,606.5 1005.5,606.5 1006.5,606.5C 1006.65,603.393 1006.15,600.393 1005,597.5C 997.773,588.815 994.773,578.815 996,567.5C 997.332,565.34 998.832,563.34 1000.5,561.5 Z M 1029.5,586.5 C 1030.82,586.33 1031.99,586.663 1033,587.5C 1034.91,589.609 1035.74,592.109 1035.5,595C 1033.17,604.657 1030.84,614.324 1028.5,624C 1029.51,627.705 1029.18,631.372 1027.5,635C 1030.87,640.411 1029.54,643.578 1023.5,644.5C 1025.4,630.626 1024.4,616.959 1020.5,603.5C 1020.57,602.228 1020.9,601.062 1021.5,600C 1023.1,599.727 1024.6,599.227 1026,598.5C 1027.85,594.676 1029.02,590.676 1029.5,586.5 Z M 1075.5,597.5 C 1081.65,596.475 1085.65,598.975 1087.5,605C 1084.29,609.926 1081.45,615.093 1079,620.5C 1077.97,622.361 1076.47,623.695 1074.5,624.5C 1074.51,620.337 1074.34,616.004 1074,611.5C 1072.96,609.254 1071.79,607.087 1070.5,605C 1072.39,602.618 1074.06,600.118 1075.5,597.5 Z M 1067.5,609.5 C 1068.99,610.312 1069.66,611.645 1069.5,613.5C 1062.71,647.761 1047.04,677.095 1022.5,701.5C 1020.72,700.652 1020.22,699.319 1021,697.5C 1028.33,686.167 1035.67,674.833 1043,663.5C 1051.28,645.478 1059.44,627.478 1067.5,609.5 Z M 1073.5,627.5 C 1075.2,628.016 1076.53,629.016 1077.5,630.5C 1075.42,634.213 1073.42,637.88 1071.5,641.5C 1074.49,640.702 1077.16,639.202 1079.5,637C 1080.79,636.51 1082.13,636.343 1083.5,636.5C 1083.66,638.527 1083.5,640.527 1083,642.5C 1077.86,648.391 1072.53,654.057 1067,659.5C 1065.14,663.419 1063.47,667.419 1062,671.5C 1057.92,675.922 1055.92,675.255 1056,669.5C 1062.47,657.757 1067.13,645.423 1070,632.5C 1070.7,630.416 1071.86,628.749 1073.5,627.5 Z M 1034.5,643.5 C 1035.69,643.97 1036.36,644.97 1036.5,646.5C 1036.33,647.5 1036.17,648.5 1036,649.5C 1030.64,656.245 1025.31,662.912 1020,669.5C 1019.33,671.833 1019.33,674.167 1020,676.5C 1022.04,677.772 1023.88,677.439 1025.5,675.5C 1027.28,676.348 1027.78,677.681 1027,679.5C 1022.02,685.978 1016.86,692.312 1011.5,698.5C 1010.05,697.829 1009.39,696.662 1009.5,695C 1010.91,688.578 1011.74,682.078 1012,675.5C 1012.61,671.619 1014.27,668.286 1017,665.5C 1017.77,660.071 1019.6,655.071 1022.5,650.5C 1027.18,649.166 1031.18,646.833 1034.5,643.5 Z M 1008.5,646.5 C 1010.02,646.511 1011.18,647.177 1012,648.5C 1013.4,655.161 1011.23,660.161 1005.5,663.5C 1004.34,659.878 1004.17,656.211 1005,652.5C 1005.42,649.975 1006.59,647.975 1008.5,646.5 Z M 996.5,667.5 C 1001.05,668.902 1004.05,671.902 1005.5,676.5C 1004,680.514 1001.5,683.848 998,686.5C 997.654,689.576 996.988,692.576 996,695.5C 993.667,697.833 991.333,700.167 989,702.5C 988.529,705.471 987.362,708.138 985.5,710.5C 987.833,711.167 990.167,711.833 992.5,712.5C 987.005,721.422 979.005,726.588 968.5,728C 966.438,729.532 965.104,731.532 964.5,734C 962.105,734.681 959.772,735.515 957.5,736.5C 962.132,737.328 966.798,737.828 971.5,738C 972.86,739.938 972.527,741.604 970.5,743C 968.043,744.562 965.376,745.562 962.5,746C 954.809,746.429 947.143,746.429 939.5,746C 940.551,747.385 941.884,748.385 943.5,749C 947.145,749.719 950.812,750.219 954.5,750.5C 954.863,752.911 953.863,754.411 951.5,755C 946.005,757.222 940.339,758.722 934.5,759.5C 931.034,758.923 927.701,757.923 924.5,756.5C 923.386,755.277 923.219,753.944 924,752.5C 926.349,748.472 929.183,744.806 932.5,741.5C 951.006,734.822 966.506,723.822 979,708.5C 980.626,705.872 982.626,703.539 985,701.5C 988.3,693.6 990.967,685.6 993,677.5C 981.732,701.772 963.732,718.772 939,728.5C 937.941,728.37 937.108,727.87 936.5,727C 960.11,714.723 977.61,696.557 989,672.5C 991.17,670.177 993.67,668.51 996.5,667.5 Z M 1052.5,677.5 C 1054.64,677.738 1056.31,678.738 1057.5,680.5C 1055.66,682.982 1054.32,685.649 1053.5,688.5C 1062.69,685.899 1064.02,687.399 1057.5,693C 1050.8,697.849 1043.47,701.349 1035.5,703.5C 1040.31,694.339 1045.98,685.672 1052.5,677.5 Z M 1090.5,679.5 C 1093.83,679.5 1097.17,679.5 1100.5,679.5C 1100.79,683.106 1100.46,686.606 1099.5,690C 1094.92,694.082 1091.92,693.249 1090.5,687.5C 1089.64,686.417 1088.64,686.251 1087.5,687C 1073.72,704.777 1057.39,719.777 1038.5,732C 1032.62,734.794 1026.62,737.294 1020.5,739.5C 1019.83,739.167 1019.17,738.833 1018.5,738.5C 1032.34,728.172 1046.34,718.005 1060.5,708C 1070.75,698.578 1080.75,689.078 1090.5,679.5 Z M 1086.5,697.5 C 1088.86,699.146 1091.03,701.146 1093,703.5C 1093.59,704.899 1093.43,706.232 1092.5,707.5C 1087.66,711.92 1081.99,714.753 1075.5,716C 1074.76,719.91 1072.43,721.744 1068.5,721.5C 1068.34,720.127 1068.51,718.793 1069,717.5C 1074.3,710.369 1080.13,703.703 1086.5,697.5 Z M 1012.5,706.5 C 1013.87,706.343 1015.21,706.51 1016.5,707C 1011.83,711.667 1007.17,716.333 1002.5,721C 1001.55,721.483 1000.55,721.649 999.5,721.5C 999.343,720.127 999.51,718.793 1000,717.5C 1004.36,713.968 1008.53,710.301 1012.5,706.5 Z M 1025.5,711.5 C 1029.69,712.181 1031.86,714.514 1032,718.5C 1024.96,723.938 1017.13,727.604 1008.5,729.5C 1008.34,728.127 1008.51,726.793 1009,725.5C 1014.98,721.344 1020.48,716.677 1025.5,711.5 Z M 1063.5,722.5 C 1066.79,722.12 1069.12,723.453 1070.5,726.5C 1067.23,727.47 1064.23,728.97 1061.5,731C 1063.73,732.147 1066.06,733.147 1068.5,734C 1069.45,734.718 1069.62,735.551 1069,736.5C 1061.79,740.848 1053.95,743.682 1045.5,745C 1042.87,746.626 1040.54,748.626 1038.5,751C 1036.83,751.333 1035.17,751.667 1033.5,752C 1033.01,754.027 1033.01,756.193 1033.5,758.5C 1028.17,758.167 1022.83,757.833 1017.5,757.5C 1017.5,759.5 1017.5,761.5 1017.5,763.5C 1015.17,763.5 1012.83,763.5 1010.5,763.5C 1011.09,760.059 1012.42,756.892 1014.5,754C 1027.22,749.475 1038.89,743.141 1049.5,735C 1052.34,733.08 1055.34,731.413 1058.5,730C 1058.82,726.53 1060.48,724.03 1063.5,722.5 Z M 919.5,727.5 C 926.097,727.679 928.597,731.012 927,737.5C 922.678,742.245 917.845,743.245 912.5,740.5C 914.261,738.747 915.594,736.747 916.5,734.5C 916.124,732.617 915.124,731.117 913.5,730C 915.502,728.981 917.502,728.148 919.5,727.5 Z M 908.5,731.5 C 911.151,732.725 910.984,733.725 908,734.5C 907.5,734.167 907,733.833 906.5,733.5C 907.243,732.818 907.909,732.151 908.5,731.5 Z M 897.5,733.5 C 900.705,734.586 901.038,736.086 898.5,738C 893.536,738.912 888.536,739.412 883.5,739.5C 883.5,738.5 883.5,737.5 883.5,736.5C 888.339,735.734 893.006,734.734 897.5,733.5 Z M 999.5,736.5 C 1001.53,736.338 1003.53,736.505 1005.5,737C 1008.92,741.92 1008.59,746.753 1004.5,751.5C 1001.33,753.587 997.994,755.421 994.5,757C 992.845,758.444 992.178,760.278 992.5,762.5C 989.679,762.539 987.012,763.205 984.5,764.5C 984.977,765.478 985.643,766.311 986.5,767C 989.192,767.43 991.859,767.263 994.5,766.5C 994.822,768.722 994.155,770.556 992.5,772C 986.897,773.124 981.231,773.79 975.5,774C 972.21,774.253 969.21,775.253 966.5,777C 970.313,778.262 974.313,778.929 978.5,779C 980.107,780.049 980.773,781.549 980.5,783.5C 971.827,784.097 963.161,784.43 954.5,784.5C 955.803,786.589 955.303,788.256 953,789.5C 949.13,787.566 945.13,785.9 941,784.5C 940.5,784.833 940,785.167 939.5,785.5C 943.29,788.005 943.29,790.338 939.5,792.5C 931.78,790.365 924.28,787.698 917,784.5C 916.135,782.112 916.968,780.612 919.5,780C 932.037,779.652 944.37,777.986 956.5,775C 964.608,770.945 972.942,767.445 981.5,764.5C 988.331,759.343 993.664,753.01 997.5,745.5C 996.448,745.351 995.448,745.517 994.5,746C 987.044,752.118 979.044,757.451 970.5,762C 963.527,765.382 956.193,767.215 948.5,767.5C 948.5,766.5 948.5,765.5 948.5,764.5C 955.229,762.308 961.896,759.808 968.5,757C 978.738,749.911 989.072,743.078 999.5,736.5 Z M 906.5,742.5 C 909.924,743.379 912.924,745.046 915.5,747.5C 910.549,750.178 905.882,749.678 901.5,746C 902.955,744.374 904.622,743.208 906.5,742.5 Z M 882.5,747.5 C 886.611,748.827 889.277,751.66 890.5,756C 890.355,756.772 890.022,757.439 889.5,758C 886.789,759.22 883.956,760.053 881,760.5C 874.255,759.622 867.589,759.288 861,759.5C 860.333,758.833 860.333,758.167 861,757.5C 867.665,752.915 874.832,749.582 882.5,747.5 Z M 1071.5,761.5 C 1079.04,761.68 1081.04,765.013 1077.5,771.5C 1074.6,772.799 1071.94,774.465 1069.5,776.5C 1065.01,775.742 1063.34,773.075 1064.5,768.5C 1060.01,768.269 1055.67,768.936 1051.5,770.5C 1049.93,770.523 1048.6,770.023 1047.5,769C 1055.47,766.179 1063.47,763.679 1071.5,761.5 Z M 908.5,764.5 C 910.5,764.833 912.5,765.167 914.5,765.5C 914.573,774.298 911.073,776.298 904,771.5C 898.513,773.538 893.013,773.705 887.5,772C 886.167,771 886.167,770 887.5,769C 894.595,767.305 901.595,765.805 908.5,764.5 Z M 1034.5,770.5 C 1037.72,770.108 1040.72,770.608 1043.5,772C 1041.67,772.748 1040,773.748 1038.5,775C 1027.86,776.134 1017.2,776.967 1006.5,777.5C 1004.29,777.588 1002.29,777.088 1000.5,776C 1001.62,774.956 1002.96,774.29 1004.5,774C 1012.17,773.667 1019.83,773.333 1027.5,773C 1030,772.302 1032.34,771.469 1034.5,770.5 Z M 902.5,775.5 C 907.244,775.038 908.244,776.538 905.5,780C 900.522,780.864 899.522,779.364 902.5,775.5 Z M 1055.5,775.5 C 1056.83,775.5 1058.17,775.5 1059.5,775.5C 1060.09,778.261 1059.09,779.927 1056.5,780.5C 1052.87,779.564 1052.54,777.898 1055.5,775.5 Z M 878.5,778.5 C 882.027,778.396 885.027,779.563 887.5,782C 886.833,782.667 886.167,783.333 885.5,784C 877.134,785.642 868.8,785.642 860.5,784C 866.137,780.618 872.137,778.785 878.5,778.5 Z M 1041.5,779.5 C 1047.52,782.412 1053.85,784.412 1060.5,785.5C 1061.52,786.002 1061.69,786.668 1061,787.5C 1057.28,790.651 1052.94,792.317 1048,792.5C 1040.1,791.486 1032.26,790.152 1024.5,788.5C 1021.61,790.111 1018.61,791.444 1015.5,792.5C 1013.1,791.611 1011.1,790.111 1009.5,788C 1020.3,785.467 1030.97,782.634 1041.5,779.5 Z M 989.5,786.5 C 993.273,786.263 996.94,786.763 1000.5,788C 1007.76,793.145 1015.76,796.645 1024.5,798.5C 1024.85,800.635 1024.02,801.968 1022,802.5C 1017.41,800.872 1012.75,799.538 1008,798.5C 1005.4,798.907 1003.23,800.073 1001.5,802C 996.902,803.091 994.069,801.257 993,796.5C 990.933,793.93 988.433,791.93 985.5,790.5C 986.549,788.784 987.882,787.451 989.5,786.5 Z M 911.5,795.5 C 923.067,798.141 934.733,800.308 946.5,802C 959.178,801.888 971.845,801.554 984.5,801C 987.806,808.23 985.473,813.063 977.5,815.5C 974.778,815.338 972.778,814.171 971.5,812C 972.744,809.618 974.577,807.785 977,806.5C 977.667,805.833 977.667,805.167 977,804.5C 973.573,806.129 970.073,807.629 966.5,809C 946.845,811.488 928.512,807.821 911.5,798C 910.402,797.23 910.402,796.397 911.5,795.5 Z M 870.5,796.5 C 876.842,796.334 883.175,796.5 889.5,797C 893.891,803.717 891.891,807.551 883.5,808.5C 882.28,808.113 881.613,807.28 881.5,806C 882.856,804.433 883.523,802.6 883.5,800.5C 874.967,801.09 866.467,802.09 858,803.5C 854.793,803.259 851.626,802.759 848.5,802C 847.167,801.333 847.167,800.667 848.5,800C 855.925,798.501 863.259,797.335 870.5,796.5 Z M 900.5,806.5 C 908.468,809.48 916.468,812.48 924.5,815.5C 925.983,818.612 925.65,821.445 923.5,824C 922.167,824.667 920.833,824.667 919.5,824C 915.367,820.869 911.534,817.369 908,813.5C 905.521,816.669 902.354,817.836 898.5,817C 896.957,813.093 897.624,809.593 900.5,806.5 Z M 846.5,808.5 C 847.708,809.234 849.041,809.567 850.5,809.5C 846.15,818.63 839.15,820.963 829.5,816.5C 828.289,815.726 828.289,814.893 829.5,814C 835.26,812.164 840.927,810.331 846.5,808.5 Z M 861.5,808.5 C 869.024,807.041 873.024,810.041 873.5,817.5C 870.813,817.664 868.146,817.497 865.5,817C 862.244,815.526 858.911,814.36 855.5,813.5C 855.5,812.167 855.5,810.833 855.5,809.5C 857.735,809.795 859.735,809.461 861.5,808.5 Z M 992.5,810.5 C 1011.01,813.717 1029.67,815.55 1048.5,816C 1053.64,815.894 1056.98,818.228 1058.5,823C 1057.64,825.868 1055.97,828.202 1053.5,830C 1046.91,828.726 1040.58,829.56 1034.5,832.5C 1035.65,834.809 1036.98,836.976 1038.5,839C 1037.9,840.301 1036.9,841.135 1035.5,841.5C 1028,837.501 1020,835.668 1011.5,836C 1006.81,833.999 1006.48,831.666 1010.5,829C 1017.82,827.927 1025.16,826.927 1032.5,826C 1035.79,825.747 1038.79,824.747 1041.5,823C 1023.89,824.588 1006.55,823.088 989.5,818.5C 989.016,815.212 990.016,812.545 992.5,810.5 Z M 945.5,816.5 C 951.652,815.408 956.818,817.075 961,821.5C 962.105,825.07 960.771,827.07 957,827.5C 951.666,826.206 946.499,824.373 941.5,822C 940.5,821 939.5,820 938.5,819C 940.833,817.957 943.166,817.124 945.5,816.5 Z M 931.5,818.5 C 934.5,818.167 935.833,819.5 935.5,822.5C 934.167,822.5 932.833,822.5 931.5,822.5C 931.5,821.167 931.5,819.833 931.5,818.5 Z M 976.5,827.5 C 977.643,827.908 978.643,828.575 979.5,829.5C 980.639,833.112 982.306,836.446 984.5,839.5C 977.736,841.191 971.903,839.524 967,834.5C 966.383,833.551 966.549,832.718 967.5,832C 970.592,830.454 973.592,828.954 976.5,827.5 Z M 991.5,827.5 C 993.927,827.523 996.26,828.023 998.5,829C 1003.03,833.867 1007.87,838.367 1013,842.5C 1013.48,843.448 1013.65,844.448 1013.5,845.5C 1003.19,842.713 994.194,837.547 986.5,830C 988.175,829.015 989.842,828.181 991.5,827.5 Z M 875.5,828.5 C 880.049,828.932 880.549,830.599 877,833.5C 874.676,832.225 874.176,830.558 875.5,828.5 Z M 842.5,829.5 C 848.092,829.537 849.426,831.703 846.5,836C 843.452,836.635 841.785,835.301 841.5,832C 841.743,831.098 842.077,830.265 842.5,829.5 Z M 859.5,830.5 C 868.44,838.608 876.94,847.275 885,856.5C 885.563,857.725 885.23,858.725 884,859.5C 874.333,852.5 866,844.167 859,834.5C 858.421,833.072 858.588,831.738 859.5,830.5 Z M 907.5,830.5 C 916.358,833.953 925.358,837.12 934.5,840C 939.257,841.74 942.09,844.907 943,849.5C 938.315,854.608 933.482,854.774 928.5,850C 927.552,849.517 926.552,849.351 925.5,849.5C 925.5,851.5 925.5,853.5 925.5,855.5C 923.801,855.66 922.134,855.494 920.5,855C 916.217,852.385 912.217,849.385 908.5,846C 907.207,845.51 905.873,845.343 904.5,845.5C 904.5,844.5 904.5,843.5 904.5,842.5C 910.772,842.699 916.772,844.032 922.5,846.5C 924.333,845.948 926,845.115 927.5,844C 920.952,840.814 914.285,837.814 907.5,835C 906.272,833.51 906.272,832.01 907.5,830.5 Z M 890.5,835.5 C 896.843,836.928 898.843,840.428 896.5,846C 891.03,844.565 889.03,841.065 890.5,835.5 Z M 955.5,841.5 C 957.655,841.372 959.655,841.872 961.5,843C 972.152,851.33 983.486,858.663 995.5,865C 998.255,866.711 1000.59,868.878 1002.5,871.5C 1001.64,873.197 1000.3,874.363 998.5,875C 993.489,875.5 988.489,875.333 983.5,874.5C 980.479,874.417 977.645,875.084 975,876.5C 969.248,872.703 963.748,868.536 958.5,864C 957.391,863.362 956.225,862.862 955,862.5C 948.065,864.052 945.898,861.386 948.5,854.5C 949.167,854.167 949.833,853.833 950.5,853.5C 959.844,859.173 969.51,864.34 979.5,869C 982.117,869.822 984.784,870.322 987.5,870.5C 987.67,869.178 987.337,868.011 986.5,867C 974.086,861.242 963.419,853.242 954.5,843C 955.056,842.617 955.389,842.117 955.5,841.5 Z M 852.5,844.5 C 857.159,844.015 858.492,845.848 856.5,850C 853.678,850.699 852.012,849.532 851.5,846.5C 851.863,845.817 852.196,845.15 852.5,844.5 Z M 888.5,863.5 C 891.833,863.5 893.5,865.167 893.5,868.5C 887.257,870.926 885.59,869.259 888.5,863.5 Z M 921.5,863.5 C 923.827,863.665 925.993,864.331 928,865.5C 930.947,873.043 935.613,879.377 942,884.5C 942.494,886.134 942.66,887.801 942.5,889.5C 939.934,889.344 937.434,889.678 935,890.5C 933.018,890.01 931.351,889.01 930,887.5C 928.363,882.288 927.197,876.955 926.5,871.5C 920.869,875.179 917.869,873.679 917.5,867C 918.347,865.229 919.68,864.063 921.5,863.5 Z M 934.5,863.5 C 936.199,863.34 937.866,863.506 939.5,864C 946.415,873.828 953.081,883.828 959.5,894C 955.901,899.73 952.067,899.897 948,894.5C 947.251,893.365 947.417,892.365 948.5,891.5C 949.672,891.081 950.672,890.415 951.5,889.5C 945.808,882.308 940.308,874.975 935,867.5C 934.51,866.207 934.343,864.873 934.5,863.5 Z M 910.5,877.5 C 911.496,877.414 912.329,877.748 913,878.5C 917.838,886.868 919.672,895.868 918.5,905.5C 915.774,905.736 913.441,904.903 911.5,903C 910.663,901.989 910.33,900.822 910.5,899.5C 913.056,899.868 915.056,899.034 916.5,897C 913.365,893.231 910.865,889.065 909,884.5C 908.391,881.935 908.891,879.601 910.5,877.5 Z M 899.5,881.5 C 901.39,881.297 902.89,881.963 904,883.5C 904.769,886.099 904.602,888.599 903.5,891C 901.888,891.72 900.388,891.554 899,890.5C 898.366,887.445 898.532,884.445 899.5,881.5 Z"/></g>
<g><path style="opacity:0.281" fill="#3f3f3f" d="M 770.5,591.5 C 772.983,591.73 773.483,592.397 772,593.5C 770.97,593.164 770.47,592.497 770.5,591.5 Z"/></g>
<g><path style="opacity:0.845" fill="#3f3f3f" d="M 734.5,612.5 C 739.833,612.5 745.167,612.5 750.5,612.5C 750.5,614.167 750.5,615.833 750.5,617.5C 744.158,617.666 737.825,617.5 731.5,617C 731.043,616.586 730.709,616.086 730.5,615.5C 731.901,614.479 733.235,613.479 734.5,612.5 Z"/></g>
<g><path style="opacity:0.813" fill="#3f3f3f" d="M 651.5,613.5 C 654.167,613.5 656.833,613.5 659.5,613.5C 659.5,614.833 659.5,616.167 659.5,617.5C 656.833,617.5 654.167,617.5 651.5,617.5C 651.5,616.167 651.5,614.833 651.5,613.5 Z"/></g>
<g><path style="opacity:0.81" fill="#3f3f3f" d="M 712.5,633.5 C 720.553,633.225 728.553,633.725 736.5,635C 738.957,636.512 738.957,637.846 736.5,639C 724.161,640.937 711.827,640.937 699.5,639C 697.408,638.047 697.075,636.714 698.5,635C 703.351,634.826 708.018,634.326 712.5,633.5 Z"/></g>
<g><path style="opacity:0.65" fill="#3f3f3f" d="M 589.5,989.5 C 592.024,988.2 594.691,988.2 597.5,989.5C 594.801,990.729 592.135,990.729 589.5,989.5 Z"/></g>
<g><path style="opacity:0.67" fill="#3f3f3f" d="M 795.5,990.5 C 799.646,989.353 803.98,989.186 808.5,990C 807.541,991.464 806.208,992.297 804.5,992.5C 801.521,991.672 798.521,991.005 795.5,990.5 Z"/></g>
<g><path style="opacity:0.739" fill="#3f3f3f" d="M 584.5,997.5 C 592.409,998.995 600.409,999.829 608.5,1000C 609.833,1001 609.833,1002 608.5,1003C 601.166,1003.13 593.832,1002.8 586.5,1002C 585.376,1001.75 584.376,1001.25 583.5,1000.5C 584.127,999.583 584.461,998.583 584.5,997.5 Z"/></g>
<g><path style="opacity:0.775" fill="#3f3f3f" d="M 798.5,997.5 C 804.469,996.889 810.136,997.722 815.5,1000C 802.006,1003.14 788.339,1004.14 774.5,1003C 782.006,1000.77 789.673,999.432 797.5,999C 798.056,998.617 798.389,998.117 798.5,997.5 Z"/></g>
<g><path style="opacity:0.952" fill="#3f3f3f" d="M 708.5,1144.5 C 726.85,1142.79 743.016,1147.79 757,1159.5C 757.564,1166.71 754.73,1172.04 748.5,1175.5C 742.56,1173.2 736.893,1170.36 731.5,1167C 709.302,1161.4 691.135,1167.57 677,1185.5C 671.401,1193.41 668.901,1202.24 669.5,1212C 669.909,1234.77 680.909,1250.1 702.5,1258C 718.151,1262.05 732.484,1259.38 745.5,1250C 747.5,1249.33 749.5,1249.33 751.5,1250C 755.494,1254.47 757.327,1259.64 757,1265.5C 741.012,1278.6 722.845,1283.1 702.5,1279C 658.285,1264.75 641.452,1234.91 652,1189.5C 661.894,1163.15 680.727,1148.15 708.5,1144.5 Z"/></g>
<g><path style="opacity:0.948" fill="#3f3f3f" d="M 1071.5,1144.5 C 1088.09,1142.97 1102.59,1147.64 1115,1158.5C 1116.1,1166.23 1112.93,1171.23 1105.5,1173.5C 1099.21,1169.85 1092.54,1167.02 1085.5,1165C 1078,1163.99 1070.67,1164.66 1063.5,1167C 1052.6,1177.53 1053.6,1186.87 1066.5,1195C 1076.93,1199.92 1087.59,1204.25 1098.5,1208C 1124.91,1219.12 1131.75,1237.62 1119,1263.5C 1106.28,1276.74 1090.78,1282.24 1072.5,1280C 1056.16,1278.11 1042.66,1270.95 1032,1258.5C 1031.33,1256.83 1031.33,1255.17 1032,1253.5C 1034.85,1249.8 1038.35,1247.13 1042.5,1245.5C 1044.3,1245.58 1045.97,1246.08 1047.5,1247C 1061.11,1259.7 1076.78,1263.37 1094.5,1258C 1105.13,1250.52 1106.79,1241.52 1099.5,1231C 1090.46,1224.42 1080.46,1219.76 1069.5,1217C 1058.58,1212.96 1049.08,1206.8 1041,1198.5C 1030.52,1175.94 1036.35,1159.11 1058.5,1148C 1062.92,1146.65 1067.25,1145.48 1071.5,1144.5 Z"/></g>
<g><path style="opacity:0.963" fill="#3f3f3f" d="M 609.5,1145.5 C 613.514,1145.33 617.514,1145.5 621.5,1146C 622.931,1146.47 624.097,1147.3 625,1148.5C 625.825,1190.18 625.491,1231.84 624,1273.5C 623.671,1277.04 621.838,1278.21 618.5,1277C 616.461,1274.63 614.128,1272.63 611.5,1271C 585.501,1243.67 559.001,1217.17 532,1191.5C 530.812,1219.48 530.145,1247.48 530,1275.5C 529.626,1276.42 529.126,1277.25 528.5,1278C 523.5,1278.67 518.5,1278.67 513.5,1278C 513,1277.5 512.5,1277 512,1276.5C 511.465,1242.1 510.965,1209.26 510.5,1178C 511.32,1168.58 511.82,1159.08 512,1149.5C 512.612,1146.97 514.112,1146.13 516.5,1147C 541.752,1172.25 567.086,1197.59 592.5,1223C 595.5,1225.33 598.5,1227.67 601.5,1230C 602.793,1230.49 604.127,1230.66 605.5,1230.5C 604.626,1203.48 604.792,1176.48 606,1149.5C 606.69,1147.65 607.856,1146.32 609.5,1145.5 Z"/></g>
<g><path style="opacity:0.96" fill="#3f3f3f" d="M 275.5,1146.5 C 305.169,1146.33 334.835,1146.5 364.5,1147C 365.416,1147.37 366.25,1147.87 367,1148.5C 367.667,1152.5 367.667,1156.5 367,1160.5C 366.5,1161 366,1161.5 365.5,1162C 354.252,1163.3 342.919,1164.13 331.5,1164.5C 330.115,1200.14 329.282,1235.8 329,1271.5C 328.763,1277.14 325.763,1279.47 320,1278.5C 317.207,1278.7 314.707,1278.03 312.5,1276.5C 311.738,1272.89 311.238,1269.22 311,1265.5C 310.59,1231.83 310.09,1198.16 309.5,1164.5C 298.517,1163.82 287.517,1163.32 276.5,1163C 271.564,1157.88 271.231,1152.38 275.5,1146.5 Z"/></g>
<g><path style="opacity:0.975" fill="#3f3f3f" d="M 392.5,1146.5 C 422.169,1146.33 451.835,1146.5 481.5,1147C 482.333,1147.83 483.167,1148.67 484,1149.5C 484.667,1153.83 484.667,1158.17 484,1162.5C 483.5,1163 483,1163.5 482.5,1164C 458.5,1164.67 434.5,1165.33 410.5,1166C 409.809,1167.07 409.309,1168.23 409,1169.5C 408.696,1178.35 408.196,1187.18 407.5,1196C 407.844,1200.43 408.511,1204.76 409.5,1209C 428.808,1210.19 448.142,1210.86 467.5,1211C 471.957,1217.55 471.29,1223.55 465.5,1229C 446.79,1229.18 428.123,1229.68 409.5,1230.5C 409.167,1234.5 408.833,1238.5 408.5,1242.5C 408.281,1247.98 408.948,1253.31 410.5,1258.5C 434.493,1259.33 458.493,1259.83 482.5,1260C 489.099,1265.92 489.099,1271.92 482.5,1278C 453.167,1278.67 423.833,1278.67 394.5,1278C 391.724,1277.93 389.558,1276.77 388,1274.5C 387.333,1233.5 387.333,1192.5 388,1151.5C 389.707,1149.96 391.207,1148.3 392.5,1146.5 Z"/></g>
<g><path style="opacity:0.957" fill="#3f3f3f" d="M 784.5,1146.5 C 788.846,1146.33 793.179,1146.5 797.5,1147C 798.893,1148.17 799.727,1149.67 800,1151.5C 800.69,1169.83 801.357,1188.17 802,1206.5C 807.169,1222.67 818.169,1232 835,1234.5C 857.026,1231.81 868.693,1219.48 870,1197.5C 870.333,1181.83 870.667,1166.17 871,1150.5C 871.465,1149.07 872.299,1147.9 873.5,1147C 878.167,1146.33 882.833,1146.33 887.5,1147C 888,1147.5 888.5,1148 889,1148.5C 890.587,1170.47 890.92,1192.47 890,1214.5C 885.343,1224.98 878.843,1234.15 870.5,1242C 863.999,1246.28 856.999,1249.62 849.5,1252C 846.782,1253.42 846.115,1255.42 847.5,1258C 857.293,1258.21 866.959,1259.21 876.5,1261C 877,1261.5 877.5,1262 878,1262.5C 878.667,1266.17 878.667,1269.83 878,1273.5C 877.215,1275.29 876.049,1276.79 874.5,1278C 848.5,1278.67 822.5,1278.67 796.5,1278C 795.333,1276.83 794.167,1275.67 793,1274.5C 792.333,1270.83 792.333,1267.17 793,1263.5C 794.167,1262.33 795.333,1261.17 796.5,1260C 805.55,1259.85 814.55,1259.18 823.5,1258C 826.167,1256 826.167,1254 823.5,1252C 809.264,1248.82 798.097,1241.32 790,1229.5C 786.711,1223.26 783.711,1216.92 781,1210.5C 780.333,1190.83 780.333,1171.17 781,1151.5C 781.257,1149.09 782.424,1147.43 784.5,1146.5 Z"/></g>
<g><path style="opacity:0.956" fill="#3f3f3f" d="M 922.5,1146.5 C 938.503,1146.33 954.503,1146.5 970.5,1147C 992.308,1151.81 1007.14,1164.65 1015,1185.5C 1019,1218.81 1004.83,1239.65 972.5,1248C 961.797,1248.19 951.13,1248.85 940.5,1250C 938.934,1258.71 938.101,1267.54 938,1276.5C 933.391,1278.51 928.558,1279.01 923.5,1278C 921.513,1276.68 920.346,1274.85 920,1272.5C 919.528,1241.66 919.028,1212.16 918.5,1184C 919.321,1173.24 919.821,1162.41 920,1151.5C 920.366,1149.55 921.199,1147.88 922.5,1146.5 Z M 942.5,1164.5 C 953.722,1163.78 964.722,1164.94 975.5,1168C 990.472,1176.44 997.139,1189.28 995.5,1206.5C 986.309,1224.94 971.309,1233.27 950.5,1231.5C 946.916,1231.48 943.416,1231.15 940,1230.5C 938.629,1216.92 938.129,1204.26 938.5,1192.5C 939.304,1184.21 939.804,1175.88 940,1167.5C 940.698,1166.31 941.531,1165.31 942.5,1164.5 Z"/></g>
</svg>
