<?xml version="1.0" encoding="UTF-8"?>
<!DOCTYPE svg PUBLIC "-//W3C//DTD SVG 1.1//EN" "http://www.w3.org/Graphics/SVG/1.1/DTD/svg11.dtd">
<svg xmlns="http://www.w3.org/2000/svg" version="1.1" width="897px" height="171px" style="shape-rendering:geometricPrecision; text-rendering:geometricPrecision; image-rendering:optimizeQuality; fill-rule:evenodd; clip-rule:evenodd" xmlns:xlink="http://www.w3.org/1999/xlink">
<g><path style="opacity:0.85" fill="#fefffe" d="M 456.5,15.5 C 467.507,15.2079 478.174,16.7079 488.5,20C 493.392,21.8944 498.059,24.2277 502.5,27C 505.147,28.6254 506.814,30.9587 507.5,34C 503.472,49.3487 495.472,51.682 483.5,41C 457.317,33.0539 436.817,40.5539 422,63.5C 411.546,92.0897 419.713,113.59 446.5,128C 463.98,133.655 479.814,130.822 494,119.5C 501.355,121.965 505.855,127.131 507.5,135C 506.917,137.499 505.584,139.499 503.5,141C 475.817,156.813 448.483,156.146 421.5,139C 391.349,110.208 386.849,77.7077 408,41.5C 414.667,33.4914 422.5,26.9914 431.5,22C 440.028,20.0029 448.361,17.8362 456.5,15.5 Z"/></g>
<g><path style="opacity:0.856" fill="#fefffe" d="M 822.5,15.5 C 838.588,14.6347 852.421,19.6347 864,30.5C 865.589,39.0916 862.089,44.4249 853.5,46.5C 847.764,43.9612 842.097,41.1279 836.5,38C 823.432,33.4298 812.932,36.5965 805,47.5C 803.69,56.5379 807.19,63.0379 815.5,67C 826.676,71.9287 838.01,76.262 849.5,80C 872.101,90.0533 879.268,106.887 871,130.5C 862.792,143.686 850.958,150.853 835.5,152C 817.296,154.084 800.962,149.751 786.5,139C 784.36,136.86 782.194,134.694 780,132.5C 779.333,129.5 779.333,126.5 780,123.5C 783.035,120.13 786.368,117.13 790,114.5C 797.415,119.458 804.915,124.291 812.5,129C 823.879,134.278 834.879,133.611 845.5,127C 855.102,117.991 854.769,109.324 844.5,101C 832.697,95.3906 820.697,90.3906 808.5,86C 795.168,81.3336 786.668,72.1669 783,58.5C 780.733,39.4133 788.566,26.2466 806.5,19C 811.9,17.504 817.233,16.3373 822.5,15.5 Z"/></g>
<g><path style="opacity:0.855" fill="#fefffe" d="M 355.5,16.5 C 360.511,16.3341 365.511,16.5007 370.5,17C 372.667,17.8333 374.167,19.3333 375,21.5C 375.25,40.9185 374.75,60.2519 373.5,79.5C 373.833,85.5 374.167,91.5 374.5,97.5C 373.81,114.493 373.31,131.493 373,148.5C 371.758,149.872 370.258,150.872 368.5,151.5C 356.466,142.631 345.966,132.298 337,120.5C 326.357,109.525 315.357,98.8583 304,88.5C 296.326,79.493 287.993,71.1596 279,63.5C 278.667,91.8333 278.333,120.167 278,148.5C 275.276,149.776 272.276,150.442 269,150.5C 265.779,150.459 262.612,150.125 259.5,149.5C 258.749,148.624 258.249,147.624 258,146.5C 257.333,104.5 257.333,62.5 258,20.5C 260.332,17.2091 263.165,16.7091 266.5,19C 284.935,36.9368 302.935,55.4368 320.5,74.5C 330.177,84.0106 340.01,93.3439 350,102.5C 350.772,102.355 351.439,102.022 352,101.5C 352.167,93.6667 352.333,85.8333 352.5,78C 351.713,60.2584 351.379,42.9251 351.5,26C 351.79,22.3023 353.123,19.1357 355.5,16.5 Z"/></g>
<g><path style="opacity:0.861" fill="#fefffe" d="M 531.5,17.5 C 535.182,17.3347 538.848,17.5014 542.5,18C 545.007,18.0929 547.174,18.9262 549,20.5C 549.333,38.8333 549.667,57.1667 550,75.5C 558.411,102.618 575.911,110.785 602.5,100C 611.99,92.4921 617.156,82.6587 618,70.5C 618.181,53.456 618.681,36.456 619.5,19.5C 620.025,18.8076 620.692,18.3076 621.5,18C 626.167,17.3333 630.833,17.3333 635.5,18C 636.931,18.4652 638.097,19.2986 639,20.5C 639.667,39.8333 639.667,59.1667 639,78.5C 635.524,102.636 622.024,117.803 598.5,124C 593.414,125.885 593.247,128.052 598,130.5C 604.408,129.594 610.908,129.261 617.5,129.5C 624.771,129.941 627.771,133.775 626.5,141C 626.333,143.5 626.167,146 626,148.5C 625.5,149 625,149.5 624.5,150C 598.652,150.198 572.819,150.698 547,151.5C 544.739,151.561 542.739,150.894 541,149.5C 540.333,144.5 540.333,139.5 541,134.5C 541.374,133.584 541.874,132.75 542.5,132C 546.259,130.087 550.259,129.253 554.5,129.5C 559.834,130.15 565.168,130.316 570.5,130C 573.267,127.101 572.6,125.101 568.5,124C 553.221,120.05 541.721,111.217 534,97.5C 528.482,81.2055 526.315,64.3721 527.5,47C 527.667,38.8333 527.833,30.6667 528,22.5C 528.997,20.6769 530.164,19.0103 531.5,17.5 Z"/></g>
<g><path style="opacity:0.856" fill="#fefffe" d="M 22.5,18.5 C 53.1685,18.3334 83.8351,18.5 114.5,19C 116.237,22.0256 117.237,25.359 117.5,29C 117.205,31.9234 115.871,34.2568 113.5,36C 102.257,36.1782 91.0905,36.6782 80,37.5C 79.6667,73.1667 79.3333,108.833 79,144.5C 78.8371,146.676 78.0037,148.509 76.5,150C 71.1667,150.667 65.8333,150.667 60.5,150C 59.2986,149.097 58.4652,147.931 58,146.5C 57.6667,110.5 57.3333,74.5 57,38.5C 45.7486,36.6984 34.2486,35.8651 22.5,36C 18.6857,30.2651 18.6857,24.4318 22.5,18.5 Z"/></g>
<g><path style="opacity:0.869" fill="#fefffe" d="M 137.5,18.5 C 168.835,18.3334 200.168,18.5 231.5,19C 235.328,24.6455 235.495,30.4789 232,36.5C 230.933,37.1905 229.766,37.6905 228.5,38C 205.167,38.3333 181.833,38.6667 158.5,39C 157.174,52.8035 157.174,66.6369 158.5,80.5C 177.491,81.333 196.491,81.833 215.5,82C 221.218,87.1609 221.885,92.9942 217.5,99.5C 215.922,100.298 214.256,100.798 212.5,101C 194.926,101.825 177.426,101.658 160,100.5C 159.586,100.957 159.086,101.291 158.5,101.5C 157.335,110.482 157.168,119.482 158,128.5C 162.267,129.296 166.601,129.962 171,130.5C 190.479,129.364 209.979,129.197 229.5,130C 235.327,133.133 237.493,137.966 236,144.5C 235.654,146.848 234.487,148.681 232.5,150C 201.5,150.667 170.5,150.667 139.5,150C 138.584,149.626 137.75,149.126 137,148.5C 135.844,126.92 135.344,105.253 135.5,83.5C 135.667,62.5 135.833,41.5 136,20.5C 136.717,19.9558 137.217,19.2891 137.5,18.5 Z"/></g>
<g><path style="opacity:0.861" fill="#fefffe" d="M 669.5,18.5 C 686.503,18.3334 703.503,18.5001 720.5,19C 756.792,29.3121 770.292,52.8121 761,89.5C 752.933,107.564 739.099,118.064 719.5,121C 709.08,122.1 698.747,122.6 688.5,122.5C 688.666,130.174 688.5,137.841 688,145.5C 687.781,146.938 687.281,148.271 686.5,149.5C 680.886,150.621 675.22,150.788 669.5,150C 668.809,148.933 668.309,147.766 668,146.5C 667.757,138.31 667.257,130.143 666.5,122C 667.316,88.1855 667.816,54.3521 668,20.5C 668.717,19.9558 669.217,19.2891 669.5,18.5 Z M 691.5,36.5 C 705.58,34.9473 718.58,37.7806 730.5,45C 743.16,56.6805 745.994,70.5138 739,86.5C 727.776,99.572 713.443,105.239 696,103.5C 693.576,103.47 691.243,103.137 689,102.5C 688.333,81.1667 688.333,59.8333 689,38.5C 689.995,37.9341 690.828,37.2674 691.5,36.5 Z"/></g>
</svg>
